<?xml version="1.0" encoding="UTF-8" standalone="no"?>
<svg
   xmlns:dc="http://purl.org/dc/elements/1.1/"
   xmlns:cc="http://creativecommons.org/ns#"
   xmlns:rdf="http://www.w3.org/1999/02/22-rdf-syntax-ns#"
   xmlns:svg="http://www.w3.org/2000/svg"
   xmlns="http://www.w3.org/2000/svg"
   viewBox="0 0 2829.3333 2829.3333"
   height="2829.3333"
   width="2829.3333"
   xml:space="preserve"
   id="svg2"
   version="1.1"><metadata
     id="metadata8"><rdf:RDF><cc:Work
         rdf:about=""><dc:format>image/svg+xml</dc:format><dc:type
           rdf:resource="http://purl.org/dc/dcmitype/StillImage" /></cc:Work></rdf:RDF></metadata><defs
     id="defs6" /><g
     transform="matrix(1.3333333,0,0,-1.3333333,0,2829.3333)"
     id="g10"><g
       transform="scale(0.1)"
       id="g12"><path
         id="path14"
         style="fill:#372d7e;fill-opacity:1;fill-rule:nonzero;stroke:none"
         d="m 12802.4,13922.9 c -700.1,322 -1518.7,411.9 -2282.6,404.6 -584.89,-5.6 -1196.19,-65.6 -1748.92,-265.8 -88.14,-31.9 -176.37,-63 -262.56,-99.3 -151.23,-63.6 -310.64,-132.3 -415.59,-264 -8.28,-10.4 -16.27,-21.1 -23.72,-32.2 19.73,-12.2 36.83,-29.3 53.98,-44.8 l 1.75,-1.6 c 6.04,-3.5 12.09,-6.9 18.22,-10.1 l 9.6,-4.6 c 4.97,-1.8 9.99,-3.5 15.06,-5.1 17.54,-5.3 35.37,-9 53.5,-12 88.28,-14.4 129.25,-119.7 111.66,-196.7 -3.21,-14.3 -8.48,-27 -15,-38.5 80.97,-28.5 162.72,-54.7 245.01,-79 211.84,-62.5 427.47,-112.1 645.06,-149.7 276.3,-47.9 556.05,-76.6 836.35,-86 335.7,-11.3 672.5,5 1005.6,48.7 125.1,16.4 249.1,37.6 373.2,60.5 141.3,26 282.6,52.1 423.9,78.2 l 560.1,103.3 c 161,29.7 321.8,59.4 482.9,89.1 -45.2,72.3 -13.4,175.4 58.4,217.1 19.3,11.1 38.4,22.4 57,34.9 l 9.9,6.8 4.3,3 5.9,6.2 c 7.4,6.9 13.8,15.5 21.3,22.2 l 1,0.8 0.3,0.5 c 7,12 9.9,19.6 18.1,30.9 -57.5,86.6 -166.1,137.7 -263.7,182.6" /><path
         id="path16"
         style="fill:#5a44a4;fill-opacity:1;fill-rule:nonzero;stroke:none"
         d="m 15542.4,7108.1 c -87.7,143.4 -198,274.8 -282.8,426.5 -190.9,342.1 -500.6,590.8 -724.5,909.4 -84.4,120 -156.9,250.6 -194.9,393 -37.6,140.6 -32.8,282.9 4.6,423 72.6,273.1 230.8,516.4 265.6,800.6 33.9,275.8 -36.5,562.5 -194.4,791.2 -150,217.2 -360.9,379.9 -539.9,571.1 -92.2,98.4 -174.7,205.4 -233,327.5 -61.7,129.1 -95.2,270.2 -116.2,411.1 -42.6,284.9 -35.8,575.6 -95.1,858.4 -59.6,284.1 -199,538.2 -388.5,750.4 -148.1,-65.6 -299.8,-122.9 -453.7,-173.5 -388.5,-127.6 -790.3,-210.5 -1195.1,-265.6 -421.7,-57.4 -847.7,-93.1 -1273.5,-90.8 -428.57,2.2 -858.97,45.4 -1275.68,148.1 -193.86,47.7 -384.5,108.7 -569.15,184.8 -70.02,28.9 -140.22,58.5 -207.16,92.9 -129.21,-215.2 -188.16,-461.3 -238.88,-705.2 -53.54,-258 -99.49,-526.9 -232.84,-758.2 -132.22,-229.4 -348.2,-374.1 -574.85,-499.5 -220.46,-121.9 -453.34,-232.1 -637.31,-408.2 -182.22,-174.5 -293.79,-407.4 -340.22,-653.7 -48.47,-257.2 -33.86,-523 16.18,-778.7 28.21,-144.4 74.68,-283.3 110.25,-425.8 37.08,-148.7 53.55,-304.2 -6.77,-449.3 -98.17,-236.2 -336.32,-385.3 -529.84,-536.5 -213.45,-166.6 -410.76,-367.7 -528.71,-614.5 -70.55,-147.6 -110.02,-311.5 -104.85,-475.5 2.63,-83.7 45.21,-176.4 39.75,-256.8 -5.21,-76.9 -57.73,-156.7 -66.74,-237.7 -38.1,-344.2 168.96,-685.9 359.51,-954.7 252.13,-355.7 535.88,-778.1 399.36,-1192.2 -89.45,-271.2 -341.48,-458.5 -460.7,-718 -137.78,-299.7 -67.09,-682.5 168.62,-913.2 231.08,-226.2 574.61,-293.1 897.87,-300.3 323.22,-7.3 649.69,34.1 968.32,-20.6 485.99,-83.6 905.38,-381.3 1367.83,-552.4 449.89,-166.5 944.26,-211.1 1416.61,-127.7 761,134.4 1459.3,590.8 2232,589 458.5,-1.1 908,-165.9 1365.7,-140.1 345.2,19.4 683.1,150.5 950.9,369.1 143.6,117 267.2,258.1 417.7,366.1 315.1,226 738.2,300.9 991.4,594.6 183.8,213.2 243.7,526.2 151.7,792.2 -117.1,338.5 -447.5,573.7 -548.3,917.3 -108.5,369.9 75.6,765.5 32.2,1148.5 -16.6,146.7 -72.3,269.2 -142.5,383.9" /><path
         id="path18"
         style="fill:#5a44a4;fill-opacity:1;fill-rule:nonzero;stroke:none"
         d="m 8635.09,13446 c 40.73,-12.3 81.71,-24 122.88,-35 l -5.41,-10.8 c -39.18,15 -78.39,30.3 -117.47,45.8" /><path
         id="path20"
         style="fill:#43389a;fill-opacity:1;fill-rule:nonzero;stroke:none"
         d="m 12237.3,11584.3 c -388.8,54.3 -779.8,-79.3 -1155.9,-157.8 -554.9,-115.8 -1124.42,-193.1 -1692.11,-189.3 -246.24,1.6 -499.2,11.4 -739.29,70.8 -131.01,32.4 -272.64,82.4 -380.31,169.8 -4.24,-71.1 -1.8,-142.5 6.82,-213.1 27.92,-227.9 121.41,-452.8 274.44,-625.1 74.79,-84.2 163.8,-154 261.54,-209.8 96.75,-55.3 199.55,-99.5 295.14,-157.1 94.04,-56.7 175.25,-126.9 235.42,-219.4 67.53,-103.8 97.25,-224.7 105.73,-347.1 15.68,-224.2 -37.86,-458.3 32.64,-676.6 107.92,-334.1 449.49,-547.8 768.28,-646.7 170.8,-53 351.6,-78.9 530.4,-66 165.5,11.9 340.3,59.5 468.8,169.2 151,128.9 219.1,323.1 262.5,511.1 44.1,191 62.4,387.4 112.2,577.1 58.8,223.9 171.3,426.8 339.3,587.2 175.7,167.6 410.5,265.7 559.7,461.9 130.7,171.9 256.1,435.4 176.1,652.8 -69.5,189.3 -274.8,282 -461.4,308.1" /><path
         id="path22"
         style="fill:#352d78;fill-opacity:1;fill-rule:nonzero;stroke:none"
         d="m 8159.09,13480.1 c -52.81,-571.3 -278.73,-1097 -652.81,-1531.5 -342.84,-398.4 -814.6,-635.8 -1062.89,-1116.9 -209.2,-405.3 -180.94,-838.8 -90.62,-1270 71.43,-340.9 147.04,-679.8 -36.44,-1000.4 -130.67,-228.2 -396.82,-374.2 -586.69,-547.5 -285.11,-260.1 -429.91,-640.9 -468.5,-1017 -46.48,-453.4 136.62,-838.2 395.03,-1195.2 164.67,-227.6 327.2,-454.3 332.57,-746.5 5.06,-278.6 -214.08,-538.1 -344.36,-768.7 -215.44,-381.5 -191.47,-826 63.14,-1181.6 26.02,-36.3 86.72,-1.5 60.41,35.3 -181.92,254.1 -241.07,540.8 -173.34,846.7 57,257 249.15,478.7 366.67,709.9 186.79,367.6 59.34,702.8 -158.74,1020.4 -135.83,197.9 -283.55,380 -376.61,603.8 -105.28,253 -117.85,537.4 -78.73,805.4 79.51,545.6 444.97,835.6 832.15,1173.6 344.16,300.4 355.51,691.3 275.86,1113.2 -51.01,269.8 -117.08,529.5 -105.14,806.7 14.13,327.1 156.1,640.7 358,893.2 309.67,387.3 752.73,629.1 1046.42,1039 277.95,388 430.93,855.9 474.58,1328.1 4.14,44.9 -65.82,44.5 -69.96,0" /><path
         id="path24"
         style="fill:#352d78;fill-opacity:1;fill-rule:nonzero;stroke:none"
         d="m 6185.52,2930.3 c -232.06,195.5 -347.33,455.3 -339.83,757.9 6.72,271.9 181.34,510.6 276.05,756.1 186.31,483.2 48.53,924.4 -161.55,1376.3 -254.72,547.8 -611.26,1175.6 -219.35,1751.2 244.1,358.6 671.77,542.8 912.98,909.4 225.14,342.1 164.53,791.4 121.07,1173.7 -64.12,564 -37.9,1032.7 375.93,1461 312,322.8 687.83,559.3 953.46,928.6 270.5,376.2 396.39,844.3 397.51,1303.3 0.15,45.1 -69.86,45.1 -69.96,0 -1.51,-590 -222.6,-1138.1 -633.81,-1561.6 -316.97,-326.3 -715.26,-560.6 -960.96,-953.3 -234.64,-375 -170.62,-839.4 -123.41,-1254.7 30.74,-270.6 51.84,-538.4 -11.06,-806.2 -63.92,-271.8 -267.09,-470.5 -471.03,-645.3 -317.85,-272.4 -638.87,-503.8 -726.04,-937.2 -97.78,-486.5 192.74,-984.3 394.25,-1404.3 140.71,-293.3 251.2,-592.3 250.13,-921.3 -0.97,-305.9 -187.13,-580.5 -298.85,-855.4 -164.63,-405.2 -46.48,-848.3 284.92,-1127.7 34.3,-28.9 84.09,20.4 49.55,49.5" /><path
         id="path26"
         style="fill:#352d78;fill-opacity:1;fill-rule:nonzero;stroke:none"
         d="m 7965.62,11522.5 c -677.46,-423.7 -928.03,-1104.4 -927.2,-1875.1 0.53,-520.6 -40,-962.6 -373.64,-1381.3 -224.11,-281.4 -497.24,-517.7 -686.96,-826.4 -414.02,-673.7 74.84,-1365.8 289.89,-2011.4 268.79,-806.9 -405.99,-1757.8 164.48,-2484.5 27.87,-35.5 76.98,14.4 49.5,49.5 -309.77,394.5 -214.37,900.7 -128.92,1354.8 70.85,376.6 93.65,728.2 -17.58,1098.8 -101.29,337.7 -277.56,648.2 -384.94,984.1 -132.04,412.6 -52.72,789.7 196.05,1135.4 183.14,254.4 426.35,459.6 615.14,709.6 213.5,282.8 314.64,574 341.44,926.9 32.25,425.7 -26.51,839.9 100.56,1256.2 128.08,419.6 429.81,773 797.55,1003 38.1,23.8 3.02,84.4 -35.37,60.4" /><path
         id="path28"
         style="fill:#352d78;fill-opacity:1;fill-rule:nonzero;stroke:none"
         d="m 6901.42,2989.4 c -515.07,656.4 -181.78,1543.8 -179.25,2293.4 1.18,330.8 -101.72,625.5 -249.74,916.4 -196.63,386.4 -382.26,751.8 -156,1171.9 161.46,299.8 465.58,517.6 686.86,771 201.51,230.9 346.89,496.9 418.51,794.8 90.38,375.9 52.43,771.8 139.93,1151.1 87.11,377.6 262.56,729.4 485.84,1043.9 26.21,36.9 -34.5,71.8 -60.31,35.3 -213.69,-300.9 -369.21,-625.8 -472.01,-979.9 -117.22,-403.7 -87.11,-821.8 -160.88,-1231.8 -75.71,-420 -373.98,-754.4 -666.64,-1044.2 -228.45,-226.2 -454.81,-453.7 -538.8,-773.1 -75.61,-287.3 63.24,-581.8 189.28,-831.7 96.76,-191.9 196.29,-377.7 258.27,-584.7 68.6,-229.1 61.09,-477.9 46.57,-713.9 -42.87,-699.5 -267.38,-1461 208.82,-2068 27.87,-35.5 77.08,14.4 49.55,49.5" /><path
         id="path30"
         style="fill:#352d78;fill-opacity:1;fill-rule:nonzero;stroke:none"
         d="m 8245.13,10982 c -377.82,-417.4 -491.73,-961.4 -544.84,-1506.5 -34.4,-353.1 -46.48,-706.6 -106.26,-1057 -62.51,-366.5 -220.75,-698.1 -375.59,-1032.6 -275.22,-594.6 -324.38,-1148.8 -209.01,-1792 66.85,-372.5 180.76,-734.4 218.66,-1112.1 36.15,-359.9 -97.88,-704.5 -98.71,-1062.6 -0.04,-45.2 69.97,-45.1 70.06,0 0.59,295.6 90.14,580.1 104.55,874.9 15.59,316 -76.39,636.7 -146.84,941.1 -86.14,371.9 -155.22,745.5 -149.28,1128.8 5.85,379.8 149.53,724.1 306.26,1062.9 243.5,526.1 375.15,1023.5 421.24,1602.3 53.25,667.8 85.65,1380.1 559.26,1903.3 30.16,33.4 -19.14,83 -49.5,49.5" /><path
         id="path32"
         style="fill:#352d78;fill-opacity:1;fill-rule:nonzero;stroke:none"
         d="m 8502.09,10866.6 c -379.78,-343.5 -465.34,-847.9 -451.79,-1338.3 9.65,-351.1 71.71,-698.8 84.29,-1050 13.15,-367.3 -45.22,-735.1 -112.6,-1094.9 -120.87,-645.6 -292.76,-1278.4 -306.11,-1939.1 -6.24,-310 40.83,-616 131.74,-911.7 105.82,-344 265.82,-682.7 125.99,-1042.2 -16.37,-42.2 51.26,-60.2 67.43,-18.7 87.21,224.3 65.48,435.9 7.31,665.1 -89.06,351 -220.32,664.4 -253.54,1030.5 -61.49,677.7 121.9,1357.1 258.32,2014.9 130.57,629.7 173.59,1228.4 106.69,1869 -64.02,612.8 -108.94,1313 391.77,1765.9 33.52,30.4 -16.13,79.7 -49.5,49.5" /><path
         id="path34"
         style="fill:#352d78;fill-opacity:1;fill-rule:nonzero;stroke:none"
         d="m 8729.71,10870.6 c -319.27,-315.8 -324.14,-768.9 -239.37,-1183.8 64.07,-313.7 177.83,-612.2 219.05,-931.2 43.85,-340.2 -45.99,-683.2 -140.31,-1007.1 -172.52,-592 -317.52,-1142.8 -284.43,-1766 33.52,-630.7 379.04,-1218.7 348.54,-1848.4 -2.19,-45.2 67.82,-45 69.97,0 27.67,570.7 -260.46,1105.3 -332.09,1666.5 -81.36,637.3 55.16,1240.7 240.39,1845.9 151.81,496.3 222.85,951.8 103,1462.6 -130.28,555 -414.61,1237.8 64.8,1712 32.05,31.8 -17.45,81.2 -49.55,49.5" /><path
         id="path36"
         style="fill:#352d78;fill-opacity:1;fill-rule:nonzero;stroke:none"
         d="m 8896.19,10745.8 c -218.86,-428.1 -72.99,-876.7 63.43,-1306.7 201.61,-635.5 80.05,-1208.4 -47.16,-1843.9 -111.67,-558.3 -126.38,-1125.6 -51.74,-1689.6 40.48,-306.3 117.17,-604.8 136.71,-914.1 21.72,-344.6 -38.69,-692.8 -91.6,-1031.8 -6.92,-44.1 60.52,-63.1 67.53,-18.6 80.05,513.1 125.21,1003.2 35.66,1518.5 -113.81,654.5 -165.21,1277.4 -61.78,1937.8 85.36,544.5 258.42,1067.2 188.07,1624.5 -71.62,567.5 -470.45,1117.8 -178.71,1688.6 20.46,40.1 -39.85,75.5 -60.41,35.3" /><path
         id="path38"
         style="fill:#352d78;fill-opacity:1;fill-rule:nonzero;stroke:none"
         d="m 9111.82,10411 c -68.4,-431.4 45.02,-835.2 169.16,-1245.9 162.24,-537 246.63,-1062.2 188.26,-1623.6 -55.94,-537.8 -188.26,-1055.2 -208.28,-1598.5 -18.47,-500.9 35.71,-1002.7 138.41,-1492.6 9.26,-44.1 76.69,-25.4 67.43,18.7 -101.97,486.6 -146.64,977 -135.88,1473.9 11.06,510.4 131.69,999.7 196.1,1503.1 60.07,469.4 35.56,928.8 -78.05,1388.1 -128.04,517.6 -356.15,1012.8 -269.62,1558.2 6.97,44.2 -60.42,63.1 -67.53,18.6" /><path
         id="path40"
         style="fill:#352d78;fill-opacity:1;fill-rule:nonzero;stroke:none"
         d="m 9495.35,10102 c -119.07,-420.8 49.99,-820.3 161.76,-1224 136.6,-493.7 165.55,-1009.5 122.77,-1518.1 -75.13,-893.3 -365.89,-1799.5 33.81,-2659.5 19,-40.9 79.37,-5.3 60.46,35.3 -403.26,867.5 -92.12,1818.1 -16.27,2719.7 33.18,394.2 0.83,790.6 -72.3,1178.5 -90.03,477.7 -362.24,956.7 -222.8,1449.5 12.28,43.5 -55.15,62 -67.43,18.6" /><path
         id="path42"
         style="fill:#352d78;fill-opacity:1;fill-rule:nonzero;stroke:none"
         d="m 11277.2,10115.3 c -186.3,-349 131.6,-859.1 218.8,-1204.8 152.8,-605.4 -180.9,-1161.7 -246.3,-1753.3 -59.2,-535.5 30.8,-1029.2 144.7,-1550.3 65.5,-299.4 106.7,-596.9 92.6,-903.8 -14.7,-317.9 -80,-629.9 -83.9,-949 -0.5,-45.1 69.4,-45.1 70,0 6.2,510.7 125.9,999.7 56.5,1511.8 -78.5,579.5 -259.6,1115.6 -227.4,1709.2 28.3,523.4 267.6,1000.3 306.7,1519.9 17.4,230.1 -47.3,462.1 -114.5,679.1 -79.4,256.5 -296.4,644.4 -156.8,905.9 21.2,39.8 -39.2,75.1 -60.4,35.3" /><path
         id="path44"
         style="fill:#352d78;fill-opacity:1;fill-rule:nonzero;stroke:none"
         d="m 11544.2,10226.2 c -167.5,-437 79.8,-910.3 160.4,-1341.9 61,-326.6 47.6,-649.6 -38.2,-970 -70.1,-262.3 -139.1,-501.2 -135,-774.8 7.6,-511.7 233.7,-1002.9 341.7,-1496.9 137.4,-628.5 -36,-1241.4 -241.9,-1833.1 -14.8,-42.7 52.7,-60.9 67.5,-18.6 172.3,495.2 318.5,995.7 291.6,1525.1 -26.2,514.4 -251.4,1001.3 -351.5,1502.4 -119.9,599.8 183.3,1120.1 173.8,1712.2 -3.9,246.6 -59.3,493 -120.5,730.6 -81.3,315.9 -204.1,623.7 -80.4,946.4 16.2,42.2 -51.5,60.3 -67.5,18.6" /><path
         id="path46"
         style="fill:#352d78;fill-opacity:1;fill-rule:nonzero;stroke:none"
         d="m 11795.3,10437.1 c -168,-526.4 78.6,-1024.2 221.6,-1525 179.6,-629 -77.7,-1221.2 -181.4,-1836.7 -90.9,-539.7 85.3,-1042.9 211.1,-1560.6 162,-666.5 97.2,-1359.2 -157.5,-1993.1 -16.8,-41.9 50.9,-59.9 67.5,-18.6 215.3,535.8 289.9,1099.2 223.5,1672.7 -67.9,584.7 -334.6,1121.4 -296.4,1720.4 36.7,574.6 304.2,1103.6 266.1,1688 -41.2,631.5 -494.3,1185 -287,1834.3 13.7,43.1 -53.9,61.4 -67.5,18.6" /><path
         id="path48"
         style="fill:#352d78;fill-opacity:1;fill-rule:nonzero;stroke:none"
         d="m 12171.3,10842.1 c -306.6,-412.1 -180.2,-925.3 -19.5,-1369.7 110.2,-305.1 223.3,-597.1 233.3,-925.9 10.9,-358.3 -122.8,-715.9 -172.3,-1068.4 -85.4,-607.2 172.4,-1229.2 221.4,-1831.7 56,-689.6 -38.1,-1386.1 -244.5,-2044.6 -13.5,-43.2 54.1,-61.5 67.5,-18.6 173.5,553.6 259.7,1121.6 261.1,1701.6 1.6,653 -218.1,1264.4 -250.7,1909.4 -16.8,330.9 90.9,660.8 150.9,983 51.5,276.5 40.6,541.6 -27.7,813.3 -147.3,586.3 -587,1241.1 -159.1,1816.3 27,36.2 -33.8,71 -60.4,35.3" /><path
         id="path50"
         style="fill:#352d78;fill-opacity:1;fill-rule:nonzero;stroke:none"
         d="m 12407.4,10890.7 c -359.5,-314.3 -120.5,-788.7 49.6,-1134.8 315.9,-643.2 60.9,-1413.1 135.3,-2101.3 33.3,-308.2 122.4,-603.5 200.4,-902.2 91.3,-349.7 97.1,-706.7 72.9,-1064.9 -45,-666.9 -202.3,-1319.6 -131.5,-1991.2 4.6,-44.4 74.6,-44.8 69.9,0 -64.1,608 51.1,1207.5 115.4,1810.4 32,299.8 40.2,599.7 9.3,899.8 -31.4,304.5 -137.8,595.7 -206.2,892.6 -148.4,643.8 -10.7,1259.2 -43,1904.7 -11.8,235.9 -94.5,449.7 -197.3,659 -148,301.3 -335.9,706.9 -25.3,978.4 34,29.7 -15.7,79 -49.5,49.5" /><path
         id="path52"
         style="fill:#352d78;fill-opacity:1;fill-rule:nonzero;stroke:none"
         d="m 12567.8,10994.7 c -180.1,-542.2 135.9,-1039.9 286.9,-1547.7 199.9,-672.2 58.2,-1315.4 31.7,-1995.5 -24.2,-618.6 239.3,-1201.2 313.1,-1807.9 82.5,-677 -170.1,-1391.4 -320.2,-2044.6 -10,-44 57.4,-62.6 67.5,-18.7 135.5,589.7 319.2,1188.7 336,1797 16.9,613.4 -257.2,1195.8 -318.8,1800.6 -63,617.8 143,1226.7 49.7,1847.7 -44.9,298.6 -128.8,578.7 -238.3,859.6 -138.2,354.5 -266,712.1 -140.2,1090.9 14.3,42.9 -53.3,61.2 -67.4,18.6" /><path
         id="path54"
         style="fill:#352d78;fill-opacity:1;fill-rule:nonzero;stroke:none"
         d="m 12673.3,13594.9 c -59.6,-398.7 -44.2,-790.3 46.7,-1182.8 106,-458.1 364.6,-862.8 506.9,-1308.5 150.4,-471.2 78.4,-976 238.5,-1448.7 76.9,-227.3 179.8,-444 250.6,-673.7 73.8,-239.1 96.6,-494.1 132.3,-740.7 59.7,-412.7 187.6,-788.4 416.2,-1138 246.1,-376.2 589.2,-670 694.9,-1124.7 57,-245.1 19.3,-514.4 17.6,-763.4 -1.4,-212.8 47.5,-406 97.3,-611.3 93.5,-385.2 -232.3,-586.3 -493.5,-783.1 -200.9,-151.3 -401.8,-302.5 -602.7,-453.8 -35.5,-26.8 -0.7,-87.6 35.3,-60.4 341.7,257.3 759.5,495.5 1036.1,825.7 96.5,115.1 116.3,249.2 108.6,394 -4.9,90.3 -37.4,183.2 -60.4,270 -44.1,166.8 -51.2,334.2 -50.1,505.3 2.8,416.8 15,770.5 -202.6,1140.2 -248.5,422.2 -602.2,741.4 -783.9,1208.6 -178.6,459.2 -159.5,967.1 -304.1,1436 -70.5,228.8 -176.1,446 -252.9,672.8 -98.9,292.1 -100.2,604.1 -125.8,908.2 -36,427.9 -212.4,803.3 -385.5,1189.3 -245.7,548 -341.1,1124.2 -252,1720.4 6.6,44.1 -60.8,63.1 -67.5,18.6" /><path
         id="path56"
         style="fill:#352d78;fill-opacity:1;fill-rule:nonzero;stroke:none"
         d="m 12910.2,11222.2 c -111.4,-676.8 259.8,-1284.5 385.1,-1931.8 72.8,-376.4 29.6,-767.8 88.8,-1147.6 52.2,-334.9 166.9,-657.3 309,-963.8 322.4,-695 959.3,-1177.2 1012.7,-1983.3 24.6,-370.4 -80.8,-740.5 -261.6,-1060.6 -178.6,-316.5 -480.3,-539.6 -659.8,-856.6 -22.3,-39.3 38.1,-74.6 60.3,-35.3 167.1,294.7 431.2,513.7 620.4,792.7 155.1,228.7 256.9,512.8 291.8,785.9 39.2,305.9 15.4,601.1 -79.8,894.6 -113.7,350.6 -373,625 -584.1,918.5 -501.9,697.8 -667.2,1466.4 -694.2,2309.3 -24.7,772.8 -549.4,1479.9 -421.1,2259.4 7.2,44.2 -60.2,63 -67.5,18.6" /><path
         id="path58"
         style="fill:#352d78;fill-opacity:1;fill-rule:nonzero;stroke:none"
         d="m 5254.61,6434.8 c -145.18,467.7 -90.71,951 137.25,1382.8 212.91,403.4 650.61,596.5 864.64,993.7 202.78,376.3 32.84,792.3 -57.78,1172.1 -126.19,529.4 100.27,1074.6 541.97,1382.2 36.74,25.6 1.75,86.3 -35.37,60.4 -336.66,-234.5 -544.6,-579.3 -602.97,-984.8 -83.99,-583.7 362.09,-1096.5 54.67,-1667.2 -125.9,-233.6 -378.27,-380.5 -562.09,-563.2 -157.27,-156.2 -271.04,-352.8 -357.46,-555.1 -167.22,-391 -175.45,-836.5 -50.28,-1239.5 13.34,-42.9 80.87,-24.6 67.42,18.6" /><path
         id="path60"
         style="fill:#f8a5d6;fill-opacity:1;fill-rule:nonzero;stroke:none"
         d="m 14207.3,6261.4 c -30.5,373.2 -86.8,742.9 -262.2,1078.4 -151.2,289.1 -368.7,539.5 -612.1,754.7 -540.7,478.1 -1204.1,775 -1809.8,1157.1 -158.2,99.8 -313,205.5 -459.3,322.1 -27.9,22.2 -46.8,43.1 -81.9,43.1 -23.9,0 -47.9,0 -71.8,0 -189,0 -378,0 -567,0 -75.6,0 -151.4,0 -227.1,0 -14.8,0 -30.5,1.6 -45.2,0 -23.2,-2.4 -39.3,-20.9 -56.9,-35 -38.02,-30.6 -76.7,-60.4 -115.93,-89.5 C 9595.52,9267.4 9266.66,9081.6 8939.26,8895.9 8343.94,8558.2 7733.62,8202.7 7316.03,7645 c -209.26,-279.5 -343.09,-596.8 -402.92,-940.6 -32.4,-186 -49.89,-375.1 -61.34,-563.5 -10.62,-174.9 -11.35,-350.7 13.16,-524.5 23.97,-169.1 75.42,-336.3 166.77,-481.5 87.45,-138.9 207.74,-252.8 342.36,-345.6 293.2,-202.2 649.1,-321.5 993.61,-400.2 381.82,-87.2 773.29,-122.1 1163.25,-148.9 369.98,-25.5 740.48,-47.9 1111.28,-55.8 745.9,-16 1504.6,26.1 2223.1,241.1 328.3,98.2 670.2,224.4 936.9,445.8 127.6,106 233.1,237.5 300.9,389.3 69.2,155.1 102.1,322.3 114.3,491 12.2,169.8 3.6,340.4 -10.1,509.8" /><path
         id="path62"
         style="fill:#f28fcd;fill-opacity:1;fill-rule:nonzero;stroke:none"
         d="m 14207.3,6261.4 c -30.5,373.2 -86.8,742.9 -262.2,1078.4 -151.2,289.1 -368.7,539.5 -612.1,754.7 -181.5,160.4 -376.8,300.4 -579.1,430.1 -48.7,-26 -97.9,-51.2 -147.7,-75.4 -681.1,-330.7 -1450.5,-432.9 -2195.8,-301.8 -336.6,59.2 -673.59,157.4 -943.69,376 -124.73,100.9 -237.23,221.9 -325.6,355.9 -20.81,31.5 -40.4,64.4 -57.98,98.3 -47.99,-27.4 -95.94,-54.6 -143.87,-81.7 C 8343.94,8558.2 7733.62,8202.7 7316.03,7645 c -209.26,-279.5 -343.09,-596.8 -402.92,-940.6 -32.4,-186 -49.89,-375.1 -61.34,-563.5 -10.62,-174.9 -11.35,-350.7 13.16,-524.5 23.97,-169.1 75.42,-336.3 166.77,-481.5 87.45,-138.9 207.74,-252.8 342.36,-345.6 293.2,-202.2 649.1,-321.5 993.61,-400.2 381.82,-87.2 773.29,-122.1 1163.25,-148.9 369.98,-25.5 740.48,-47.9 1111.28,-55.8 745.9,-16 1504.6,26.1 2223.1,241.1 328.3,98.2 670.2,224.4 936.9,445.8 127.6,106 233.1,237.5 300.9,389.3 69.2,155.1 102.1,322.3 114.3,491 12.2,169.8 3.6,340.4 -10.1,509.8" /><path
         id="path64"
         style="fill:#352d78;fill-opacity:1;fill-rule:nonzero;stroke:none"
         d="m 12952.4,13612.8 c 410.8,-454.7 176.3,-1155.8 317.4,-1705.7 56.4,-219.3 166.1,-439.1 304.2,-617.7 202,-261.2 444.2,-480.8 536.3,-808.7 144.4,-513.7 -126.8,-1063.5 -29.6,-1589.8 80,-433.7 378.7,-803.1 638.5,-1144 293.4,-384.8 584.6,-778.3 641,-1273.2 31.8,-278.2 -16.8,-561.8 -0.9,-841.2 14.1,-246.6 116.9,-453.2 247.6,-657.5 173.1,-270.7 366.3,-540.8 205.5,-869.3 -152.5,-311.2 -561.2,-422 -851.5,-551.7 -424.4,-189.6 -722.1,-561.9 -834.3,-1009.9 -11,-43.8 56.6,-62.4 67.5,-18.6 70.8,282.6 209,517.3 418.5,719.3 243.6,234.9 584.5,319.9 878.2,471.8 394.4,204 554.5,581.6 365.5,985 -114.2,243.8 -298.6,438 -385.7,697.1 -103.8,309.3 -28.4,671.6 -35.1,991.2 -9.9,467.5 -264.9,867.4 -533.9,1231 -285.2,385.7 -607.5,754.1 -738.9,1225.8 -159,571.2 154.8,1155.4 -6.4,1729.2 -63.7,226.5 -238.1,411.8 -387.8,585 -236.7,274.1 -395.2,573.5 -469.3,929 -111.3,533.6 106.4,1125.5 -297.3,1572.4 -30.3,33.5 -79.7,-16.1 -49.5,-49.5" /><path
         id="path66"
         style="fill:#352d78;fill-opacity:1;fill-rule:nonzero;stroke:none"
         d="m 12815.3,13613.6 c 46.1,-484.6 96.7,-968.1 207.3,-1442.9 123.9,-531.8 385.8,-951.5 635.1,-1428.1 272.9,-521.8 185,-1159.7 253.3,-1725.7 59.9,-495.8 262.8,-945.7 529.2,-1362.4 268.1,-419.2 576.1,-813.6 684,-1310.3 60.6,-278.9 17.5,-575.4 32.8,-858.3 13.3,-247.5 108.2,-480.6 186.9,-712.6 101.2,-298.6 148,-603.4 -78.6,-857.5 -162.2,-182.1 -436.9,-258.6 -657.2,-340.3 -314.5,-116.7 -632.5,-312.5 -675.9,-671.3 -5.4,-44.7 64.6,-44.2 70,0 65.4,540 761.9,607 1147.2,832.1 339.8,198.5 395.6,549.5 307.7,905.5 -57,230.6 -157.5,447.2 -208.8,679.9 -62.1,280.8 -15.3,581.9 -33,867 -28.2,458.9 -290.6,862.9 -537.5,1234 -300.1,451.1 -556.1,892.3 -669.4,1429.4 -116.1,551.6 -32.5,1123 -187.5,1669.5 -67.1,236.2 -207,444.4 -331.8,652.6 -144.9,241.6 -249.5,502.1 -333,770.4 -167.7,539 -217.7,1109.8 -270.9,1669 -4.2,44.5 -74.2,44.9 -69.9,0" /><path
         id="path68"
         style="fill:#e8893e;fill-opacity:1;fill-rule:nonzero;stroke:none"
         d="m 14320.9,6283.8 c -52.5,270.1 -121.1,536.8 -218.8,794.3 -146.9,387.3 -460,743.1 -769.1,1016.4 -218.9,193.6 -458,357.4 -705.1,509.2 -314.8,-227.9 -669.5,-399.7 -1041.8,-511.3 -419.6,-125.8 -863.7,-176.3 -1300.5,-139.9 -425.14,35.5 -853.59,151.2 -1223.13,368 -174.28,102.3 -339.19,224.8 -482.43,368 C 8106.33,8407 7649.62,8090.5 7316.03,7645 6927.68,7126.4 6877.3,6515.2 6801.98,5893.6 6715.45,5179.3 6638.86,4463.7 6572.36,3747.2 c -38.25,-412.1 -66.65,-855.7 145.19,-1211.2 205.4,-344.8 596.48,-533.5 981.57,-646.2 387.43,-113.3 789.28,-169 1190.44,-214.1 1561.84,-175.5 3165.44,-190.9 4681.24,224.8 255,69.8 517.4,158.2 702.6,346.8 293.4,298.9 317.7,763.1 310.9,1181.9 -12.4,749.9 -67.9,1499.1 -166.4,2242.6 -27.1,204.3 -57.6,409.1 -97,612" /><path
         id="path70"
         style="fill:#f8a5d6;fill-opacity:1;fill-rule:nonzero;stroke:none"
         d="m 11407.2,8773 c -64.6,150.8 -121.5,304.9 -171.4,461.3 -50.3,157.6 -93.1,317.8 -128.4,479.5 -34.7,159.4 -62.3,320.5 -82,482.4 -19.9,164.4 -32.2,329.7 -36.7,495.1 -4.4,165.5 -1.1,331.2 10.2,496.4 1.3,20.4 2.9,40.9 4.5,61.3 0.8,11.1 -5.1,21.3 -13.8,27.9 -5,4.1 -11,6.8 -17.5,7.5 l -4.5,0.4 c -31.6,-1.1 -63.1,-2.2 -94.6,-3.3 -75.2,-2.6 -150.5,-5.2 -225.7,-7.8 -91.4,-3.2 -182.9,-6.3 -274.4,-9.5 -78.8,-2.7 -157.5,-5.4 -236.3,-8.2 -38.6,-1.3 -77.3,-1.7 -115.7,-4 h -1.7 c -24.51,-0.9 -39.13,-22.1 -34.55,-45.3 63.55,-320.4 71.25,-649.1 45.15,-974 -26.3,-327.3 -86.61,-650.7 -158.23,-970.7 -40.73,-182.1 -85.36,-363.3 -130.27,-544.5 -4.54,-18.3 5.74,-39.4 24.94,-44 226.06,-54.8 453.16,-109 685.16,-131.6 208.5,-20.3 422,-12.6 624.8,43.3 111.9,30.8 220.1,76.6 318.2,138.8 17.8,11.3 20.7,30.6 12.8,49" /><path
         id="path72"
         style="fill:#ed86c8;fill-opacity:1;fill-rule:nonzero;stroke:none"
         d="m 10029.8,10232.7 c -5.3,-65.9 -12,-131.5 -19.9,-197.1 252.6,-136.2 546.1,-149.5 827.3,-180 82.5,-8.9 165.9,-18.8 248,-34.5 -24.5,124.2 -44.5,249.4 -59.8,375.1 -19.9,164.4 -32.2,329.7 -36.7,495.1 -4.4,165.5 -1.1,331.2 10.2,496.4 1.3,20.4 2.9,40.9 4.5,61.3 0.8,11.1 -5.1,21.3 -13.8,27.9 -5,4.1 -11,6.8 -17.5,7.5 l -4.5,0.4 c -31.6,-1.1 -63.1,-2.2 -94.6,-3.3 -75.2,-2.6 -150.5,-5.2 -225.7,-7.8 -91.4,-3.2 -182.9,-6.3 -274.4,-9.5 l -236.3,-8.2 c -38.6,-1.3 -77.3,-1.7 -115.7,-4 h -1.7 c -24.51,-0.9 -39.13,-22.1 -34.55,-45.3 63.55,-320.4 71.25,-649.1 45.15,-974" /><path
         id="path74"
         style="fill:#f8a5d6;fill-opacity:1;fill-rule:nonzero;stroke:none"
         d="m 9072.6,11093.6 c -17.05,54.7 -34.2,109.3 -51.3,163.9 -27.04,86.4 -54.08,172.8 -81.12,259.1 -6.28,20 -12.47,39.9 -18.75,59.9 -29.77,169.8 -140.28,330 -305.97,390 -80.78,29.4 -173.4,33 -255.64,7.1 -86.14,-27 -156.3,-85.8 -202.63,-162.8 -86.77,-144.3 -87.74,-328.5 -24.06,-481.5 31.95,-76.9 78,-147.5 137.53,-205.8 61.49,-60.3 135.64,-105.3 216.71,-133.8 166.63,-58.8 356.44,-43.4 514.39,34 18.76,9.1 36.98,19.4 54.77,30.4 12.81,8 20.8,24.5 16.07,39.5" /><path
         id="path76"
         style="fill:#f8a5d6;fill-opacity:1;fill-rule:nonzero;stroke:none"
         d="m 11925.3,11093.6 c 17.1,54.7 34.2,109.3 51.3,163.9 27.1,86.4 54.1,172.8 81.2,259.1 6.2,20 12.4,39.9 18.7,59.9 29.7,169.8 140.2,330 305.9,390 80.8,29.4 173.5,33 255.7,7.1 86.2,-27 156.3,-85.8 202.6,-162.8 86.7,-144.3 87.7,-328.5 24.1,-481.5 -32,-76.9 -78,-147.5 -137.6,-205.8 -61.4,-60.3 -135.6,-105.3 -216.6,-133.8 -166.7,-58.8 -356.5,-43.4 -514.4,34 -18.8,9.1 -37,19.4 -54.9,30.4 -12.7,8 -20.7,24.5 -16,39.5" /><path
         id="path78"
         style="fill:#f8a5d6;fill-opacity:1;fill-rule:nonzero;stroke:none"
         d="m 12255,13142.5 c -22.8,75.9 -51.2,150.1 -86.5,221.6 -16.9,34.1 -35.5,67.1 -55.6,98.9 -237,-56.1 -477.1,-99 -718.4,-131.8 -421.7,-57.4 -847.7,-93.1 -1273.5,-90.8 -411.81,2.1 -825.26,42.3 -1226.62,136.4 -46.43,-83.3 -85.06,-170.5 -116,-257.4 -3.66,-10.3 -7.26,-20.6 -10.72,-30.9 -88.43,-264.5 -114.44,-545.8 -105.82,-825.1 1.31,-44 3.51,-88.1 6.53,-132 18.81,-278.2 67.23,-554.5 144.12,-822.7 17.29,-60.1 36.39,-120.6 57.87,-180.7 100.91,-284.4 251.3,-559.1 487.41,-749.6 316.63,-255.8 755.53,-305.5 1148.73,-288.7 409.4,17.5 858.7,50.5 1189.6,319.1 219.9,178.5 373.2,419.6 473,681.8 44.9,117.9 79,240 103.5,362.6 25.8,129.3 42.2,260.3 52.8,391.6 8.5,104 13.2,208.3 15.8,312.4 5.4,210.8 6.6,423 -16.9,632.9 -13.5,119.2 -34.9,237.7 -69.3,352.4" /><path
         id="path80"
         style="fill:#f088c9;fill-opacity:1;fill-rule:nonzero;stroke:none"
         d="m 9928.28,11224.1 c -24.45,29.3 -57.88,52.1 -90.52,71.4 -33.23,19.8 -68.99,35.8 -105.72,48.2 -70.94,24 -148.11,33.4 -222.75,26.4 -20.08,-1.9 -40.15,-4.7 -60.03,-8.6 l -9.74,-4.1 c -26.94,-1.5 -53.88,-4.1 -80.69,-8.4 -77.8,-12.3 -153.46,-46 -199.26,-112.6 -46.97,-68.3 -38.83,-159.7 4.19,-227.8 40.82,-64.7 107.33,-111.5 176.22,-142.7 141.29,-64.1 306.94,-70.4 450.42,-9.3 66.85,28.4 131.26,77 161.51,145 32.89,73.9 29.91,159 -23.63,222.5" /><path
         id="path82"
         style="fill:#f088c9;fill-opacity:1;fill-rule:nonzero;stroke:none"
         d="m 11934.9,11224.1 c -24.5,29.3 -57.8,52.1 -90.4,71.4 -33.4,19.8 -69.2,35.8 -105.9,48.2 -70.8,24 -148.1,33.4 -222.6,26.4 -20.2,-1.9 -40.3,-4.7 -60.1,-8.6 l -9.7,-4.1 c -27,-1.5 -54,-4.1 -80.8,-8.4 -77.8,-12.3 -153.5,-46 -199.2,-112.6 -46.9,-68.3 -38.9,-159.7 4.1,-227.8 40.9,-64.7 107.4,-111.5 176.3,-142.7 141.3,-64.1 306.9,-70.4 450.5,-9.3 66.8,28.4 131.3,77 161.4,145 32.9,73.9 29.9,159 -23.6,222.5" /><path
         id="path84"
         style="fill:#f28fcd;fill-opacity:1;fill-rule:nonzero;stroke:none"
         d="m 11744.2,10517.1 c -61.6,-38.1 -125.4,-72.8 -190.7,-104.1 -130.7,-62.6 -268.1,-111.6 -408.8,-146 -306.8,-75.1 -629.7,-74.5 -939.8,-20 -26.7,4.7 -53.3,9.7 -80,15.1 -260.64,52.9 -516.86,143.7 -714.86,327.8 -139,129.3 -249.54,288.3 -328.81,460.5 -73.48,159.4 -117.66,334.5 -124.83,510.3 -9.5,3.2 -17.63,11 -18.85,23.5 -7.4,75.1 -5.07,149.9 4.82,224.8 9.99,75.2 29.28,148.7 39.32,223.8 34.25,257.1 -18.17,518.6 -72.98,769.1 -30.11,137.6 -60.12,275.5 -93.3,412.5 -13.3,-31.5 -25.68,-63.3 -37.03,-95 -3.66,-10.3 -7.26,-20.6 -10.72,-30.9 -88.43,-264.5 -114.44,-545.8 -105.82,-825.1 1.31,-44 3.51,-88.1 6.53,-132 18.81,-278.2 67.23,-554.5 144.12,-822.7 17.29,-60.1 36.39,-120.6 57.87,-180.7 100.91,-284.4 251.3,-559.1 487.41,-749.6 218.22,-176.3 496.85,-254.7 772.03,-280.7 294.9,-28 609.9,-13 901.4,37.8 84.6,14.7 168.6,34.3 250.6,60.3 249.7,79.3 485.6,224 633.9,440 -32.7,-47.7 -122.7,-88.6 -171.5,-118.7" /><path
         id="path86"
         style="fill:#f088c9;fill-opacity:1;fill-rule:nonzero;stroke:none"
         d="m 12479.8,11250.5 c -8,134.4 34.4,258.9 125.3,358.7 30.3,33.3 -19.1,82.9 -49.5,49.5 -102.8,-112.8 -154.8,-255.5 -145.8,-408.2 2.6,-44.8 72.7,-45.1 70,0" /><path
         id="path88"
         style="fill:#f088c9;fill-opacity:1;fill-rule:nonzero;stroke:none"
         d="m 12471.4,11389.9 c 44.4,5.8 88.9,5.9 133.1,-1.7 44.1,-7.6 63.1,59.8 18.6,67.5 -50.7,8.7 -100.7,10.8 -151.7,4.1 -19,-2.4 -35,-14 -35,-34.9 0,-17.2 16,-37.5 35,-35" /><path
         id="path90"
         style="fill:#f088c9;fill-opacity:1;fill-rule:nonzero;stroke:none"
         d="m 8616.72,11250.5 c 9.07,152.7 -42.97,295.4 -145.77,408.2 -30.45,33.4 -79.8,-16.2 -49.5,-49.5 90.91,-99.8 133.3,-224.3 125.31,-358.7 -2.68,-45.1 67.33,-44.8 69.96,0" /><path
         id="path92"
         style="fill:#f088c9;fill-opacity:1;fill-rule:nonzero;stroke:none"
         d="m 8555.19,11459.8 c -51.01,6.7 -101.09,4.6 -151.76,-4.1 -44.44,-7.7 -25.54,-75.1 18.61,-67.5 44.23,7.6 88.67,7.5 133.15,1.7 18.95,-2.5 34.98,17.8 34.98,35 0,20.9 -16.08,32.5 -34.98,34.9" /><path
         id="path94"
         style="fill:#5a44a4;fill-opacity:1;fill-rule:nonzero;stroke:none"
         d="m 8979.35,11705.4 c -10.47,-158.7 -34.83,-316.8 -76.63,-470.3 -9.8,-36 -20.56,-71.7 -32.36,-107.1 -21.48,60.1 -40.58,120.6 -57.87,180.7 -76.89,268.2 -153.77,555.4 -172.52,833.7 -21.79,322 25.28,640 127.69,946.1 3.46,10.3 7.06,20.6 10.72,30.9 38.54,-135.1 74.4,-271 105.04,-408.1 37.96,-169.7 67.92,-341.4 85.36,-514.3 16.47,-163.4 21.29,-327.8 10.57,-491.6" /><path
         id="path96"
         style="fill:#5a44a4;fill-opacity:1;fill-rule:nonzero;stroke:none"
         d="m 12341.2,12157.2 c -6,-235.8 -22.4,-472.5 -68.6,-704 -24.5,-122.6 -58.6,-244.7 -103.5,-362.6 -23.2,65.9 -43,133 -59.5,200.8 -37.6,154.6 -58.4,313.4 -65.4,472.4 -7.3,165.7 1.2,331.8 20.8,496.5 20.5,172.8 52.8,344 92.6,513.3 29.2,123.8 62.3,246.7 97.4,368.9 34.4,-114.7 55.8,-233.2 69.3,-352.4 23.5,-209.9 22.3,-422.1 16.9,-632.9" /><path
         id="path98"
         style="fill:#5a44a4;fill-opacity:1;fill-rule:nonzero;stroke:none"
         d="m 12397.8,13181.7 c -22.8,75.9 -104.8,243.9 -140.1,315.4 l -1.1,1.8 c -283.3,-74.3 -571.9,-128.1 -862.1,-167.7 -421.7,-57.4 -847.7,-93.1 -1273.5,-90.8 -428.57,2.2 -858.97,45.4 -1275.68,148.1 -29.18,7.2 -58.32,14.8 -87.35,22.6 -15.98,-31.4 -30.55,-63.5 -43.41,-96.3 -76.59,-194.1 -139.05,-489.5 -154.2,-697.4 -2.1,-28.3 76.24,-346.7 101.48,-354 115.61,-33.7 233.47,-60.4 350.93,-85.4 303.68,-64.5 614.08,-105.8 925.11,-102.1 287.42,3.5 577.22,45.2 848.22,143.6 230,83.5 446.6,204.8 633.7,363.1 154.1,130.2 287.4,286.9 384.9,463.8 -8.8,-87.1 -6.9,-175.4 0.6,-262.5 12,-139 38.8,-277.5 87,-408.7 81.9,-221.9 227,-416.8 433.1,-530.4 8.5,104 132.8,205.9 135.5,310 5.4,210.9 55,417.4 31.5,627.4 -13.4,119.1 -60.2,284.8 -94.6,399.5" /><path
         id="path100"
         style="fill:#5a44a4;fill-opacity:1;fill-rule:nonzero;stroke:none"
         d="m 8845.32,13388.4 c -24.26,6 -48.38,12.3 -72.54,18.7 24.16,-6.3 48.33,-12.7 72.54,-18.7" /><path
         id="path102"
         style="fill:#5a44a4;fill-opacity:1;fill-rule:nonzero;stroke:none"
         d="m 8757.97,13411.1 c 4.92,-1.4 9.88,-2.6 14.81,-4 -4.93,1.4 -9.89,2.5 -14.81,3.9 v 0.1" /><path
         id="path104"
         style="fill:#5a44a4;fill-opacity:1;fill-rule:nonzero;stroke:none"
         d="m 11828.1,13402 c -36,-7 -71.9,-13.7 -108,-20 36.1,6.4 72,13.1 108,20" /><path
         id="path106"
         style="fill:#f8a5d6;fill-opacity:1;fill-rule:nonzero;stroke:none"
         d="m 10009.8,2007.9 c -153.72,54.7 -309.48,107.4 -466.75,147.6 -178.76,45.7 -373.54,58 -555.95,86.3 -397.02,61.7 -794.34,123.4 -1186.2,211.8 -313.28,70.7 -633.76,164.1 -877.41,373.3 -462.99,397.4 -485.5,1022.9 -511.23,1583.9 -17.83,389.5 -3.17,779.7 21.39,1168.6 33.47,529.8 71.28,1068 210.77,1582.9 84.23,311 198.88,619.1 371.64,892.5 161.41,255.4 380.17,487.2 656.46,617.6 257.29,121.4 559.51,164 836.05,86.9 287.79,-80.2 505.13,-293.9 616.51,-568 135,-332.3 96.85,-691.6 -31.96,-1019.1 -129.21,-328.5 -356.45,-596.8 -505.92,-913 -148.02,-313.1 -215.79,-637.6 -315.91,-965.4 -101.53,-332.2 -197.51,-668 -214.37,-1018.8 -17.09,-354.3 57.59,-735.7 280.63,-1020 255.88,-326 690.04,-420.8 1082.87,-461.9 464.06,-48.7 940.08,15.2 1373.38,189.2 64,25.6 160.7,88.7 195.2,67.8 70.8,-70.9 -111.7,-179.1 -199.4,-238.5 -87.6,-59.4 -184,-108.2 -258.5,-183.5 268.3,32.6 536.6,65.1 805,97.6 18.3,2.2 40,3.4 52.4,-10.3 26,-28.4 -17.9,-67.1 -54.2,-79.6 -224.2,-77.2 -454.8,-135.5 -688.8,-174.1 168.8,-28.4 340.4,-39.5 511.3,-33.5 56.6,2 113.2,5.7 169.9,3.4 22.9,-1 186.1,-11.9 144.5,-61.4 -14.8,-17.6 -41.1,-24.4 -63,-27 -270.8,-32.4 -541.5,-64.7 -812.3,-97.1 l 17.8,-7.8 c 7.1,-2.9 14.2,-5.8 21.4,-8.5 13.7,-5.2 27.5,-10 41.5,-14.4 28,-8.7 56.6,-15.9 85.3,-21.9 58,-12.2 116.9,-19.6 175.9,-26.1 65,-7.2 130.2,-13.1 194.8,-22.7 42.2,-6.2 84.2,-14.5 125.8,-24.4 27.9,-6.6 58.6,-12 85.1,-23 5.1,-2.1 10.3,-4.7 13.7,-9.1 7.6,-9.8 7,-20.5 -1.6,-29.5 -24.4,-25.3 -66.7,-31.3 -99,-40 -58.6,-15.9 -119.2,-22.8 -179.7,-23.6 -124.9,-1.8 -248.6,20.4 -371.8,38.5 -41.2,6.1 -82.4,11.8 -123.9,16.1 -20.5,2.2 -41.1,4 -61.7,5.4 -10,0.7 -19.9,1.3 -29.9,1.7 -7.3,0.3 -23.5,-2.4 -29.9,0.9 108.2,-56.8 331.4,-132.5 324.5,-170.5 -9.3,-52.7 -93.5,-37.7 -144.6,-31.3 -188.6,23.6 -375,65.9 -555.3,126.2 -24.9,8.3 -49.7,17 -74.5,25.8" /><path
         id="path108"
         style="fill:#e8893e;fill-opacity:1;fill-rule:nonzero;stroke:none"
         d="M 8713.24,6204.2 C 8631.83,6017.6 8550.41,5831 8469,5644.4 7602.75,5737.2 6804.9,6273 6353.36,7018.1 c -9.7,15.9 -19.49,32.8 -20.02,51.4 -0.49,19.4 9.06,37.4 18.37,54.4 136.22,248.2 289.69,577 474.15,793.3 247.74,290.2 493.78,588.6 846.66,755.2 257.29,121.4 559.51,164 836.05,86.9 287.79,-80.2 505.13,-293.9 616.51,-568 C 9303.54,7752 9172.43,7256.8 8991.49,6842 8898.77,6629.5 8806,6416.9 8713.24,6204.2" /><path
         id="path110"
         style="fill:#f8a5d6;fill-opacity:1;fill-rule:nonzero;stroke:none"
         d="m 9560.93,2927.1 c 163.16,-1.3 327.55,-5.1 489.07,-21.1 183.6,-18.4 370.9,-73.5 551.9,-109.3 394.1,-78 788.6,-156.1 1187.1,-207.2 318.5,-40.9 651.6,-62.9 952.1,50.1 571.1,214.9 806.5,794.9 1022.7,1313.2 150.2,359.8 270,731.5 380.1,1105.2 150,509.4 298.7,1027.9 344.1,1559.4 27.3,321.1 25.1,649.8 -43.6,965.8 -64.1,295.3 -190.4,587.9 -405.3,805.1 -200.1,202.1 -469.5,345.7 -755.7,367.9 -297.8,23.2 -575.2,-103.1 -773.8,-322.6 -240.6,-265.9 -327.8,-616.5 -318.9,-968.4 8.9,-352.8 130.5,-682.7 162.7,-1030.9 31.8,-344.9 -15.6,-673 -33.8,-1015.3 -18.4,-346.9 -43.2,-695.3 -147.5,-1030.7 -105.3,-338.7 -306,-671.4 -613,-862.1 -352,-218.8 -792.4,-159.1 -1175.5,-63.2 -452.69,113.2 -878.11,336.3 -1225.64,648 -51.35,46.1 -120.53,138.5 -160.14,130.6 -90.77,-42.3 43.6,-206.5 105.72,-292.3 62.02,-85.9 135.78,-164.7 180.07,-260.9 -240.97,122.4 -481.94,244.9 -722.86,367.3 -16.62,8.4 -36.45,16.9 -52.92,8.2 -34.05,-17.7 -6.04,-69.1 23.78,-93.3 184.16,-149.3 380.9,-283 587.47,-399.4 -168.23,31.2 -333.3,79.4 -491.93,143.6 -52.42,21.3 -104.36,44.1 -158.39,61.4 -21.78,6.9 -178.81,52.5 -156.73,-8.3 7.84,-21.5 30.15,-37 49.79,-46.9 243.36,-123.1 486.72,-246.2 730.03,-369.3 l -19.44,-1.3 c -7.6,-0.3 -15.3,-0.6 -22.95,-0.7 -14.62,-0.2 -29.33,0.1 -43.95,0.8 -29.33,1.3 -58.56,4.4 -87.64,8.6 -58.66,8.4 -116.59,21.6 -174.18,35.6 -63.53,15.5 -126.67,32.3 -190.79,45.5 -41.8,8.6 -84.09,15.2 -126.53,20.1 -28.55,3.3 -59.14,8.8 -87.84,7.6 -5.56,-0.3 -11.25,-1 -15.98,-3.9 -10.52,-6.6 -13.69,-16.9 -8.62,-28.4 14.22,-32.1 51.88,-52.1 79.27,-71.4 49.54,-35 104.16,-62.1 160.77,-83.7 116.78,-44.4 240.64,-66 362.49,-91.1 40.82,-8.5 81.46,-17.2 121.94,-27.3 20.03,-5 40,-10.3 59.88,-16.1 9.6,-2.8 19.1,-5.7 28.65,-8.6 6.97,-2.3 21.29,-10.3 28.3,-9.4 -121.02,-16.3 -356.68,-11 -363.16,-49.1 -9.35,-52.7 74.88,-67.4 125.11,-78.9 185.29,-42.4 374.86,-66.5 564.97,-71.6 26.21,-0.7 52.47,-1.1 78.78,-1.3" /><path
         id="path112"
         style="fill:#e8893e;fill-opacity:1;fill-rule:nonzero;stroke:none"
         d="m 12216.2,6425.7 c 12.5,-203.1 25.1,-406.4 37.7,-609.6 845.7,-209.5 1778.8,20.8 2458.2,566.1 14.5,11.7 29.5,24.2 36.3,41.6 7.2,18 4.4,38.2 1.4,57.3 -43,279.8 -74.5,641.3 -173.9,907.7 -133.3,357.5 -262.4,722.1 -536.8,999.5 -200.1,202.1 -469.5,345.7 -755.7,367.9 -297.8,23.2 -575.2,-103.1 -773.8,-322.6 -318,-351.5 -364.5,-861.7 -336.5,-1313.3 14.4,-231.5 28.7,-463.1 43.1,-694.6" /><path
         id="path114"
         style="fill:#68315b;fill-opacity:1;fill-rule:nonzero;stroke:none"
         d="m 9414.87,11762.4 c -15.64,-168.7 40.04,-411.3 249.06,-412.7 176.07,-1.3 306.93,253.6 244.28,404.4 -7.8,18.8 -30.55,36.5 -42.48,8.9 -19.69,-45.6 -17.93,-93.1 -31.48,-140.8 -19.29,-68.2 -71.42,-112.1 -134.17,-138.2 -63.54,-26.3 -128.92,1.4 -174.03,46.5 -62.95,62.9 -63.15,159.3 -83.51,240.4 -6.92,27.5 -25.82,11.4 -27.67,-8.5" /><path
         id="path116"
         style="fill:#68315b;fill-opacity:1;fill-rule:nonzero;stroke:none"
         d="m 11183.9,11762.4 c -15.6,-168.7 40,-411.3 249.1,-412.7 176,-1.3 306.9,253.6 244.3,404.4 -7.8,18.8 -30.6,36.5 -42.5,8.9 -19.7,-45.6 -17.9,-93.1 -31.5,-140.8 -19.3,-68.2 -71.4,-112.1 -134.2,-138.2 -63.5,-26.3 -128.9,1.4 -174,46.5 -63.1,62.9 -63.1,159.3 -83.6,240.4 -6.9,27.5 -25.8,11.4 -27.6,-8.5" /><path
         id="path118"
         style="fill:#68315b;fill-opacity:1;fill-rule:nonzero;stroke:none"
         d="m 10526.6,11754 c 3.4,-52.4 6.5,-104.9 9.1,-157.3 3.7,-71.9 28.7,-165.1 -56.4,-192.6 -15.2,-4.9 -24.7,-27.3 -10.3,-39 52.5,-42.7 109.9,-55.3 174.6,-33.5 28.4,9.6 16.2,54.6 -12.4,45 -47.7,-16.1 -88.8,-11.4 -129.2,21.5 -3.4,-13 -6.9,-26 -10.3,-39 39.7,12.8 98.8,28.4 97.1,80 -3.6,105.1 -8.7,210 -15.6,314.9 -1.9,29.9 -48.6,30.1 -46.6,0" /><path
         id="path120"
         style="fill:#68315b;fill-opacity:1;fill-rule:nonzero;stroke:none"
         d="m 10436.1,11020 c -1.5,-113.8 34.2,-242.4 166.4,-254.3 54,-4.9 99.1,35.5 122.7,79.7 31.4,59.1 21.7,134.1 20,198.2 -1.1,45 -71.1,45.1 -69.9,0 1.6,-62.7 21.6,-179.4 -55.5,-206.2 -40.4,-14.1 -76.1,23.7 -93.6,54.4 -21.6,37.8 -20.7,86.1 -20.1,128.2 0.6,45.1 -69.4,45.1 -70,0" /><path
         id="path122"
         style="fill:#352d78;fill-opacity:1;fill-rule:nonzero;stroke:none"
         d="m 8314.9,12015.2 c 329.3,363.8 529.84,799 594.69,1285.3 5.99,44.6 -64.07,44 -69.97,0 -62.22,-466.6 -258.46,-887 -574.27,-1235.8 -30.11,-33.4 19.2,-83.1 49.55,-49.5" /><path
         id="path124"
         style="fill:#352d78;fill-opacity:1;fill-rule:nonzero;stroke:none"
         d="m 9020.03,13273.8 c -56.9,-291 -221.19,-542.9 -265.28,-837.9 -48.09,-321.8 21.87,-684 43.36,-1007.3 2.98,-44.8 72.94,-45.1 69.92,0 -19.88,300.2 -50.87,602 -50.63,902.9 0.25,330 208.19,607.2 270.06,923.7 8.67,44.1 -58.75,62.9 -67.43,18.6" /><path
         id="path126"
         style="fill:#352d78;fill-opacity:1;fill-rule:nonzero;stroke:none"
         d="m 8895.21,12342.9 c 511.76,-305.2 1169.79,-212.9 1715.79,-53.5 556.6,162.5 1042.5,540.3 1253.4,1088.7 16.2,42.2 -51.4,60.3 -67.5,18.6 -206.6,-537.2 -672.7,-865.6 -1204.6,-1039.8 -514.6,-168.6 -1178.46,-241.8 -1661.72,46.4 -38.87,23.2 -74.05,-37.3 -35.37,-60.4" /><path
         id="path128"
         style="fill:#352d78;fill-opacity:1;fill-rule:nonzero;stroke:none"
         d="m 11957.4,13356.1 c -91.4,-270 -83.4,-522.3 12.3,-789.6 56.1,-156.9 130.7,-303.9 174,-465.6 59.5,-222.8 11,-475.3 -24.5,-696.6 -7.1,-44.1 60.4,-63 67.5,-18.6 44,274.7 76,541.1 3.1,813.7 -42.5,158.8 -125.3,309.3 -180.6,463.7 -79.6,222.5 -58.6,455.1 15.6,674.4 14.5,42.9 -53,61.1 -67.4,18.6" /><path
         id="path130"
         style="fill:#352d78;fill-opacity:1;fill-rule:nonzero;stroke:none"
         d="m 12113.3,13418.6 c -4.7,-232.3 -3,-461.1 37.7,-690.5 46.3,-260.2 225.3,-468.5 267,-728 7.2,-44.5 74.5,-25.5 67.5,18.6 -33,205.6 -149.3,373 -222.9,565 -99.9,260.5 -84.9,560.9 -79.3,834.9 0.9,45.1 -69.1,45.1 -70,0" /><path
         id="path132"
         style="fill:#352d78;fill-opacity:1;fill-rule:nonzero;stroke:none"
         d="m 12324.9,13457.1 c -8.8,-407.5 43.8,-803.9 158.6,-1195 12.7,-43.2 80.2,-24.8 67.5,18.6 -113,384.6 -164.9,775.6 -156.1,1176.4 0.9,45.1 -69,45.1 -70,0" /><path
         id="path134"
         style="fill:#352d78;fill-opacity:1;fill-rule:nonzero;stroke:none"
         d="m 8876.89,12537.7 c 930.95,-445.3 2017.11,-163.2 2609.31,681.7 26,37 -34.7,72 -60.4,35.3 -569.1,-811.9 -1618.54,-1084.7 -2513.63,-656.6 -40.44,19.4 -76.01,-40.9 -35.28,-60.4" /><path
         id="path136"
         style="fill:#352d78;fill-opacity:1;fill-rule:nonzero;stroke:none"
         d="m 8951.63,12727.4 c 752.64,-369.3 1628.07,-192.1 2170.57,448.9 28.9,34.2 -20.3,84 -49.5,49.5 -521.3,-616 -1359.71,-794.2 -2085.79,-437.9 -40.35,19.8 -75.82,-40.6 -35.28,-60.5" /><path
         id="path138"
         style="fill:#352d78;fill-opacity:1;fill-rule:nonzero;stroke:none"
         d="m 9049.02,12885.1 c 510.45,-164.4 1286.08,-186 1653.08,283.1 27.3,35.1 -21.8,85 -49.6,49.5 -351.6,-449.7 -1096.54,-422.4 -1584.91,-265.1 -43.07,13.8 -61.39,-53.8 -18.57,-67.5" /><path
         id="path140"
         style="fill:#352d78;fill-opacity:1;fill-rule:nonzero;stroke:none"
         d="m 9191.43,13086.9 c 360.44,-168 934.67,-195 1261.67,63.9 35.4,28 -14.5,77.1 -49.5,49.5 -297.3,-235.4 -853.39,-203.7 -1176.79,-53 -40.64,18.9 -76.21,-41.4 -35.38,-60.4" /><path
         id="path142"
         style="fill:#352d78;fill-opacity:1;fill-rule:nonzero;stroke:none"
         d="m 9522.83,13145.8 c 124.92,-24.1 248.77,-24.6 373.88,-1.9 44.34,8.1 25.53,75.5 -18.61,67.5 -112.4,-20.5 -224.51,-19.7 -336.66,1.9 -44.09,8.4 -62.89,-59 -18.61,-67.5" /><path
         id="path144"
         style="fill:#352d78;fill-opacity:1;fill-rule:nonzero;stroke:none"
         d="m 5459.63,3275 c -97.15,247.1 -104.46,501.2 -20.46,753.2 14.27,43 -53.3,61.2 -67.53,18.6 -87.36,-262.3 -80.68,-533 20.56,-790.4 16.27,-41.5 83.99,-23.4 67.43,18.6" /><path
         id="path146"
         style="fill:#b0e3be;fill-opacity:1;fill-rule:nonzero;stroke:none"
         d="m 9242.4,13308.6 c -133.35,21.1 -265.87,47.5 -397.08,79.8 -24.26,6 -48.43,12.3 -72.54,18.8 -4.97,1.3 -9.85,2.4 -14.81,3.8 l -5.41,-10.8 c -39.18,15 -78.39,30.3 -117.47,45.8 -195.37,77.1 -388.64,158.7 -579.87,245.3 -13.79,6.2 -15.25,26.6 1.31,30.6 150.02,35.5 303.83,-10.3 444.82,-60.8 256.91,-92 496.71,-228.4 741.05,-352.5" /><path
         id="path148"
         style="fill:#b0e3be;fill-opacity:1;fill-rule:nonzero;stroke:none"
         d="m 11131.6,14236.2 c 11.1,-21 1.6,-47.8 -8.4,-67.1 l -1.8,-3 c -15.1,-27.8 -35.7,-52.8 -59,-76 -28.9,-29.1 -61.5,-55.2 -91.5,-79.5 -20.9,-17 -41.9,-33.7 -63.2,-50.2 -58.1,-45.2 -117.1,-89.5 -173.9,-136.7 -77.2,-64.3 -152.7,-130.6 -227.6,-197.5 l -11.8,-10.5 c -8.6,-7.7 -17.3,-15.4 -25.9,-23.2 l -11.1,-9.8 -3.5,-3.2 -5.4,-4.7 c -5.3,-4.8 -10.7,-9.5 -16,-14.2 -24.8,-21.9 -49.5,-44 -72.7,-67.4 -28.8,-29 -54.9,-60.7 -80.2,-92.7 -41.2,-53 -81.7,-106.3 -121.5,-160.2 -12.4,0 -24.7,0 -37,0.1 h -1.7 c 39.3,53.4 79.3,106.3 119.9,158.8 l 1.3,2.6 c 10.3,13.1 20.6,26.1 31.2,39.2 36.1,46.2 72.7,92.3 109.5,137.9 9,11 17.9,22.1 27,33 9.7,12 19.7,24.2 29.8,36.2 8.3,10 16.6,19.9 24.9,29.8 l 0.9,1.2 c 17.8,21.2 35.6,42.3 53.7,63.3 5.8,6.9 11.6,13.7 17.5,20.5 42.7,49.7 86.1,99.2 130,148 69.5,77.3 138.2,157.9 215.2,227.8 20.1,18.1 42.2,38 66.1,56.2 37.3,28.6 78.5,52.8 121.6,59.8 4.6,0.8 9.8,1.3 15.2,1.4 17.8,0.6 38,-3.1 47.3,-17.8 l 1.1,-2.1" /><g
         transform="scale(1.20708)"
         id="g150"><path
           id="path152"
           style="fill:#b0e3be;fill-opacity:1;fill-rule:nonzero;stroke:none"
           d="m 9265.55,13241.8 c -1.66,-11.7 -7.71,-21.6 -15.83,-30.1 -11.35,-12.2 -26.75,-21.7 -39.43,-30 -20.79,-13.7 -41.92,-26.8 -63.21,-39.6 -70.09,-42 -143.15,-79 -218.46,-111.1 l -5.05,-2.2 c -38.53,-16.3 -77.96,-30.5 -117.48,-44.8 -13.25,-4.8 -26.51,-9.6 -39.6,-14.4 -13.91,-5.1 -27.75,-10.3 -41.5,-15.8 -21.62,-8.4 -43.08,-17.3 -64.12,-27.2 -13.09,-6 -26.1,-12.4 -38.86,-19.3 -56.91,-30.4 -110.18,-66.7 -162.04,-104.8 -36.95,-27 -73.15,-54.9 -109.77,-82.2 -28.66,-32.7 -56.41,-66.1 -83.46,-100.2 -30.91,-39 -60.82,-78.7 -89.88,-119.1 -20.38,-28.4 -40.36,-57.1 -59.94,-86.1 -43.83,-64.4 -85.85,-130 -126.73,-196.2 -31,-50 -61.44,-100.3 -91.43,-150.6 8.76,-43.4 17.92,-86.7 27.37,-129.9 24.9,-113.5 52.27,-226.3 82.17,-338.5 12.76,-48 26.04,-95.9 39.84,-143.7 9.77,36.9 21.31,73.2 34.07,109.2 20.46,57.6 44.04,114.3 68.3,170.5 21.63,50.3 43.38,100.5 65.18,150.7 26.51,60.8 53.08,121.6 80,182.4 l 3.81,8.5 c 33.55,75.6 67.35,151.1 102.15,226.2 14,30.3 28.25,60.5 42.58,90.6 19.8,41.6 40.01,83 60.72,124.2 21.71,43.4 44,86.5 66.86,129.2 l 0.5,0.9 c 22.45,41.9 46.55,83.2 75.8,120.6 26.67,34.2 60.23,74.2 100.49,92.5 5.55,2.5 10.93,4.1 16.48,5.1 14.42,2.2 28.42,-0.9 39.27,-8.9 8.62,-6.5 15.41,-15.9 19.14,-28.2 12.18,-40.5 -6.13,-85.2 -19.96,-122.7 l -2.9,-7.5 c -12.35,-32.9 -26.76,-64.9 -42.5,-96.3 -20.96,-41.7 -44.32,-82.4 -68.93,-122.2 -5.63,-9.2 -11.52,-18.4 -17.23,-27.6 l -6.88,-10.9 c -10.6,-16.6 -21.2,-33.2 -31.98,-49.8 -36.53,-56.2 -73.89,-112.2 -110.76,-168.3 -8.53,-12.8 -16.98,-25.6 -25.35,-38.5 -34.3,-52.2 -68.43,-104.6 -102.64,-156.9 -32.89,-50.6 -66.03,-101.3 -99.17,-151.8 -52.66,-80.7 -105.42,-161.2 -158.37,-241.7 -10.94,-27 -21.36,-54 -30.92,-81.4 -17.19,-48.4 -32.08,-97.4 -43.22,-147.5 11.22,-38 22.79,-75.9 34.66,-113.6 7.15,-23.3 14.62,-46.6 22.12,-69.8 23.46,18.8 46.02,38.5 67.77,59 52.15,48.9 99.84,101.9 144.33,157.7 64.12,80.5 121.45,166.8 175.3,254.7 31.73,52 62.55,104.7 93.2,157.3 9.36,16.1 18.72,32.3 28,48.3 33.72,57.8 67.52,115.6 102.73,172.5 4.14,6.8 8.45,13.6 12.76,20.4 10.27,16.5 20.54,32.8 31.23,49.1 8.94,13.9 18.14,27.7 27.5,41.5 4.15,6.1 8.2,12.2 12.43,18.5 49.37,73 102.39,149.4 172.9,202.5 24.52,18.6 71.82,55.1 99.49,21.4 13.01,-16 11.27,-36.3 4.48,-56.1 -6.47,-18.9 -17.57,-37.3 -24.61,-51.2 -25.19,-49.9 -51.86,-99 -79.86,-147.2 -45.07,-77.9 -93.7,-153.6 -145.72,-226.8 -9.12,-13 -18.48,-26 -27.92,-38.8 -7.04,-9.8 -14.34,-19.6 -21.71,-29.3 -9.77,-12.9 -19.71,-25.9 -29.66,-38.7 -3.23,-4.2 -6.54,-8.4 -9.86,-12.6 -14.33,-18.3 -28.91,-36.4 -43.82,-54.3 -103.72,-125.9 -217.8,-243.2 -340.74,-350.4 -14.41,-12.6 -28.83,-25 -43.41,-37.2 l -7.2,-2.9 c -30.08,-35.4 -61.71,-69.5 -95.37,-102 -29.62,-28.7 -60.79,-56.1 -93.72,-82.1 3.23,-9.7 6.21,-19.4 9.4,-29.2 21.76,-65.1 44.36,-129.8 68.06,-194.3 -9.33,0.3 -18.66,0.7 -27.98,1.1 -26.07,71.7 -51.01,143.8 -74.71,216.3 h -6.13 c -56.79,14.1 -113.05,29.3 -169.08,45.8 l -4.12,1.2 c -51.83,15.4 -103.49,31.7 -154.74,49.1 -378.73,129 -737.58,314.7 -1061.57,549.4 -9.36,6.8 -7.14,20.8 4.2,23.9 85.56,23.9 174.32,7.3 255.93,-23.2 40.32,-15.1 79.68,-32.7 118.43,-51.7 38.66,-19 76.88,-39.1 114.7,-59.1 85.13,-44.8 169.01,-92.2 251.59,-141.7 128.79,-77.2 254.35,-159.8 376.81,-246.6 35.08,-24.8 69.91,-50 104.46,-75.5 53.16,-15.7 106.72,-30.4 160.56,-43.9 -7.14,22.1 -14.49,44.1 -21.43,66.2 -1.29,4.1 -2.58,8.2 -3.79,12.4 -11.47,36.5 -22.45,73.3 -33.3,110.1 -102.89,42.8 -188.17,115.3 -266.19,193.6 -51.39,51.5 -101.76,104.2 -151.08,157.7 -107.96,117.4 -211.38,239 -311.31,362.8 -74.91,92.8 -147.61,187.3 -217.87,283.5 -29.75,40.7 -136.71,155.3 -59.42,201.6 5.24,3.2 11.38,1 15.62,-2.7 66.56,-58 130.53,-118.9 191.6,-182.7 35.12,-36.8 69.42,-74.4 102.6,-113.1 58.37,-67.7 113.51,-138 165.24,-211 85.25,-120.1 160.93,-247 225.51,-379.3 10.98,-22.2 21.47,-44.7 31.72,-67.2 l 1.17,-6.4 c 16.88,-17.2 33.98,-34.3 51.31,-51 63,-60.7 131.94,-116.1 211.57,-153 -16.71,57.9 -32.81,115.9 -48.15,174.2 -29.03,109.9 -55.62,220.4 -79.76,331.5 -6.3,28.6 -12.34,57.3 -18.24,86 l -2.98,2.6 c -74.44,98 -154.72,191.4 -240.68,279.4 -8.76,9.1 -17.61,17.9 -26.49,26.7 l -10.93,10.8 c -77.7,45.9 -155.35,92.1 -233.05,138.2 -274.75,163.5 -549.17,327.9 -824.36,490.8 -9.65,5.6 -7.11,21.8 4.2,23.8 116.48,19.9 229.21,-43.9 329.23,-95.3 272.81,-139.9 523.22,-322.3 741.13,-537.8 l 2.99,-2.9 c 11.95,-11.8 23.81,-23.7 35.52,-35.8 75.68,-77.7 147.12,-159.7 214.12,-245.2 -12.87,64.4 -24.99,128.9 -36.36,193.5 -6.63,37.6 -12.93,75.3 -18.97,113 l -0.65,4.1 -1.7,0.8 c -48.47,40.3 -96.87,80.8 -145.14,121.5 -53.52,45 -107.04,90.4 -160.36,135.8 -31.44,26.7 -62.77,53.6 -94.12,80.4 -146.88,125.9 -292.71,253.1 -437.53,381.4 -87.91,78 -176.74,155.5 -262.64,235.8 -80.56,75.4 -156.48,157.5 -205.08,257.6 -3.11,6.5 -0.84,14.3 5.49,17.7 38.02,20.2 78.34,1.5 109.75,-22.3 44.76,-33.9 85.2,-74.8 126.61,-112.6 248.84,-227.7 486.2,-467.4 717.44,-712.8 75.36,-80 150.14,-160.5 224.3,-241.5 l 3.22,-8.4 c 14.25,-11.9 28.54,-23.8 42.71,-35.8 23.77,-19.9 47.46,-39.7 71.24,-59.4 -2.11,13.3 -4.12,26.6 -6.14,39.9 -15.38,102 -28.94,204.2 -40.65,306.7 l -0.48,3.2 -3.75,3.1 c -45.85,58.2 -92.99,115.4 -141.11,171.7 -78.39,58.1 -156.93,116 -235.35,174 -138.08,102.2 -275.72,205.3 -410.81,311.4 -126.49,99.3 -269.9,200.6 -334.77,353.4 -3.26,7.5 -0.15,17.2 8.8,18.9 96.23,17.3 177.32,-59.6 246.09,-115.2 319.22,-257.8 609.75,-550.2 865.77,-870.8 -8.31,76.4 -15.58,152.8 -21.95,229.2 -6.5,77.8 -11.99,155.7 -16.47,233.7 l -0.56,0.3 -1.38,1.3 c -54.85,50.9 -108.29,103.3 -160.8,156.6 l -2.26,1.6 c -3.72,3.8 -7.22,7.7 -10.82,11.7 -72.57,74.1 -143.01,150.3 -210.6,229 -105.39,122.6 -204.61,250.5 -297.28,382.9 -22.8,32.7 -45.6,66 -60.78,103 -9.24,22.8 -25.43,58.6 -8.72,81.6 36.28,49.9 115.15,-41.6 138.16,-65.8 200.55,-209.7 266.18,-511.5 466.35,-721.5 47.74,-48.6 96.66,-96.1 146.43,-142.8 -2.95,54.8 -5.65,109.5 -7.79,164.4 -1.29,34.3 -2.42,68.5 -3.27,102.7 -1.66,59.1 -2.7,118.2 -3.35,177.3 -0.97,103.8 -0.49,207.6 1.58,311.5 0.28,15.2 0.6,30.5 0.97,45.7 l -6.02,3.9 c -7.75,9 -15.5,18.1 -23.33,27 -56.03,64.5 -114.26,127.2 -175.9,186.4 -162.46,92.2 -335.05,157.2 -511.79,215.9 -64.3,21.4 -128.67,42.5 -192.4,65.5 -47.92,17.4 -97.53,34.8 -141.8,60.4 -23,13.3 -56.23,38.6 -28.82,66.3 21.56,21.7 61.84,14.5 88.72,12.1 40.03,-3.6 79.63,-7.8 119.07,-15.2 264.41,-49.7 488.13,-199.6 680.17,-382.3 l 2.18,-1.2 5.01,-5.6 c 61.76,-59.4 120.2,-122 175.74,-185.8 3.31,-3.9 6.62,-7.7 9.97,-11.5 0.16,5.1 0.2,10.3 0.48,15.4 2.15,81.8 5.37,163.7 9.44,245.5 -50.45,50.8 -100.33,102.2 -149.93,153.8 l -5.45,4.6 -2.43,3.6 c -86.69,90.4 -172.34,181.8 -256.5,274.5 -119.51,131.6 -238.26,264.4 -334.4,414.5 -23.53,36.7 -45.45,74.4 -68.1,111.6 -12.42,20.4 -26.71,42.7 -27.24,67.3 -0.49,24.7 13.93,44.4 39.56,42.4 25.87,-2 47.75,-20.7 65.59,-38 56.02,-54.9 103.53,-119 148.37,-183.2 52.07,-74.6 102.03,-150.7 152.73,-226.2 100.18,-148.8 200.16,-297.6 300.18,-446.5 46.09,-47.9 92.54,-95.5 139.28,-142.8 2.39,45.1 4.97,90 7.79,135.2 6.54,101.7 14.46,203.4 23.42,305 l -1.86,2.5 c -57.84,127.9 -127.71,250.3 -200.6,370.2 -82.02,96.8 -162.42,194.8 -242.13,293.4 -72.25,89.4 -146.89,177.8 -215.62,270 -17.76,23.9 -40.2,51.8 -45.73,82 -3.47,18.7 6.58,38.5 27.81,38.3 20.1,-0.2 39.07,-22.9 51.66,-35.9 72.7,-74.9 133.4,-163.1 193.42,-248.1 87.91,-124.3 171.38,-251.9 250.33,-382.1 67.16,-110.5 132.06,-223 187.36,-339.9 8.07,86.7 16.95,173.4 26.72,259.9 l 0.56,6.7 0.25,0.6 c 0.48,4.2 0.96,8.4 1.45,12.7 -38.47,96.5 -73.78,194.3 -105.67,293.2 l -0.41,1 c -12.87,39.8 -25.31,79.7 -37.09,119.9 -37.74,129 -69.91,259.8 -96.14,391.6 -11.63,58.6 -22.73,118 -21.47,177.9 0.36,19.5 -2.63,51.8 15.38,65.3 14.24,10.7 32.45,3.8 44.63,-6.5 20.91,-17.7 32.94,-48.1 42.3,-73.1 11.06,-29.6 18.21,-60.4 24.06,-91.4 12.27,-64.3 22.28,-129.1 30.43,-193.9 16.14,-126.9 24.55,-254.7 23.09,-382.7 26.77,-82.6 55.82,-164.6 87.18,-245.7 16.03,134.9 33.9,269.6 53.6,404 2.47,16.6 28.58,15.4 26.16,-1.2 -6.47,-44.2 -12.88,-88.5 -18.93,-132.7 -11.34,-82.5 -21.96,-165.1 -31.81,-247.7 18.81,46.7 37.58,93.3 56.96,139.9 34.99,83.9 71.07,167.5 109.69,249.8 65.39,139.7 137.93,276.3 223.25,404.8 21.24,32.1 43.31,63.7 66.28,94.6 19.13,26 37.86,56.6 64.28,75.8 17.9,13 41.84,20.3 61.23,5.9 26.09,-19.5 19.55,-55.9 11.68,-82.7 -20.96,-72.1 -61.14,-138.8 -98.01,-203.7 -38.5,-67.6 -79.51,-133.8 -123.22,-198.2 -86.69,-127.7 -184.13,-247.9 -292.02,-358.3 -31.08,-74.8 -61.31,-150.1 -91.37,-225.1 -22.29,-197.8 -40.41,-396.1 -53.41,-594.6 23.53,104.4 53.04,207.4 89.05,308.3 50.65,142.3 113.41,280.2 187.27,412 36.94,65.8 76.69,130.1 119.19,192.6 24.55,36.1 79.08,143.4 137.4,101 28.6,-20.9 13.11,-60.5 3.75,-87.3 -12.35,-35.7 -28.22,-70.2 -45.73,-103.7 -39.6,-75.5 -87.43,-146.6 -132.83,-218.6 -97.32,-154.2 -194.67,-308.4 -291.9,-462.6 l -4.29,-4.2 c -30.06,-105.5 -53.95,-212.8 -70.7,-321.2 l -2.07,-5.4 c -3.23,-64.9 -5.85,-129.9 -7.94,-194.9 18.96,60.4 38.94,120.5 60.74,180 l 2.01,5.6 c 2.43,6.5 4.69,12.9 7.11,19.4 5.53,14.8 11.18,29.5 16.87,44.2 1.98,5.1 3.87,10.1 5.85,15.1 55.42,141.2 118.79,279.4 189.63,413.5 40.32,76.4 82.98,151.8 128.39,225.3 43.92,71.1 93.16,139.7 164.08,186.1 6.3,4.2 14,-0.1 17.65,-5.5 18.06,-28 6.96,-60.1 -5.8,-87.9 -16.82,-36.7 -34.22,-72.9 -52.02,-109.1 -102.36,-209 -220.33,-409.6 -358.25,-596.5 -21.8,-29.5 -44,-58.6 -66.73,-87.4 -7.58,-9.6 -15.17,-19.1 -22.88,-28.6 -26.48,-72.1 -51.18,-145.1 -73.69,-218.7 -3.8,-12.5 -7.59,-25.1 -11.27,-37.6 l -4.28,-6.2 c -0.72,-29.4 -1.3,-58.9 -1.78,-88.3 -1.6,-94.3 -1.97,-188.7 -0.97,-282.9 0.69,-65.6 1.82,-131.2 3.84,-196.8 1.22,-44.8 2.86,-89.6 4.8,-134.3 7.83,39.2 17.36,78.3 27.37,117.1 5.21,19.7 10.38,39.4 15.54,59 13.64,51.6 27.81,102.9 42.54,154.2 l 3.07,10.5 v 0.2 l 0.04,0.2 c 15.45,53.7 31.64,107.2 48.48,160.6 2.66,8.6 5.41,17.1 8.15,25.6 22.64,71.1 46.46,141.8 71.31,212.2 17.73,50 35.97,99.7 54.73,149.3 22.73,59.9 46.31,119.6 70.68,178.9 l 4.28,10.5 c 34.18,82.9 64.9,177.1 127.5,243.5 19.21,20.3 57.45,58.9 88.41,42.5 30.57,-16 20.3,-60.1 13.42,-86.2 -23.03,-87 -55.85,-169.5 -94.24,-249.5 -28.33,-59.2 -59.77,-117.2 -92.43,-174.6 -25.99,-45.8 -52.75,-91.2 -79.35,-136.7 -39.88,-68.3 -79.47,-136.7 -115.52,-206.8 -29.22,-56.8 -56.22,-114.6 -79.26,-174.3 l -2.55,-8.6 c -19.41,-67.3 -38.06,-134.6 -55.46,-202.3 -1.7,-6.5 -3.3,-13.1 -5,-19.6 -21.39,-83.8 -41.53,-168.3 -44.16,-255.1 l 0.21,-3.3 c 4.71,-82.4 10.65,-164.7 17.67,-246.9 5.33,-63.7 11.42,-127.4 18.2,-191.1 14.78,55.9 30.68,111.6 47.75,166.8 15.26,49.6 31.52,99 48.8,148.1 9.69,27.5 19.66,54.9 29.91,82.1 v 0.1 l 0.04,0.1 c 2.1,5.6 4.2,11.2 6.42,16.7 25.43,66.9 52.68,133.1 81.69,198.5 2.22,5.3 4.6,10.5 6.94,15.8 2.91,6.5 5.86,13 8.72,19.4 h 0.08 c 31.4,69.6 64.87,138.4 100.14,206 32.94,63.2 67.4,125.4 103.32,186.6 34.72,59 70.89,117.1 108.36,174.3 9.11,13.9 18.3,27.7 27.58,41.5 33.47,49.6 68.02,98.6 103.64,146.7 19.05,25.9 38.44,51.4 57.99,76.8 5.3,6.7 10.52,13.4 15.83,20.1 5.55,7.2 11.18,14.3 16.81,21.4 5.55,6.9 18.64,9.3 22.79,-0.9 5.55,-13.7 6.21,-27.1 4.14,-40.3 -0.75,-5.4 -2.07,-10.7 -3.81,-16.1 -5.47,-17.5 -14.67,-34.5 -22.95,-51.1 -2.07,-4.1 -4.06,-8.3 -6.3,-12.4 -19.55,-39.1 -40.51,-77.6 -62.05,-115.6 -20.46,-35.9 -41.67,-71.4 -63.29,-106.5 -6.88,-11.2 -13.75,-22.3 -20.79,-33.4 -24.11,-38.6 -48.97,-76.8 -73.99,-115 -44.06,-67.1 -88.86,-133.8 -132.93,-201.1 -45.74,-69.5 -90.54,-139.6 -132.71,-211.3 -3.15,-5.1 -6.09,-10.2 -9.08,-15.4 -20.35,-34.9 -39.96,-70.2 -58.81,-106 -15.42,-29.2 -30.19,-58.6 -44.28,-88.6 -2.18,-4.5 -4.35,-9.1 -6.5,-13.7 -29.18,-77.4 -56.18,-155.7 -80.84,-234.8 -23.09,-74.3 -44.16,-149.2 -63.01,-224.7 l -1.94,-3.7 c 0.41,-3.9 0.9,-7.8 1.38,-11.7 11.86,-103.2 25.63,-206.1 41.29,-308.7 1.29,-8.7 2.66,-17.5 4.04,-26.2 2.62,7.7 5.08,15.5 7.75,23.1 30.46,91.3 63.36,181.9 98.4,271.5 16.26,41.5 33.05,82.8 50.28,123.9 14.38,34.3 29.07,68.5 44.13,102.5 l 2.61,6 0.73,1.6 c 14.65,32.9 29.5,65.7 44.76,98.4 20.87,44.5 42.26,88.7 64.34,132.7 7.27,14.7 14.7,29.3 22.24,44 34.11,66.8 69.5,133 106.43,198.3 32.11,57.4 65.5,114.1 99.88,170.3 5.06,8.5 10.19,16.9 15.49,25.4 35.05,56.8 71.33,113.7 112.92,166.1 20.05,25.4 41.26,49.7 64.29,72.4 3.97,4.1 8.2,8.2 12.42,12.1 11.27,10.6 30.99,28.6 54.18,46 31.57,23.7 69.51,46.1 100.91,46.7 15.82,0.3 29.9,-4.9 40.68,-18.4 3.31,-4.1 6.29,-9 8.86,-14.6 7.04,-15.3 8.28,-33.2 6.29,-51.3 -0.74,-7.3 -2.07,-14.6 -3.72,-21.8 -1.16,-5 -2.57,-10 -3.98,-14.8 -3.73,-12.5 -8.28,-24.5 -12.59,-34.9 -6.38,-15.2 -13.75,-30 -21.62,-44.4 -15.91,-28.8 -34.13,-56.5 -51.95,-84 -15.74,-24.5 -31.81,-48.7 -48.21,-72.8 -23.03,-34 -46.56,-67.4 -70.75,-100.5 -23.03,-31.5 -46.56,-62.5 -70.58,-93.2 l -3.9,-4.9 c -73.65,-94 -152.02,-184.2 -234.59,-270.3 -9.12,-9.5 -18.16,-19 -27.36,-28.3 -55.43,-56.6 -112.65,-111.4 -171.62,-164.2 -3.88,-3.6 -7.83,-7.1 -11.71,-10.6 -19.94,-44.6 -39.15,-89.7 -57.68,-134.8 -12.47,-30 -24.5,-60.1 -36.36,-90.3 -35,-89.1 -67.73,-179.1 -98.16,-269.8 -8.16,-24.4 -16.18,-48.8 -24.01,-73.3 6.29,-38.6 12.75,-77.2 19.48,-115.7 l 0.57,-3.2 c 9.53,-53.6 19.7,-107 30.19,-160.4 24.66,41.1 49.45,82 74.67,122.8 39.51,64 79.92,127.4 121.85,189.7 23.42,34.7 47.19,69.1 71.73,103.1 26.63,36.8 53.8,73 82.02,108.6 6.77,8.7 13.72,17.3 20.7,26 21.23,26.3 43.03,52 65.4,77.3 l 3.81,5 1.82,1.3 c 31.48,35.7 64.04,70.5 97.76,104 28.74,28.8 58.4,56.7 88.89,83.6 31.31,27.6 63.38,54.1 96.43,79.5 33.8,25.9 68.51,50.5 104.47,73.7 15.32,10 30.9,19.6 46.64,29 12.92,7.7 26.09,15.2 39.35,22.5 64.86,35.9 132.72,66.6 202.47,91.8 15.08,5.4 30.24,10.4 45.4,15 31.06,9.7 62.38,18.2 93.45,27.8 24.85,7.6 51.03,17.2 77.45,16.4 l 10.03,-1.2 c 12.1,-2.5 22.28,-9 27.25,-19.1 2.99,-5.9 4.15,-12.9 2.99,-21" /></g><g
         transform="scale(1.10486)"
         id="g154"><path
           id="path156"
           style="fill:#486425;fill-opacity:1;fill-rule:nonzero;stroke:none"
           d="m 9620.89,14185.4 c -0.09,-17.8 -0.27,-35.4 -0.54,-53 v -0.1 c -0.09,-4.7 -0.09,-9.5 -0.18,-14.1 -0.18,-14.6 -0.36,-29 -0.64,-43.6 -0.18,-9.1 -0.27,-18.1 -0.54,-27.2 -0.99,-57.7 -2.35,-115.4 -4.07,-173.1 -3.08,-109.7 -7.42,-219.2 -12.67,-328.7 -0.18,-4.2 -0.55,-8.5 -0.64,-12.6 -1.62,-32.4 -3.25,-64.8 -5.06,-97.4 -3.08,-56.7 -6.34,-113.5 -9.87,-170.2 -1.45,-23.7 -3.08,-47.4 -4.71,-71.1 -3.53,-53.9 -7.33,-107.9 -11.31,-161.8 -2.08,-28.5 -4.16,-56.9 -6.34,-85.3 -0.45,-5.2 -0.81,-10.3 -1.26,-15.5 -0.28,-4.1 -0.64,-8.3 -1,-12.3 -8.33,-107.3 -17.65,-214.4 -27.43,-321.6 -4.88,-53.2 -9.86,-106.5 -15.2,-159.6 -1.72,-18.9 -3.62,-37.9 -5.43,-56.9 -1.63,-16.1 -3.17,-32.2 -4.89,-48.3 -1.63,-16.7 -3.35,-33.4 -5.06,-50.1 l -1,-9.4 c -9.51,-94 -19.55,-187.8 -29.78,-281.8 l -0.27,-2.3 c -14.3,-0.6 -28.78,-1.1 -43.26,-1.6 2.71,25.2 5.52,50.5 8.23,75.7 2.63,24.1 5.16,48.2 7.7,72.3 5.34,50.1 10.59,100.3 15.65,150.4 l 0.46,4.6 0.45,4.5 c 2.9,28.5 5.88,57.1 8.6,85.5 l 0.45,3.7 c 15.66,158.4 29.96,316.8 42.9,475.5 2.17,26.9 4.35,53.8 6.43,80.7 l 0.45,4.8 c 5.61,73.7 10.95,147.4 16.02,221.1 0.54,7.6 1.09,15.3 1.54,22.9 0.63,9.8 1.26,19.7 1.9,29.4 6.7,101.1 12.49,202.3 17.47,303.5 0.27,5.8 0.63,11.6 0.81,17.4 l 0.46,7.6 c 3.52,73.9 6.78,147.8 9.23,221.7 3.44,96 5.97,191.9 7.6,288 0.45,22 0.72,44.1 1,66.2 l 0.18,6.4 c 0.09,13.3 0.18,26.7 0.36,39.9 0.18,11.3 0.27,22.6 0.36,33.9 0.27,39.6 0.36,79.4 0.36,119.1 -0.09,117.1 -1.63,234.2 -4.88,351.4 l -0.1,3.4 c -0.72,27.5 -1.62,55.1 -2.53,82.6 -3.35,99.3 -8.06,198.4 -13.85,297.5 -2.17,34.9 -4.43,69.8 -6.78,104.6 l -0.37,4.4 c -1.45,21.7 -3.07,43.4 -4.52,65 l -3.53,44.7 c -7.97,100.4 -17.38,200.5 -28.24,300.5 l -0.45,3.5 -1.27,11.4 c -6.97,64.1 -14.66,128 -22.99,191.8 -20.73,159.9 -45.35,319.3 -74.31,478 -4.98,27 36.48,38.6 41.55,11.4 7.69,-42.3 15.2,-84.6 22.26,-126.9 20.55,-121.2 38.46,-242.9 54.12,-364.7 8.78,-67.6 16.84,-135.3 24.08,-203.2 v -0.1 l 0.72,-6.1 c 0.73,-7.1 1.45,-14.2 2.18,-21.4 10.4,-98 19.28,-196 26.79,-294.3 2.26,-26.8 4.16,-53.6 6.06,-80.5 0.36,-5.4 0.73,-10.8 1.09,-16.3 0.36,-5 0.72,-10.2 0.99,-15.2 0.64,-8.4 1.18,-16.8 1.72,-25.3 8.69,-133.6 14.94,-267.3 19.01,-401 0.36,-9.8 0.63,-19.7 0.9,-29.5 0.28,-5.8 0.37,-11.6 0.55,-17.6 2.89,-107.9 4.52,-215.7 4.79,-323.6 0.1,-53.9 0,-107.8 -0.45,-161.7" /></g><g
         transform="scale(1.16354)"
         id="g158"><path
           id="path160"
           style="fill:#5b7d28;fill-opacity:1;fill-rule:nonzero;stroke:none"
           d="m 8799.9,16276.3 c 11.26,8.5 23.72,14.6 37.48,17.4 30.85,6.3 63.08,-7.2 86.71,-28 78.81,-69.2 102.88,-187.2 123.76,-284.8 23.9,-110.9 33.95,-224.4 41.26,-337.6 11.86,-183.1 3.78,-367.2 -19.77,-549.1 -3.7,-29.2 -7.91,-58.3 -12.46,-87.3 -2.67,-17.2 -21.83,-72.2 -14.7,-86.9 -153.5,315.9 -259.47,654.8 -313.35,1001.8 -11.44,73.7 -18.22,151.3 -1.29,224.7 9.79,42.7 33.17,100.3 72.36,129.8" /></g><g
         transform="scale(1.08792)"
         id="g162"><path
           id="path164"
           style="fill:#3b4e1f;fill-opacity:1;fill-rule:nonzero;stroke:none"
           d="m 10278.9,16206.1 c 96.5,51 201.9,93.9 310.9,88.8 16.6,-0.8 35.4,-4.1 44.2,-18.2 8.1,-13.2 3.8,-30.5 -2.2,-44.9 -32.9,-78.7 -104.6,-133.9 -177.9,-177.4 -227.8,-135.1 -493.24,-189.2 -752.91,-241.1 l -6.34,-1.3 c 178.69,143.8 381.35,287 584.25,394.1" /></g><g
         transform="scale(1.07708)"
         id="g166"><path
           id="path168"
           style="fill:#3b4e1f;fill-opacity:1;fill-rule:nonzero;stroke:none"
           d="m 9128.25,16248.5 c -105.85,30.6 -218.98,51.5 -325.73,24 -16.2,-4.2 -34.11,-11.3 -39.77,-27 -5.47,-14.8 2.44,-31 11.31,-44 48.59,-71 130.86,-111 212.24,-139 253.13,-86.7 526.59,-85.8 794.16,-83.8 h 6.5 c -206.21,105.6 -436.09,205.5 -658.71,269.8" /></g><g
         transform="scale(1.06562)"
         id="g170"><path
           id="path172"
           style="fill:#3b4e1f;fill-opacity:1;fill-rule:nonzero;stroke:none"
           d="m 10621.1,16186.7 c 116.4,61.5 243.5,113.3 374.9,107.1 20,-1 42.7,-5 53.1,-21.9 9.9,-16.1 4.6,-36.9 -2.6,-54.2 -39.6,-94.8 -126,-161.5 -214.4,-213.9 -274.7,-162.8 -594.6,-228.1 -907.79,-290.8 l -7.6,-1.4 c 215.49,173.3 459.89,346 704.39,475.1" /></g><g
         transform="scale(1.05281)"
         id="g174"><path
           id="path176"
           style="fill:#5b7d28;fill-opacity:1;fill-rule:nonzero;stroke:none"
           d="m 9235.12,16237.8 c -127.95,37 -264.66,62.2 -393.59,29 -19.57,-5 -41.23,-13.6 -48.12,-32.6 -6.53,-18 3,-37.5 13.74,-53.2 58.73,-85.8 158.08,-134.1 256.46,-167.9 305.76,-104.9 636.29,-103.7 959.49,-101.4 l 7.8,0.1 c -249.13,127.6 -526.96,248.4 -795.78,326" /></g><g
         transform="scale(1.03565)"
         id="g178"><path
           id="path180"
           style="fill:#3b4e1f;fill-opacity:1;fill-rule:nonzero;stroke:none"
           d="m 11011.6,16173.9 c 129.6,68.4 271.2,126.1 417.6,119.2 22.2,-1.1 47.5,-5.5 59.2,-24.4 11,-17.8 5.1,-41.1 -3,-60.4 -44,-105.6 -140.3,-179.8 -238.7,-238.2 -306,-181.4 -662.4,-254 -1011,-323.8 l -8.5,-1.6 c 239.8,193.1 512.1,385.3 784.4,529.2" /></g><g
         transform="scale(1.02179)"
         id="g182"><path
           id="path184"
           style="fill:#5b7d28;fill-opacity:1;fill-rule:nonzero;stroke:none"
           d="m 9471.16,16230.7 c -142.71,41.2 -295.15,69.3 -439.01,32.2 -21.83,-5.6 -45.96,-15.1 -53.59,-36.3 -7.35,-20 3.24,-41.8 15.26,-59.3 65.51,-95.7 176.38,-149.6 286.04,-187.2 340.97,-117 709.59,-115.7 1070.04,-113.1 l 8.8,0.1 c -277.8,142.2 -587.67,276.9 -887.54,363.6" /></g><g
         transform="scale(1.00056)"
         id="g186"><path
           id="path188"
           style="fill:#5b7d28;fill-opacity:1;fill-rule:nonzero;stroke:none"
           d="m 11453.5,16162.3 c 141.5,74.7 296.1,137.7 455.9,130.1 24.2,-1.2 51.8,-5.9 64.6,-26.6 11.9,-19.4 5.6,-44.8 -3.2,-65.9 -48.2,-115.3 -153.3,-196.3 -260.7,-260 -334,-198 -722.9,-277.3 -1103.7,-353.4 l -9.2,-1.8 c 261.9,210.7 559.1,420.6 856.3,577.6" /></g><path
         id="path190"
         style="fill:#3b4e1f;fill-opacity:1;fill-rule:nonzero;stroke:none"
         d="m 9639.03,15996.1 c -153.81,44.4 -318.05,74.7 -473.12,34.8 -23.49,-6 -49.46,-16.4 -57.79,-39.2 -7.79,-21.5 3.7,-45 16.57,-63.9 70.59,-103.1 190.01,-161.2 308.2,-201.7 367.46,-126.1 764.61,-124.7 1153.01,-121.9 l 9.5,0.1 c -299.5,153.3 -633.26,298.5 -956.37,391.8" /><path
         id="path192"
         style="fill:#5b7d28;fill-opacity:1;fill-rule:nonzero;stroke:none"
         d="m 11525.3,15581.1 c 155.1,81.8 324.6,150.9 499.8,142.7 26.5,-1.3 56.8,-6.6 70.7,-29.2 13.2,-21.4 6.2,-49.2 -3.5,-72.3 -52.8,-126.4 -167.9,-215.2 -285.7,-285.1 -366.2,-217 -792.6,-304 -1210,-387.5 l -10.1,-2 c 287.1,231.2 612.9,461.2 938.8,633.4" /><path
         id="path194"
         style="fill:#3b4e1f;fill-opacity:1;fill-rule:nonzero;stroke:none"
         d="m 9529.99,15389 c -168.47,48.7 -348.54,81.9 -518.33,38.2 -25.78,-6.7 -54.28,-18 -63.39,-43 -8.58,-23.6 3.95,-49.4 18.08,-70.1 77.36,-113 208.28,-176.5 337.78,-221 402.62,-138.2 837.77,-136.6 1263.47,-133.6 l 10.2,0.2 c -328,167.9 -693.75,326.9 -1047.81,429.3" /><path
         id="path196"
         style="fill:#3b4e1f;fill-opacity:1;fill-rule:nonzero;stroke:none"
         d="m 11561.3,14878.9 c 167.6,74.6 349.3,134.8 531.5,113.9 27.7,-3.3 58.8,-10.9 71.9,-35.5 12.2,-23.2 2.9,-51.7 -8.8,-75.1 -63.9,-128.2 -190.3,-212.8 -318.2,-277.4 -397.3,-200.9 -848.5,-261.6 -1289.8,-319.5 l -10.7,-1.3 c 315.8,221 672,438.2 1024.1,594.9" /><path
         id="path198"
         style="fill:#3b4e1f;fill-opacity:1;fill-rule:nonzero;stroke:none"
         d="m 9465.68,14818.6 c -172.37,62.6 -357.95,109.8 -538.17,76.1 -27.38,-5 -57.93,-14.9 -69.23,-40.3 -10.52,-24 0.68,-51.7 14.08,-74.4 72.79,-123.3 204.82,-198.9 336.81,-254.3 410.52,-172.4 864.83,-201.4 1309.13,-228.1 l 10.8,-0.6 c -330.6,198.3 -701.09,390 -1063.42,521.6" /><path
         id="path200"
         style="fill:#5b7d28;fill-opacity:1;fill-rule:nonzero;stroke:none"
         d="m 11662.9,14244 c 193.1,86 402.6,155.3 612.6,131.2 31.8,-3.7 67.8,-12.5 82.7,-40.9 14.2,-26.6 3.4,-59.5 -10.1,-86.6 -73.6,-147.7 -219.4,-245.2 -366.6,-319.7 -458,-231.4 -977.9,-301.5 -1486.6,-368.1 l -12.3,-1.6 c 364,254.7 774.5,505.1 1180.3,685.7" /><path
         id="path202"
         style="fill:#5b7d28;fill-opacity:1;fill-rule:nonzero;stroke:none"
         d="m 9247.66,14174.4 c -198.69,72.3 -412.47,126.7 -620.22,87.8 -31.57,-5.9 -66.84,-17.1 -79.75,-46.4 -12.23,-27.7 0.83,-59.8 16.12,-85.8 83.9,-142.2 236.1,-229.2 388.26,-293.1 473.07,-198.8 996.63,-232.1 1508.83,-262.9 l 12.3,-0.6 c -381,228.5 -808.01,449.3 -1225.54,601" /><path
         id="path204"
         style="fill:#416644;fill-opacity:1;fill-rule:nonzero;stroke:none"
         d="m 12744.9,14970.2 c -121.1,-49.5 -249.6,-79.5 -380.2,-75.5 -16.8,-21.2 -44.5,-13.2 -57.2,5.4 -35.1,14.1 -25.8,75.4 17.8,71.4 l 1.8,-0.2 c 136.5,196.4 332.8,339 529.4,471.1 229.8,154.3 463.3,302.8 700,446.1 134.2,81.4 269.6,160.8 405.9,238.6 32.7,18.7 67.4,-27.8 45.4,-55.9 -177.1,-225.1 -364.9,-443.1 -576.6,-636.8 -201.9,-184.7 -431.4,-359.8 -686.3,-464.2" /><path
         id="path206"
         style="fill:#416644;fill-opacity:1;fill-rule:nonzero;stroke:none"
         d="m 12126.2,13870.6 c -136.3,-36.3 -276.3,-54.2 -417.3,-52.3 -34.6,0.4 -40.4,38.9 -23.2,60.2 -0.6,10.2 2.6,20.8 11.7,29.6 365,355.8 829.7,582.9 1301.8,761.1 136.4,51.5 274,99.2 412.1,145.6 40.4,13.6 69.8,-32.6 38.8,-62.8 -381.7,-371.4 -796.9,-741.2 -1323.9,-881.4" /><g
         transform="scale(1.0966)"
         id="g208"><path
           id="path210"
           style="fill:#416644;fill-opacity:1;fill-rule:nonzero;stroke:none"
           d="m 11574,14358 2.9,2.9 c -57.8,118.2 -63.7,251.3 -55.6,380.6 8.7,139.1 31.5,277.2 65.5,412.3 69,274.2 189,535.8 350.3,768 90.9,130.8 195.6,251.4 311.2,360.9 18.2,17.3 51.8,3.4 54.7,-20.7 66.8,-555.4 -74.3,-1128 -384.4,-1592.9 -87.8,-131.5 -189.3,-253.1 -301.9,-363.9 -31.1,-30.5 -73.6,22.3 -42.7,52.8" /></g><g
         transform="scale(1.04224)"
         id="g212"><path
           id="path214"
           style="fill:#416644;fill-opacity:1;fill-rule:nonzero;stroke:none"
           d="m 11494.4,15768.1 c 12.8,162.6 32.9,324.5 52.8,486.3 4.2,34.1 54.1,45.6 68.1,11.4 99.5,-242.8 157.7,-499.2 210.9,-755.3 52,-250.1 106.1,-501.6 113.4,-757.9 4,-142 -9.2,-282.8 -43.6,-420.7 -4.9,-19.5 -20.5,-25 -35.6,-21.8 7.1,-33.3 -38.3,-64 -61.7,-31.1 -306.5,431.5 -344.8,977.6 -304.3,1489.1" /></g><path
         id="path216"
         style="fill:#416644;fill-opacity:1;fill-rule:nonzero;stroke:none"
         d="m 11541.7,16195.9 c 195.3,-578.7 395.1,-1177.5 348,-1797.2 -11.8,-154.8 -40.1,-308 -85.9,-456.2 5.7,-16.3 -0.9,-30.5 -12.3,-38.9 l -0.8,-2.4 c -15.2,-45.5 -84.8,-19.1 -69.6,26.3 l 3.3,10.9 c -250.4,541.2 -361.9,1143.8 -323.8,1738.9 10.9,170.4 34.5,339.8 70.1,506.8 6.7,31.6 57.6,51.3 71,11.8" /><path
         id="path218"
         style="fill:#416644;fill-opacity:1;fill-rule:nonzero;stroke:none"
         d="m 11251.6,13681 c -15.5,-127.2 -40.5,-253.4 -75.2,-377.4 -50,-5.8 -100.3,-11.4 -150.5,-16.5 -16.7,-1.8 -33.4,-3.4 -50,-5 -39.7,-3.9 -79.4,-7.5 -119.1,-10.9 -0.4,89 5,178.1 9.5,263.4 1.4,25.8 3.1,51.6 4.9,77.5 4.9,72.2 11.5,144.4 19.7,216.4 5,44.1 10.6,88 16.8,131.9 10.9,78.4 23.9,156.8 38.7,234.5 8,42.9 16.7,85.6 26,128.2 1.7,8 3.5,16 5.3,24 18,81.4 38,162.2 59.9,242.4 1.9,6.9 3.8,13.7 5.7,20.5 5.9,21.5 12.1,43 18.4,64.3 7.8,27.1 16,54.2 24.4,81.2 8.5,27.5 53.7,32.6 66.7,6.9 l 1.9,-4.7 c 7.5,-23.9 14.5,-47.9 21.4,-72 2.8,-10.2 5.6,-20.4 8.3,-30.7 22.6,-84.7 40.7,-170.5 54.5,-256.9 18.3,-115.4 28.7,-231.9 31.2,-348.7 2.6,-122.9 -3.5,-246.1 -18.5,-368.4" /><g
         transform="scale(1.05806)"
         id="g220"><path
           id="path222"
           style="fill:#2a3814;fill-opacity:1;fill-rule:nonzero;stroke:none"
           d="m 12505.2,16237.5 c -11.1,-43.5 -22.6,-86.9 -34.3,-130.2 -95.2,-351.8 -209.7,-698.4 -342,-1037.7 -32.9,-84.3 -66.9,-168.1 -101.8,-251.4 v -0.1 c -24.8,-58.7 -50.1,-117.2 -75.9,-175.5 -46.3,-105.1 -94.5,-209.3 -144.4,-312.6 -12.4,-25.8 -25,-51.6 -37.6,-77.3 -11.5,-23.4 -23.2,-46.7 -34.9,-69.9 l -2.6,-5.3 c -13.7,-27.4 -27.6,-54.9 -41.8,-82.2 -2.3,-4.5 -4.5,-8.8 -6.8,-13.2 l -0.1,-0.1 v -0.2 l -2.8,-5.5 -3.8,-7.2 -2.3,-4.2 -0.1,-0.1 -0.1,-0.1 c -8.9,-18 -18.3,-35.8 -27.9,-53.8 -76,-144.5 -155.3,-287.2 -238.2,-428 -54.5,-93.1 -110.8,-185.4 -168.4,-276.6 v -0.1 c -7.5,-12 -15.1,-23.8 -22.7,-35.7 -13.2,-20.8 -26.5,-41.5 -39.9,-62.3 -6.9,-10.5 -13.6,-21 -20.5,-31.5 -5.4,-8.4 -10.9,-16.8 -16.4,-25.1 -3.2,-5 -6.5,-9.9 -9.7,-14.9 l -6.7,-10 v 0 l -6.9,-10.5 c -12.4,-18.7 -24.9,-37.6 -37.5,-56.3 l -2.2,-3.3 c -104.9,-156.1 -214,-309.4 -327.1,-459.6 -32.5,-4.3 -65,-8.5 -97.4,-12.6 108.5,141.8 213.1,286.6 313.8,434 37.4,54.5 74.3,109.4 110.5,164.8 4.2,6.2 8.2,12.6 12.3,18.9 v 0.2 c 14.1,21.4 28,42.7 41.8,64.1 4,6.2 8,12.5 12,18.7 22,34.5 43.9,69.1 65.5,103.8 v 0.1 l 0.1,0.1 c 36.5,58.6 72.4,117.3 107.7,176.6 v 0.1 c 82.2,138.3 161.4,278.4 237.2,420.5 18.2,33.7 36,67.5 53.5,101.5 2.6,4.6 5,9.2 7.3,13.8 7.3,14.1 14.6,28.1 21.7,42.2 l 3,5.7 c 12.8,25.1 25.5,50.1 38.2,75.3 l 1.7,3.5 c 27.4,54.7 54.3,109.6 80.7,164.8 38,79.1 74.7,158.7 110.6,238.7 40.7,91.1 80.1,182.8 118.2,274.9 42.9,104.2 84.2,209.1 123.8,314.7 126.8,338.8 235.4,684.4 325.3,1034.7 11.4,43.9 79.1,25.2 67.9,-18.6" /></g><g
         transform="scale(1.0167)"
         id="g224"><path
           id="path226"
           style="fill:#2a3814;fill-opacity:1;fill-rule:nonzero;stroke:none"
           d="m 12160,14687.2 c -12.8,209.1 -34,417.4 -63.4,624.7 -29.2,206.7 -66.7,412.1 -112.5,615.8 -25.6,114.6 -54,228.7 -84.8,342.1 -8.2,30.2 -55.3,17.4 -47.1,-13.1 54.4,-199.8 100.9,-401.8 139.2,-605.4 38.5,-203.8 68.8,-409 90.7,-615.1 12.4,-116.1 22,-232.4 29.1,-349 2,-31.1 50.8,-31.3 48.8,0" /></g><path
         id="path228"
         style="fill:#2a3814;fill-opacity:1;fill-rule:nonzero;stroke:none"
         d="m 11786.9,13912.3 c -19.5,249.6 -41,498.9 -64.7,748.1 -23.6,249.1 -49.3,498.1 -77.2,746.9 -15.7,139.6 -32,279.1 -49,418.6 -1.6,13.2 -10.2,24.8 -24.7,24.8 -12.2,0 -26.5,-11.5 -24.8,-24.8 30.1,-248.5 58.3,-497.2 84.3,-746.1 26,-249 50,-498.1 71.7,-747.4 12.3,-140 23.9,-280 34.8,-420.1 1.1,-13.3 10.6,-24.7 24.8,-24.7 12.6,0 25.8,11.3 24.8,24.7" /><path
         id="path230"
         style="fill:#2a3814;fill-opacity:1;fill-rule:nonzero;stroke:none"
         d="m 11151.1,14398.5 c -0.9,-6.6 -1.7,-13.2 -2.5,-19.8 -6.2,-46.8 -12.1,-93.6 -18.1,-140.4 -3.1,-24 -6.1,-48 -9.1,-72.1 v -0.1 c -4.4,-35.3 -8.7,-70.7 -13,-106.1 -4.4,-36.1 -8.6,-72.2 -12.8,-108.3 -12,-102.8 -23.4,-205.4 -34.2,-308.2 -6.5,-60.9 -12.7,-121.7 -18.8,-182.6 -5.7,-58 -11.2,-115.9 -16.7,-173.8 -16.7,-1.8 -33.4,-3.4 -50,-5 10.9,117.5 22.6,235.1 35,352.5 5.7,54.4 11.6,108.9 17.6,163.2 4.5,40.9 9.1,81.8 13.9,122.6 6.5,56.6 13.2,113 20,169.7 6.8,55.3 13.6,110.7 20.8,166 4.7,37.6 9.5,75 14.5,112.5 1.2,10 2.6,19.9 3.9,29.9 1.7,13.4 10,24.9 24.8,24.9 12.1,0 26.5,-11.5 24.7,-24.9" /><path
         id="path232"
         style="fill:#2a3814;fill-opacity:1;fill-rule:nonzero;stroke:none"
         d="m 13305.6,14725 c -183,-116.6 -371.7,-223.9 -565.4,-321.7 -191.7,-96.6 -388.3,-183.8 -588.7,-260.9 -113.8,-43.7 -228.7,-84.1 -344.7,-121.4 -30.3,-9.7 -17.3,-57.6 13.2,-47.9 207.8,66.8 412.3,144.1 612.5,231.3 198.9,86.5 393.4,183 582.6,289.1 107,59.9 212.2,122.8 315.5,188.7 26.8,17.1 2,60 -25,42.8" /><path
         id="path234"
         style="fill:#2a3814;fill-opacity:1;fill-rule:nonzero;stroke:none"
         d="m 13836.1,16034.8 c -59.1,-89 -141.8,-159.3 -225.8,-223.7 -91.5,-70.1 -184.9,-137.6 -279.6,-203.2 -190.7,-132.3 -387.4,-256.2 -589.3,-371.1 -114,-64.9 -229.6,-127 -346.6,-186.2 -28.6,-14.3 -3.5,-57.2 25,-42.7 209.9,106 415.2,221.4 614.8,345.9 198.7,123.8 392.1,256.5 578.9,397.8 98.9,74.8 196.1,153.9 265.3,258.2 17.8,26.6 -25.1,51.5 -42.7,25" /><g
         transform="scale(1.06463)"
         id="g236"><path
           id="path238"
           style="fill:#88c78a;fill-opacity:1;fill-rule:nonzero;stroke:none"
           d="m 12517.4,14532.3 c -101.8,-136.8 -228.6,-253.3 -369.8,-348.2 -98.8,-66.4 -203.6,-121.7 -312.3,-167.8 -85,-36 -172.2,-66.3 -261.2,-91.8 -30.5,-8.8 -61.1,-16.9 -92,-24.5 -47.9,-11.8 -95.9,-22.3 -144.2,-31.6 -30.3,-5.8 -60.6,-11.1 -90.9,-16.1 -25.5,-4.1 -51,-7.9 -76.5,-11.2 -54.9,-7.5 -109.7,-13.5 -164.9,-18.7 -15.3,-1.3 -30.7,-2.7 -46.1,-4 -60.9,-5.2 -122.1,-9.6 -183.4,-14 -10.3,-0.7 -20.8,-1.5 -31.1,-2.2 -79.9,-5.8 -162.2,-14.4 -239.5,-36.8 -48.6,-14.1 -95.1,-33.7 -137.9,-61.5 -14.9,-9.6 -29.1,-20.1 -42.9,-31.8 l -5.8,-3.1 c -65.9,-70.1 -128.7,-143.3 -186.1,-220.4 -47.9,-63.9 -92.1,-130.4 -131.8,-199.7 -11.39,-31.1 -22.48,-62.4 -33.28,-93.7 -25.83,-75.3 -49.97,-151.2 -72.13,-227.7 -7.61,-26 -14.94,-52.2 -22.08,-78.4 -5.63,-19.9 -10.99,-39.9 -16.16,-59.9 -23.38,-89.3 -44.33,-179.3 -62.74,-269.8 -5.45,-26.2 -10.52,-52.5 -15.5,-78.8 -14.84,-0.6 -29.78,-1 -44.71,-1.4 18.5,100 40.11,199.4 64.81,298.2 1.04,4.7 2.26,9.3 3.39,14 1.4,5.5 2.72,10.8 4.22,16.2 v 0.1 c 6.76,26.8 13.71,53.3 21.04,79.9 l 1.31,4.8 c 20.2,74.4 42.09,148.2 65.76,221.4 14.56,45.7 29.77,91.1 45.74,136.3 l 0.47,4.6 c 19.73,69.8 35.23,141.4 44.52,213.8 2.45,17.7 4.33,35.3 5.83,53.1 0.56,5.8 1.03,11.5 1.31,17.3 4.13,54.7 4.42,109.6 0.38,164.5 -16.34,9.9 -32.69,19.7 -49.13,29.5 -10.14,6.2 -20.29,12.2 -30.53,18.1 l -12.49,7.5 c -79.56,46.9 -159.77,92.8 -238.3,141.4 -14.37,8.9 -28.55,17.7 -42.64,26.7 -31.75,20.2 -63.31,41.3 -94.21,63.3 -48.75,34.4 -96,71.2 -140.56,110.4 -40.58,35.6 -78.84,73.2 -114.31,113.5 -6.82,7.6 -13.5,15.5 -20,23.3 -51.89,62.2 -96.83,130.2 -131.98,205.2 -4.54,9.6 -8.92,19.2 -13.04,29 -14.24,33.7 -26.49,67.9 -36.34,102.7 -4.58,15.5 -8.74,31.1 -12.36,46.8 -10.93,46.4 -18.25,93.4 -22.37,141 -3.11,35.7 -4.4,71.5 -4.03,107.7 0.73,66.4 4.49,132.9 9.61,199.5 2.8,37.2 6.04,74.3 9.33,111.5 3.94,44 8.11,88.1 11.76,132.1 0.56,6.4 1.11,12.9 1.52,19.3 l 0.78,8.2 c 0.73,9.5 8.14,13.2 15.47,12.4 h 0.09 c 4.8,-0.8 9.65,-3.6 12.35,-8.3 4.03,-7.1 8,-14.2 12.13,-21.4 4.16,-7.4 8.28,-14.8 12.58,-22.1 46.45,-81.8 94.41,-162.9 143.52,-243.2 15.47,-25.2 31.02,-50.2 46.67,-75.2 v -0.1 c 11.95,-19.2 23.98,-38.3 36.2,-57.2 11.72,-18.4 23.52,-36.8 35.47,-55.1 36.3,-56.2 73.4,-111.9 111.16,-167.2 22.73,-33.6 45.93,-67 69.32,-100.3 10.99,-15.6 21.88,-31.2 33.16,-46.7 20.19,-28.5 40.66,-57 61.33,-85.3 21.89,-29.9 43.96,-59.7 66.03,-89.5 45.84,-62.2 91.21,-124.7 132.54,-190.1 16.91,-26.5 32.97,-53.5 48.19,-81.1 l 2.72,-4.8 c 2.44,-4.4 4.79,-8.9 7.04,-13.6 3.29,-5.9 6.39,-11.9 9.3,-17.9 14.94,-29.5 28.27,-59.5 40.02,-90.1 13.8,-35.5 25.54,-71.7 35.03,-108.6 13.29,-51.1 22.19,-103.3 26.99,-156.4 l 0.7,-9.3 c 0.7,-8.6 1.6,-17.1 2.1,-25.7 1.8,-33.6 1.9,-67 0.5,-100.4 -0.5,-13.5 -1.3,-27.1 -2.2,-40.5 -1.7,-23.4 -4.1,-46.7 -7,-69.9 -1.6,-11.8 -3.1,-23.7 -4.9,-35.4 4.9,12.3 9.7,24.5 14.7,36.7 13.2,32.6 26.6,65.1 40.5,97.5 38.8,90.7 80.2,180.4 124.1,268.7 37.6,76 77.1,151 118.4,225 11.6,20.8 23.3,41.6 35.2,62.2 8.6,14.9 17.2,29.8 26.1,44.7 v 0.1 c 69.1,117.3 142.8,231.8 221.1,343.4 -1.3,7.6 -2.7,15.3 -4.2,22.9 -5,26.1 -11.5,51.9 -19.9,77.1 -16.5,50.6 -38.3,97.9 -63.7,142.9 l -1.3,2.4 c -8.3,14.6 -17.1,28.9 -26.1,43 -30.9,48.2 -66.1,93.5 -104.2,136.9 -9.2,10.8 -18.9,21.4 -28.7,31.8 -24.6,26.7 -50.2,52.6 -76.5,78 -79.3,77.4 -164.1,150 -243.9,223.2 -5.5,5 -11.1,10.1 -16.5,15.1 l -8.94,8.3 c -6.01,5.7 -12.02,11.3 -18.13,17 -15.41,14.4 -30.81,29.1 -45.93,43.8 -43.87,42.4 -86.7,85.9 -127.93,130.9 -59.37,64.7 -115.25,132.3 -165.04,203.9 -19.25,27.6 -37.57,55.7 -54.95,84.6 -26.86,44.7 -51.28,90.9 -72.7,138.9 -6.95,15.7 -13.71,31.7 -20,47.8 l -3.57,9.4 c -8.83,22.6 -16.91,45.7 -24.05,68.9 -11.83,37.9 -21.51,76.5 -28.74,115.5 -3.85,20.6 -6.96,41.4 -9.49,62.2 -1.31,12.7 -2.54,25.3 -3.48,38 -1.59,21.8 -10.51,61.7 12.5,75.3 11.55,6.8 26.02,2.6 38.23,0.3 16.81,-3.2 33.81,-6.5 50.53,-9.9 36.82,-7.3 73.45,-15.2 109.71,-24.3 4.6,-1.2 9.3,-2.4 14,-3.6 21.32,-5.5 42.36,-11.4 63.21,-17.9 41.05,-12.8 81.35,-27.9 120.23,-46.7 14.28,-6.9 28.18,-14.3 41.61,-22.2 l 6.01,-3.5 c 14.47,-8.6 28.46,-17.7 42.08,-27.4 83.74,-59.3 151.74,-137.2 209.94,-223.8 4.6,-6.9 9.2,-13.8 13.6,-20.6 22.9,-35.2 44.5,-71.1 65,-107.7 43.3,-77.5 81.2,-157.9 114.5,-240 5.1,-12.7 10.1,-25.2 15,-37.9 23.9,-61.8 45.3,-124.4 64.7,-187.7 26.2,-85.9 48.5,-173.2 67.7,-261.2 2.6,-12.1 5.3,-24.3 7.7,-36.4 3,-14.4 5.8,-28.8 8.6,-43.2 13.2,-67.2 24.6,-134.7 34.5,-202.4 2.4,-15.5 4.6,-31.2 6.8,-46.7 37.9,-67 67.4,-138.5 84.1,-215.9 l 1.3,-6 8.5,11.9 0.1,0.1 c 26.6,37 53.6,73.6 81.1,109.9 l 0.1,0.1 c 47.6,63.1 96.9,125.1 147.5,185.9 l 6.4,7.7 c 11.5,13.5 22.9,27 34.4,40.5 15.5,17.9 31,35.7 46.7,53.5 14.7,16.7 29.6,33.4 44.6,49.9 82.5,91.3 168.6,179.4 257.8,264.3 5.5,5.2 11,10.4 16.5,15.4 35.2,33.4 70.9,66 107,98.1 13.2,11.6 26.3,23.2 39.6,34.6 29.5,25.6 59.2,50.8 89.3,75.7 7.8,6.5 16.5,6.2 23.2,2.2 10.5,-6.2 16.4,-21.4 7.8,-32.8 l -3.8,-3.8 c -27.9,-23.1 -55.7,-46.4 -83.1,-70.2 -7.3,-6.2 -14.4,-12.5 -21.6,-18.8 -13.3,-11.6 -26.5,-23.3 -39.6,-35.1 -46.4,-41.5 -92.1,-84 -136.8,-127.3 -99.3,-96.2 -194.5,-196.6 -285.3,-300.8 -18.6,-21.2 -37.1,-42.7 -55.2,-64.4 -13.7,-16.2 -27.3,-32.5 -40.7,-48.9 -13.3,-16.1 -26.4,-32.2 -39.4,-48.6 -34.8,-43.4 -68.8,-87.3 -102.1,-131.9 l -0.1,-0.1 c -5.1,-6.8 -10.1,-13.6 -14.9,-20.4 v -0.1 c -97.6,-131.5 -188.6,-267.8 -273.1,-408.1 -35.5,-59 -69.9,-119 -102.9,-179.5 -70,-128.1 -134.6,-259 -193.6,-392.5 v 0 c -19.7,-44.6 -38.8,-89.4 -57.2,-134.4 -7.3,-17.6 -14.3,-35.2 -21.4,-52.9 12.6,18.7 25.7,37.1 38.9,55.4 56.3,77.2 117.5,150.9 182.3,221.5 h 0.1 c 24.3,26.4 49,52.3 74.1,77.9 13.6,13.7 27.2,27.5 40.9,41 28.1,28.1 56.7,55.6 85.6,82.8 81.1,76.3 165.3,149.5 253,217.9 30,23.4 60.3,46.2 91.1,68.4 32.5,23.4 65.4,45.8 99,67.2 14.5,9.3 29.1,18.4 43.7,27.1 45.8,27.9 92.5,53.9 140.3,78.1 74.5,38 151.7,71.5 230.7,100.2 4.6,1.8 9,3.3 13.5,5 58.1,20.7 117,38.9 176.4,54.8 15.1,4.1 30.1,7.9 45.3,11.6 38.4,9.5 77.1,18.1 115.9,25.6 37.2,7.4 74.5,13.8 112,19.4 26.9,4 53.8,7.6 80.8,10.7 98.7,11.6 198.2,17.6 297.8,18.6 h 0.1 c 68.6,0.7 137.3,-1.1 205.9,-5.3 25.3,-1.4 50.8,-3.3 76,-5.4 16.8,-1.3 33.5,-2.9 50.1,-4.5 11.2,-1.1 16.5,-14.7 10,-23.4" /></g><path
         id="path240"
         style="fill:#7ed6f7;fill-opacity:1;fill-rule:nonzero;stroke:none"
         d="m 8299.75,12432.7 c 10.04,26.9 14.37,57.6 8.87,85.7 30.01,-14.1 64.69,-18.5 97.24,-12 28.46,5.7 55.4,17.8 78.25,35.7 20.17,15.7 38.2,35.9 47.6,59.9 18.27,46.9 2.68,100.2 -31.72,135.3 -33.96,34.6 -85.51,48.6 -132.86,45.3 -12.23,-0.9 -24.31,-2.9 -36.2,-6 2.04,5.7 3.7,11.4 5.02,17.1 10.52,46.3 -1.51,96.7 -34.74,131 -30.35,31.5 -76.15,45.3 -118.54,34.1 -42.29,-11.2 -76.92,-47.2 -92.37,-87.4 -14.81,-38.7 -14.57,-80.6 -5.7,-120.7 -26.45,16.8 -56.71,27.5 -88.04,29.1 -46.72,2.5 -95.2,-16.3 -124.92,-53.3 -27.48,-34.3 -35.32,-83.4 -18.22,-124.2 19.1,-45.7 66.36,-69.2 113.13,-76.6 38,-5.9 77.17,-1.4 112.74,12.6 -9.31,-19.1 -13.69,-40.6 -13.84,-62.4 -0.29,-40.5 15.06,-86 47.4,-112.2 30.21,-24.3 72.89,-27.9 108.46,-14.3 37.17,14 64.8,46.5 78.44,83.3" /><path
         id="path242"
         style="fill:#4daee6;fill-opacity:1;fill-rule:nonzero;stroke:none"
         d="m 8324.3,12598.2 c 14.87,34 11.26,72.7 -6.28,103.8 l -2.39,9.2 c -31.42,45.7 -90.42,76.5 -145.19,53.9 -51.49,-21.3 -80.14,-83.1 -73.62,-136.7 6.39,-52.3 48.43,-99.7 102.51,-104.1 52.14,-4.4 103.88,25.8 124.97,73.9" /><path
         id="path244"
         style="fill:#f597d0;fill-opacity:1;fill-rule:nonzero;stroke:none"
         d="m 12585.8,13816.4 c -40.6,-24.3 -77.6,-59.1 -99.4,-100.9 -24.1,49 -64.2,90.3 -112.5,115.4 -42.3,21.9 -89.3,34.1 -137,34.8 -42,0.4 -85.9,-6.8 -122.6,-28 -71.6,-41.3 -106.5,-125.7 -98.4,-206.1 7.9,-79.2 59.7,-150.2 123.8,-194.7 16.5,-11.4 34.1,-21.2 52.3,-29.5 -8.2,-5.1 -16.1,-10.7 -23.8,-16.8 -61.1,-48.5 -97.5,-125.5 -90.2,-203.7 6.6,-71.5 51.2,-136.3 117,-165.5 65.8,-29.1 147.2,-18.7 208.4,17.1 58.7,34.4 101.5,88.4 131.2,148.8 16.8,-48.6 44.6,-93.5 83,-127.8 57.5,-51.3 138.9,-77 215.1,-59.9 70.5,15.7 131.1,70.5 151,140.4 22.5,78.2 -13.9,156.9 -66.4,214.5 -42.5,46.7 -97.4,81.2 -157.4,99.8 31.5,14.8 59.3,37.9 81.8,65.6 42.2,51.8 69.2,125.9 54.6,192.7 -13.6,62.2 -64.7,110.7 -124.3,130 -62.1,20.1 -131,6.8 -186.2,-26.2" /><path
         id="path246"
         style="fill:#a580c7;fill-opacity:1;fill-rule:nonzero;stroke:none"
         d="m 12384,13629.3 c -53.9,-28.3 -89.1,-81.6 -98.5,-139.4 -3.4,-3.5 -5.8,-8.2 -6.3,-14.4 -6.8,-90.9 37.2,-190.9 130.7,-218.3 87.8,-25.7 188.1,24.1 234.8,99.5 45.7,73.7 40.5,177.7 -24.3,239 -62.4,59.1 -159.7,73.7 -236.4,33.6" /><path
         id="path248"
         style="fill:#55c8eb;fill-opacity:1;fill-rule:nonzero;stroke:none"
         d="m 8857.5,10072.5 c -47.16,3.2 -97.44,-4.2 -139.24,-26 8.28,53.9 -1.12,110.7 -26.41,158.9 -22.16,42.2 -53.78,79 -92.61,106.8 -34.16,24.4 -74.3,43.4 -116.64,47 -82.34,7 -159.18,-42.4 -198.44,-113 -38.73,-69.5 -36.79,-157.3 -9.55,-230.5 7.01,-18.8 15.78,-36.9 26.12,-54.1 -9.75,0.5 -19.4,0.5 -29.19,-0.2 -77.9,-4.9 -151.72,-47.3 -190.4,-115.7 -35.42,-62.4 -35.81,-141.1 1.61,-202.6 37.36,-61.5 110.2,-99.5 180.75,-105 67.87,-5.3 133.84,14.6 192.74,47.2 -13.98,-49.5 -16.81,-102.2 -4.82,-152.3 17.88,-75 70.1,-142.5 142.21,-172 66.94,-27.4 147.87,-17 204.34,28.9 63.09,51.5 78.1,136.9 67.91,214.1 -8.23,62.6 -33.61,122.2 -72.25,171.8 34.4,-5.9 70.35,-2.7 104.7,7.2 64.16,18.4 128.62,63.8 154.78,127 24.37,58.8 10.09,127.8 -27.76,177.7 -39.57,51.9 -103.69,80.4 -167.85,84.8" /><path
         id="path250"
         style="fill:#c9edf0;fill-opacity:1;fill-rule:nonzero;stroke:none"
         d="m 8585.06,10034.1 c -60.46,7.6 -119.76,-16.1 -160.54,-58.2 -4.77,-0.9 -9.5,-3.4 -13.3,-8.2 -57.54,-70.7 -78.59,-178 -17.44,-253.8 57.44,-71.3 168.13,-87.7 249.64,-52.4 79.61,34.4 134.62,122.7 116.45,210 -17.5,84.2 -89.02,151.8 -174.81,162.6" /><path
         id="path252"
         style="fill:#d4a4d7;fill-opacity:1;fill-rule:nonzero;stroke:none"
         d="m 7279.73,10941.8 c 24.85,52.5 26.85,113 0.93,165.4 -15.11,30.5 -38.44,55.7 -66.5,73.9 31.96,10.8 61.68,27.6 86.82,50.4 44.18,40.1 70.69,98.9 71.57,158.6 0.87,58.3 -24.41,115.7 -69.72,152.8 -48.58,40 -110.6,53.5 -171.35,36.3 0.82,38.1 -9.26,76.2 -29.87,109.9 -35.03,57.1 -95.34,95.5 -162.87,97.6 -68.31,2.2 -136.13,-30.3 -176.13,-85.8 -34.2,-47.5 -43.4,-105.6 -42.48,-163.3 -76.98,67.8 -192.89,87.9 -285.8,36 -57.48,-32 -93.98,-88.4 -103.33,-153 -8.82,-60.8 8.96,-121.9 47.6,-169.5 29.38,-36.1 69.96,-62.3 114.39,-76.3 -29.08,-28.9 -45.55,-71.9 -50.62,-112.1 -8.38,-66.5 11.8,-140.1 61.78,-186.5 90.33,-83.9 237.47,-64.3 331.93,1.4 35.42,24.7 66.9,56.6 88.24,94.1 2.34,-5.1 4.82,-10.2 7.26,-15.1 14.23,-27.5 33.27,-53.5 57,-73.6 45.41,-38.3 104.84,-53 163.07,-41.3 55.64,11.3 103.82,48.8 128.08,100.1" /><path
         id="path254"
         style="fill:#f6d4ec;fill-opacity:1;fill-rule:nonzero;stroke:none"
         d="m 6997.35,11168.3 c 35.66,43.5 39.56,108.2 12.67,156.6 -22.17,58.2 -82.39,101 -145.68,96.7 -66.26,-4.5 -127.5,-54.5 -139.73,-121 -12.32,-67.4 21.34,-140.7 84.68,-169.8 62.26,-28.6 143.24,-17.2 188.06,37.5" /><path
         id="path256"
         style="fill:#d4a4d7;fill-opacity:1;fill-rule:nonzero;stroke:none"
         d="m 14155.2,9722 c 24.8,52.4 26.8,112.9 0.9,165.4 -15.1,30.5 -38.5,55.7 -66.4,74 31.9,10.6 61.5,27.5 86.7,50.3 44.2,40 70.7,99 71.5,158.6 0.9,58.3 -24.3,115.7 -69.6,152.8 -48.6,39.9 -110.7,53.5 -171.4,36.3 0.8,38.1 -9.3,76.1 -29.9,109.8 -35,57.2 -95.3,95.5 -162.8,97.7 -68.4,2.2 -136.1,-30.3 -176.1,-85.8 -34.2,-47.5 -43.5,-105.7 -42.6,-163.3 -76.9,67.7 -192.8,87.9 -285.8,36.1 -57.4,-32.1 -93.9,-88.5 -103.3,-153.1 -8.8,-60.9 9,-122 47.6,-169.5 29.4,-36.2 70.1,-62.3 114.3,-76.3 -29,-29 -45.5,-71.9 -50.5,-112.1 -8.4,-66.6 11.8,-140 61.8,-186.6 90.3,-83.9 237.5,-64.2 331.9,1.5 35.5,24.7 66.9,56.6 88.2,94.1 2.4,-5.2 4.8,-10.3 7.3,-15.1 14.3,-27.5 33.3,-53.6 56.9,-73.6 45.5,-38.4 105,-53 163.2,-41.3 55.6,11.2 103.7,48.7 128.1,100.1" /><path
         id="path258"
         style="fill:#f6d4ec;fill-opacity:1;fill-rule:nonzero;stroke:none"
         d="m 13872.8,9948.5 c 35.6,43.5 39.5,108.2 12.6,156.6 -22.1,58.2 -82.3,101 -145.6,96.7 -66.3,-4.6 -127.6,-54.6 -139.7,-121.1 -12.4,-67.4 21.3,-140.7 84.7,-169.7 62.2,-28.6 143.1,-17.2 188,37.5" /><path
         id="path260"
         style="fill:#d52c9f;fill-opacity:1;fill-rule:nonzero;stroke:none"
         d="m 11548.1,6998.6 c -41.1,97.5 -105.9,182.5 -190.8,245.9 -83,61.9 -183.1,100.7 -286.3,110.1 -99,9 -198.2,-13.2 -286.7,-57.8 -86.4,-43.5 -164.6,-109.9 -213.6,-194.1 -5.7,-9.7 -11,-19.8 -15.8,-30.1 -36.3,77.7 -94.9,142.9 -165.6,191.7 -80.4,55.4 -176.5,88.5 -274.2,92 -102.9,3.7 -206.3,-24.7 -295.12,-76.3 -89.94,-52.2 -164.24,-128.6 -214.76,-219.5 -51.45,-92.7 -78.93,-198.2 -81.56,-304 -2.88,-114.1 25.82,-225.7 70.74,-329.9 43.02,-99.6 100.9,-193 166.33,-279.5 62.61,-82.6 132.76,-159.3 208.82,-229.7 76.85,-71.2 159.55,-136.1 245.85,-195.4 85.6,-58.9 174.9,-112.2 266.7,-160.7 22.5,-11.9 45.2,-23.5 67.9,-34.8 l 11.2,-2.5 12.2,2.5 c 93.8,46.7 185.3,98 273.4,154.7 88.1,56.9 172.9,119.2 252.5,187.6 78.5,67.4 151.8,140.8 217.7,220.5 68,82.4 129.1,171.3 178.3,266.4 53.5,103.3 92.8,215.1 102.4,331.7 8.7,105.5 -8.4,213.5 -49.6,311.2" /></g></g></svg>