<?xml version="1.0" encoding="UTF-8" standalone="no"?>
<svg
   xmlns:dc="http://purl.org/dc/elements/1.1/"
   xmlns:cc="http://creativecommons.org/ns#"
   xmlns:rdf="http://www.w3.org/1999/02/22-rdf-syntax-ns#"
   xmlns:svg="http://www.w3.org/2000/svg"
   xmlns="http://www.w3.org/2000/svg"
   viewBox="0 0 789.96002 896.33331"
   height="896.33331"
   width="789.96002"
   xml:space="preserve"
   id="svg2"
   version="1.1"><metadata
     id="metadata8"><rdf:RDF><cc:Work
         rdf:about=""><dc:format>image/svg+xml</dc:format><dc:type
           rdf:resource="http://purl.org/dc/dcmitype/StillImage" /></cc:Work></rdf:RDF></metadata><defs
     id="defs6" /><g
     transform="matrix(1.3333333,0,0,-1.3333333,0,896.33333)"
     id="g10"><g
       transform="scale(0.1)"
       id="g12"><path
         id="path14"
         style="fill:#1b3f56;fill-opacity:1;fill-rule:nonzero;stroke:none"
         d="m 1335.87,3584.65 c 1.35,-4.79 3.25,-9.26 5.71,-13.39 0.08,-0.79 0.14,-1.57 0.22,-2.35 0.21,-4.48 0.42,-8.97 0.6,-13.45 -2.81,-3.39 -5.25,-7.07 -7.48,-10.9 -0.77,3.49 -1.58,6.97 -2.43,10.42 -4.4,18.06 -9.63,35.94 -13.78,54.06 -4.48,19.59 -7.73,39.45 -11.83,59.13 -0.64,3.08 -1.35,6.17 -2.05,9.25 0.85,8.81 1.14,17.67 0.69,26.58 -0.61,11.88 -1.49,23.75 -2.31,35.61 2.25,-4.08 4.64,-8.08 7.11,-12.04 -0.91,-4.15 -1.29,-8.51 -0.8,-13.29 0.86,-8.41 1.87,-13.7 3.89,-21.02 1.06,-3.76 2.09,-7.5 3.13,-11.26 2.21,-8.03 4.44,-16.08 6.66,-24.12 1.48,-11.29 3.11,-22.55 4.75,-33.82 1.92,-13.28 3.68,-26.67 7.92,-39.41 z m 1969.3,2875.4 c -5.19,18.86 -17.79,35.21 -34.65,45.07 -11.76,6.82 -24.44,10.25 -38.06,10.29 -6.67,-0.89 -13.36,-1.78 -20.04,-2.69 -11.57,-3.24 -21.76,-8.84 -30.56,-16.82 -6.56,-4.41 -13.17,-8.7 -19.48,-13.51 -14.87,-11.33 -28.64,-22.71 -41.39,-36.31 -15.85,-16.93 -31.49,-34.12 -46.94,-51.41 -16.11,-18.04 -32.11,-36.13 -49.39,-53.06 -17.18,-16.83 -34.96,-33.04 -51.51,-50.5 -33.77,-35.67 -67.19,-71.67 -100.15,-108.09 -16.52,-18.27 -33.24,-36.39 -49.11,-55.24 -15.41,-18.28 -29.92,-37.24 -44.58,-56.12 -19.3,-24.89 -39.48,-49.05 -58.41,-74.25 -11.65,-15.53 -23.24,-31.09 -34.98,-46.55 -29.36,-36.78 -59.53,-72.93 -88.73,-109.84 -33.84,-42.81 -65.44,-87.01 -97.21,-131.35 -9.94,-13.86 -20.11,-27.51 -30.4,-41.09 -27.56,-35.33 -55.38,-70.42 -83.04,-105.67 -27.07,-34.49 -54.92,-68.32 -82.56,-102.33 -0.8,-0.79 -1.6,-1.58 -2.4,-2.38 -17.58,-17.48 -35.25,-34.9 -52.56,-52.67 -17.18,-17.64 -34.69,-35.03 -51.45,-53.09 -20.07,-21.64 -40.13,-43.27 -60.19,-64.9 -31.39,-33.87 -61.91,-68.65 -92.29,-103.43 -36.64,-41.98 -72.9,-84.2 -108.83,-126.8 -5.13,-6.07 -10.2,-12.2 -15.32,-18.28 -3.52,0.53 -7.08,0.88 -10.68,0.88 -6.4,-0.85 -12.82,-1.72 -19.22,-2.58 -12.08,-3.39 -22.58,-9.44 -31.51,-18.2 -1.66,-1.27 -3.33,-2.55 -4.98,-3.83 -12.15,-0.02 -24.5,-3.04 -34.41,-9.47 -6.21,-4.05 -14.13,-9.04 -18.55,-13.88 -2.35,-2.57 -4.65,-5.17 -6.95,-7.8 -4.57,-5.25 -8.95,-10.64 -13.39,-16.02 -3.36,-4.1 -6.67,-8.23 -9.96,-12.39 -8.72,-11.02 -17.42,-22.03 -26.14,-33.05 -11.06,-13.99 -22.04,-28.08 -33.03,-42.16 -24.88,-31.92 -49.81,-63.8 -74.49,-95.89 -50.62,-56.07 -101.36,-112.11 -150.46,-169.51 -30.06,-35.14 -57.9,-72.07 -85.86,-108.88 -8.79,-11.28 -17.69,-22.48 -27.1,-33.25 -14.17,-16.22 -28.6,-32.2 -42.97,-48.22 -13.16,-14.69 -25.43,-30.12 -37.68,-45.56 -8.65,-10.9 -17.16,-22 -25.39,-33.25 -1.46,-1.52 -2.93,-3.05 -4.38,-4.59 -29.36,-30.97 -58.55,-61.97 -88.99,-91.91 -28.36,-27.9 -58.33,-54.6 -82.85,-86.08 -11.51,-14.79 -22.52,-29.16 -31.51,-45.15 -0.62,-0.2 -1.23,-0.42 -1.84,-0.65 -15.38,-6.01 -19.3,-7.91 -31.84,-18.7 -11.1,-9.54 -18.62,-22.57 -22.77,-36.5 -4.006,-13.39 -3,-27.83 1.93,-40.77 -0.24,-2.06 -0.41,-4.21 -0.5,-6.5 -0.62,-14.97 4.16,-29.85 12.69,-42.12 1.21,-12.41 2.25,-25.03 4.89,-37.19 3.27,-15.08 7.42,-29.37 13.2,-43.67 6.23,-15.34 13.02,-30.46 19.63,-45.64 6.5,-15.94 12.98,-31.89 19.41,-47.87 7.63,-19.03 14.46,-38.37 21.45,-57.65 6.76,-18.61 13.75,-37.08 21.29,-55.41 7.45,-18.04 13.7,-36.6 20.1,-55.03 5.35,-15.42 11.17,-30.6 17.35,-45.7 8.25,-20.24 16.46,-40.14 27.8,-58.82 7.82,-12.86 15.88,-25.55 23.03,-38.83 3.52,-6.55 6.63,-13.34 10.15,-19.91 13.24,-24.84 37.12,-48.54 67.68,-46.23 5.25,0.7 10.49,1.4 15.74,2.12 1.88,0.52 3.66,1.21 5.44,1.89 2.77,-5.46 6.32,-10.46 10.46,-14.59 3.2,-3.18 6.66,-5.91 10.38,-8.19 -3.94,-15.3 -6.58,-31.37 -0.89,-46.48 1.72,-4.1 3.45,-8.22 5.2,-12.32 4.58,-7.76 10.76,-13.94 18.5,-18.52 4.12,-1.73 8.22,-3.47 12.34,-5.2 6.02,-1.62 12.04,-2.18 18.06,-1.66 12.41,-2.68 25.82,-0.87 36.73,5.79 15.64,9.56 27.08,23.52 39.27,36.87 6.51,7.13 12.9,14.34 19.33,21.55 11.58,12.94 22.76,26.22 34.16,39.31 14.29,16.39 28.37,32.64 39.73,51.26 5.68,9.3 10.57,19 15.84,28.49 10.69,11.18 21.57,22.16 32.76,32.8 0.22,0.23 0.45,0.44 0.68,0.67 2.68,2.01 5.31,4.08 7.84,6.25 6.31,6.34 10.67,13.82 13.09,22.44 3.61,13.12 1.74,27.45 -5.14,39.2 -4.51,7.63 -10.6,13.73 -18.25,18.25 -7.86,4.61 -18.5,7.65 -28.41,7.23 -0.25,0.31 -0.52,0.62 -0.78,0.92 -2.16,2.73 -4.44,5.27 -6.83,7.72 -2.25,2.47 -4.51,4.91 -6.69,7.35 -4.45,4.96 -8.92,9.9 -13.38,14.85 -8.48,9.38 -16.98,18.75 -25.47,28.12 -8.15,9.02 -16.56,18 -25.17,26.59 -14.96,14.94 -29.47,30.86 -46.13,43.9 -5.52,5.47 -11.81,9.61 -18.89,12.41 -1.51,1.99 -3.04,3.98 -4.56,5.97 -7.21,9.47 -14.44,18.98 -22.2,28.01 -2.27,2.65 -4.34,5.39 -6.84,7.84 -8.67,8.58 -17.54,12.41 -28.81,16.59 -4.88,1.31 -9.76,1.96 -14.64,1.96 -4.87,0 -9.75,-0.65 -14.63,-1.96 -2.93,-0.82 -5.69,-1.93 -8.38,-3.17 4.31,4.07 8.49,8.26 12.48,12.67 13.92,15.38 26.89,31.6 39.95,47.7 12.33,15.19 24.19,30.77 36.15,46.25 13.86,17.9 27.91,35.5 42.34,52.94 8.12,9.81 17.2,19.13 26.25,28.12 8.2,8.14 16.31,16.22 24.96,23.78 11.28,3.95 21.8,10.75 29.6,18.54 5.31,5.31 10.78,12.7 14.51,19.8 1.96,3.73 3.6,7.67 5.38,11.48 3.32,7.22 6.61,14.45 10.11,21.58 3.76,7.66 7.58,15.29 11.41,22.93 1.84,3.65 3.59,7.35 5.4,11.02 4.02,8.19 7.92,17.24 11.03,25.54 5.86,15.65 6.67,32.9 2.49,49.13 25.94,40.37 51.93,80.7 77.85,121.07 7.88,12.29 15.81,24.57 23.8,36.81 21.87,32.71 44.12,65.16 66.33,97.66 48.92,71.52 100.35,141.24 152.17,210.67 7.82,10.03 15.56,20.13 22.9,30.49 0.13,0.22 0.25,0.44 0.38,0.66 22.82,30.55 45.62,61.11 68.28,91.78 23.21,31.41 45.71,63.39 69.44,94.4 -1.66,-2.16 -3.32,-4.31 -4.99,-6.47 9.95,12.91 19.63,25.83 28.56,39.54 4.7,7.2 7.54,15.47 8.7,24.05 42.63,52.34 85.81,104.24 128.76,156.3 28.44,34.48 57.88,68.17 86.04,102.87 9.36,9.43 15.84,20.54 19.42,33.34 1.4,5.21 2.25,10.41 2.57,15.61 2.25,2.51 4.51,5.02 6.76,7.52 32.46,36.16 63.64,73.43 96.16,109.53 5.65,6.29 11.31,12.57 16.99,18.84 9.3,9.35 15.71,20.38 19.28,33.07 0.34,1.27 0.66,2.54 0.93,3.8 35.92,40.35 71.77,80.75 107.98,120.85 31.74,35.15 60.74,72.63 92.39,107.86 31.91,35.5 64.53,70.41 94.98,107.2 37.59,45.42 72.68,92.7 108.47,139.51 9.05,11.73 18.04,23.5 26.81,35.45 8.06,10.99 15.48,22.46 23.12,33.73 15.03,22.17 30.05,44.28 45.93,65.84 27.92,34.98 57.61,68.27 88.53,100.67 33.27,34.86 69,67.15 101.1,103.13 19.18,21.48 39.09,42.07 59.41,62.47 10.57,10.59 20.74,21.42 30.31,32.92 8.64,10.35 16.92,21.09 23.36,32.93 6.78,12.41 11.43,26.02 16.84,39.08 3.59,13.36 3.59,26.72 0,40.08" /><path
         id="path16"
         style="fill:#5197d8;fill-opacity:1;fill-rule:nonzero;stroke:none"
         d="m 1067.68,4177.42 c -0.72,-1.7 -1.43,-3.38 -2.14,-5.07 0.72,1.71 1.43,3.42 2.15,5.13 -0.01,-0.02 -0.01,-0.04 -0.01,-0.06 z m -520.731,329.17 c -0.246,0.12 -0.492,0.23 -0.738,0.35 0.66,0.44 1.312,0.89 1.969,1.34 -0.41,-0.56 -0.821,-1.12 -1.231,-1.69 z m -144.453,81.11 c -0.137,0.1 -0.281,0.21 -0.422,0.32 0.305,-0.22 0.61,-0.46 0.906,-0.69 -0.164,0.12 -0.324,0.24 -0.484,0.37 z M 3414.11,6537.2 c -7.56,12.91 -19.37,21.22 -33.45,25.7 -3.38,1.08 -6.94,1.74 -10.56,2.05 1.16,1.13 2.32,2.26 3.39,3.46 2.75,3.1 5.52,6.27 7.56,9.9 9.47,16.83 7.1,38.16 -6.7,51.96 -8.27,8.26 -19.26,12.37 -30.25,12.37 -7.51,0 -15.03,-1.92 -21.68,-5.74 -0.01,0.03 -0.03,0.05 -0.04,0.07 -8.01,-4.19 -15.81,-8.49 -24.08,-12.2 -9.21,-4.12 -18.34,-8.25 -27.34,-12.85 -17.87,-9.14 -34.88,-19.49 -51.41,-30.89 -33.44,-23.12 -65.33,-48.64 -97.89,-73.04 -16.23,-12.16 -32.54,-24.32 -49.74,-35.1 -17.93,-11.24 -36.2,-21.94 -54.14,-33.14 -16.89,-10.52 -32.91,-22.42 -49.21,-33.85 -17.1,-11.98 -34.47,-23.61 -51.72,-35.38 -17.14,-11.69 -33.58,-24.41 -50.38,-36.57 -19.03,-13.77 -37.81,-27.76 -55.92,-42.73 -31.1,-25.72 -61.54,-52.17 -92.06,-78.56 -0.98,-0.84 -1.96,-1.69 -2.94,-2.53 -1.34,-0.5 -2.68,-1.04 -3.99,-1.62 -21.53,-7.83 -41.48,-20.57 -60.74,-32.61 -18.46,-11.55 -36.76,-23.31 -55.05,-35.1 -35.56,-22.92 -69.67,-47.65 -103.4,-73.15 -32.58,-24.65 -65.06,-49.69 -99.32,-72.02 -18.09,-11.79 -36.34,-23.34 -54.56,-34.93 -3.38,0.44 -6.75,0.9 -10.12,1.35 -12.08,-0.04 -23.37,-3.03 -33.85,-8.99 -13.12,-5.42 -26.15,-10.96 -38.44,-18.12 -13.19,-7.68 -25.74,-16.4 -38.2,-25.18 -28.57,-20.15 -55.66,-42.49 -82.64,-64.69 -18.44,-15.18 -36.15,-31.31 -54.17,-46.97 -5.61,-4.89 -11.2,-9.81 -16.77,-14.75 -5.71,-2.33 -11.39,-4.71 -17.02,-7.23 -6.15,-2.77 -11.79,-7.08 -17.31,-10.91 -16.42,-11.41 -31.95,-24.16 -47.54,-36.7 -7.87,-6.33 -15.69,-12.67 -23.44,-19.14 -4.03,-3.36 -8.05,-6.71 -12.08,-10.07 -0.29,0.09 -0.6,0.18 -0.9,0.26 -19.94,5.49 -39.53,2 -57.54,-7.53 -12.16,-6.44 -24.42,-12.28 -35.78,-20.11 -16.77,-11.56 -32.64,-24.51 -48.24,-37.57 -9.06,-7.61 -17.95,-15.32 -26.72,-23.26 -20.19,-18.26 -40.39,-36.54 -60.58,-54.81 -1.68,-1.52 -3.35,-3.05 -5.02,-4.58 -0.61,-0.34 -1.23,-0.68 -1.83,-1.03 -6.18,-3.07 -12.48,-5.85 -18.52,-9.17 -6.08,-3.34 -11.7,-7.74 -17.23,-11.87 -16.42,-12.33 -32.12,-25.32 -47.55,-38.83 -7.97,-6.97 -15.86,-13.96 -23.69,-21.07 -14.13,-12.8 -28.25,-25.61 -42.37,-38.41 -4.36,0.9 -8.71,1.36 -13.07,1.36 -5.62,0 -11.25,-0.75 -16.88,-2.26 -10.75,-3.02 -20.1,-8.46 -28.02,-16.33 -16.94,-13.88 -33.77,-27.88 -50.57,-41.94 -5.2,-0.22 -10.35,-0.99 -15.34,-2.47 -9.36,-2.8 -18.6,-6.63 -26.97,-11.69 -11.87,-7.18 -22.12,-17.09 -32.58,-26.16 -4.97,-4.31 -10.33,-8.23 -15.47,-12.31 -15.02,-11.89 -30.03,-23.76 -45.05,-35.64 -19.34,-15.3 -38.86,-30.39 -58.35,-45.52 -33.81,-25.69 -67.65,-51.3 -101.55,-76.87 -19.31,-14.57 -38.39,-29.45 -57.45,-44.34 -15.6,-12.2 -31.44,-24.14 -46.67,-36.82 -3.83,-3.18 -7.67,-6.36 -11.51,-9.53 -4.72,-1.51 -9.2,-3.58 -13.24,-6.23 -28.08,-18.47 -53.439,-41.85 -77.95,-64.85 -5.29,-4.95 -10.571,-9.91 -15.848,-14.87 -8.801,0.69 -17.602,-0.15 -26.391,-2.52 -7.504,-2.67 -14.758,-5.98 -22.051,-9.21 -0.843,-0.57 -1.699,-1.16 -2.542,-1.73 -6.098,-4.55 -12.098,-9.23 -18.036,-14 -2.886,-2.31 -5.543,-4.99 -8.328,-7.45 -4.894,-4.36 -9.781,-8.72 -14.679,-13.08 -6.934,-6.16 -13.836,-12.35 -20.852,-18.43 -16.863,-14.55 -33.883,-28.9 -51.09,-43.06 -30.871,-25.38 -63.75,-48.55 -93.207,-75.59 -17.391,-15.95 -33.262,-33.46 -51.176,-48.85 -11.683,-8.8 -23.523,-17.43 -35.66,-25.58 -16.183,-10.9 -33.953,-19.56 -51.344,-28.34 -16.937,-8.55 -33.128,-18.23 -49.148,-28.37 -7.984,-5.05 -16.129,-9.85 -24.199,-14.76 -7.942,-4.84 -15.68,-10.03 -23.903,-14.37 -9.515,-5.04 -19.253,-9.66 -29.054,-14.11 -11.004,-3.98 -22.164,-6.96 -33.684,-9.58 -11.269,-2.57 -21.621,-7.9 -32.82,-10.64 -11.391,-1.45 -15.067,-2.65 -30.774,-10.29 -12.343,-7.3 -22.16,-17.11 -29.449,-29.45 -4.07,-6.21 -6.851,-12.83 -8.34,-19.86 -0.961,-7.21 -1.937,-14.43 -2.898,-21.64 0.043,-14.7 3.738,-28.4 11.105,-41.1 4.465,-10.42 19.914,-24.44 29.582,-29.75 4.438,-2.42 8.969,-4.93 13.711,-6.75 14.278,-7.76 28.774,-15.08 42.789,-23.35 18.215,-10.77 36.465,-21.46 54.832,-31.97 17.719,-10.12 35.204,-20.64 52.52,-31.43 17.027,-10.63 34.195,-21.06 51.148,-31.81 34.844,-22.11 67.282,-47.98 100.649,-72.22 15.855,-11.51 31.504,-23.38 47.828,-34.22 23.375,-15.5 48.023,-27.29 74.535,-36.76 8.922,-3.18 18.313,-4.96 27.777,-5.73 0.379,-0.89 0.754,-1.77 1.129,-2.66 3.368,-7.92 7.575,-15.28 12.383,-22.39 7.414,-10.97 15.578,-22.08 25.703,-30.77 5.7,-4.88 14.688,-12.55 22.567,-16.52 6.914,-3.2 13.949,-6.15 21.101,-8.81 8.18,-1.12 16.367,-2.22 24.547,-3.29 5.059,0.02 10,0.48 14.817,1.38 3.082,-4.23 6.515,-8.21 9.773,-12.41 7.527,-9.73 23.027,-19.34 35.082,-21.9 6.523,-1.43 13.121,-2.35 19.809,-2.77 12.586,0.03 24.308,3.21 35.186,9.52 2.72,1.99 5.51,3.95 8.22,6.02 17.16,10.23 28.28,28.97 29.94,48.73 2.51,1.39 4.96,2.89 7.32,4.48 12.62,8.54 24.97,17.82 36.27,28.04 15.34,13.87 29.45,28.9 43.66,43.9 27.98,29.55 55.65,59.23 82.44,89.87 34.78,39.78 69.88,79.3 104.84,118.93 2.1,2.03 4.16,4.1 6.18,6.22 3.19,3.34 6.37,6.69 9.56,10.03 6.8,7.13 13.8,14.16 20.42,21.46 14.27,15.69 28.55,31.35 42.57,47.26 13.39,15.21 26.7,30.48 40.1,45.68 14.76,16.72 29.89,33.2 44.29,50.24 8.7,8.77 14.71,19.1 18.05,30.98 0.86,3.21 1.5,6.43 1.92,9.63 5.67,7.04 11.33,14.08 17,21.11 1.65,2.04 3.3,4.09 4.96,6.13 7.38,6.89 14.75,13.79 22.08,20.73 30.83,29.21 61.22,58.92 92.2,87.96 60.95,57.14 121.34,115.08 176.61,177.83 7.18,8.15 14.47,16.19 21.44,24.5 3.92,4.68 7.86,9.37 11.78,14.06 6.3,7.51 12.18,15.42 18.07,23.24 1.64,2.17 3.19,4.43 4.69,6.7 4.38,6.59 6.73,13.58 8.17,20.85 26.23,25.71 50.84,53.22 75.61,80.25 29.41,32.14 58.56,64.53 87.7,96.91 49.85,55.34 99.03,111.24 149.15,166.35 4.6,4.73 9.21,9.45 13.85,14.16 14.52,14.72 30.39,28.57 41.38,46.3 4.19,6.77 6.95,14.16 8.38,21.78 14.81,15.4 29.63,30.79 44.35,46.27 14.25,14.99 28.41,30.05 42.75,44.94 17.18,17.86 34.65,35.77 51.02,54.43 10.55,10.23 21.11,20.46 31.68,30.69 57.93,56.07 117.6,110.28 176.07,165.78 21.36,20.28 42.72,40.54 64.03,60.86 9.39,8.94 18.77,17.92 28.18,26.84 5.97,5.66 11.92,11.31 17.87,16.96 4.09,3.86 8.63,7.18 12.65,11.12 6.64,6.49 12.92,14.21 16.85,22.7 3.46,5.98 6.12,12.19 7.98,18.61 3.99,3.89 7.99,7.78 11.99,11.66 28.98,28.13 57.72,56.53 86.38,85 13.46,13.35 26.89,26.71 40.39,40.03 6.42,6.33 12.8,12.73 19.24,19.08 9.16,8.38 18.75,16.57 27.18,25.6 8.87,9.52 14.2,21.11 14.2,34.29 0,1.16 -0.04,2.31 -0.13,3.46 6.72,5.12 13.4,10.3 20.06,15.51 15.67,12.26 30.86,25.1 45.35,38.72 7.41,6.97 14.49,14.23 21.34,21.77 2.95,3.24 5.73,6.64 8.51,10.03 4.23,5.19 8.22,10.65 12.28,16 5.02,6.66 8.66,13.27 10.88,21.67 0.07,0.25 0.14,0.51 0.2,0.76 47.86,42.34 95.63,84.78 143.96,126.57 12.63,10.9 25.27,21.75 37.96,32.56 12.75,9.82 25.43,19.73 37.95,29.83 -4.11,-6.39 -8.16,-12.82 -12.13,-19.28 -8.18,-13.35 -16.22,-26.79 -24.1,-40.32 -6.71,-11.52 -13.71,-23.06 -19.69,-35.05 -1.77,-2.44 -3.48,-4.97 -4.9,-7.19 -1.15,-1.81 -2.32,-3.63 -3.44,-5.48 -2.43,-4 -4.84,-8.01 -7.2,-12.05 -4.09,-7 -8.16,-14.04 -12.18,-21.08 -9.02,-5.23 -16.38,-12.77 -22.21,-21.87 -14.05,-21.94 -26.83,-44.64 -39.53,-67.38 -5.61,-10.05 -11.26,-20.08 -16.77,-30.18 -0.51,-0.12 -1,-0.26 -1.51,-0.39 -4.61,-1.96 -9.24,-3.9 -13.86,-5.85 -8.71,-5.16 -15.64,-12.1 -20.8,-20.8 -9.89,-12.93 -18.23,-27.25 -26.6,-41.2 -5.32,-8.87 -10.75,-17.69 -16.08,-26.56 -12.74,-19.5 -25.64,-38.91 -38.31,-58.42 -3.54,-5.46 -7.08,-10.94 -10.6,-16.43 -4.72,-1.98 -9.43,-3.96 -14.15,-5.96 -9.04,-5.33 -16.22,-12.54 -21.58,-21.57 -12.33,-16.07 -22.27,-33.8 -32.73,-51.12 -3.08,-5.1 -6.15,-10.21 -9.24,-15.31 -6.46,-9.91 -12.92,-19.82 -19.41,-29.71 -7.29,-3.03 -14.05,-7.46 -19.81,-13.22 -4.93,-4.93 -10.01,-9.73 -14.88,-14.72 -5.11,-5.25 -9.59,-11.11 -14.07,-16.89 -12.5,-16.16 -24.32,-32.61 -35.71,-49.57 -5.8,-8.66 -11.24,-17.56 -16.76,-26.41 -14.03,-22.52 -28.09,-45.01 -42.09,-67.54 -6.64,-10.71 -13.2,-21.47 -19.69,-32.28 -14,-1.74 -28.99,-7.96 -37.9,-18.49 -12.45,-14.69 -24.46,-29.58 -35.64,-45.28 -10,-14.02 -19.35,-28.49 -28.67,-42.97 -5.6,-8.7 -11,-17.51 -16.38,-26.35 -16.05,-26.36 -32.11,-52.74 -48.16,-79.11 -4.98,-8.18 -9.9,-16.41 -14.78,-24.65 -2.12,0.25 -4.26,0.39 -6.41,0.39 -4.46,0 -8.96,-0.53 -13.43,-1.59 -5.14,-1.07 -10.03,-2.9 -14.68,-5.48 -7.05,-2.76 -13.61,-6.93 -19.23,-12.4 -23.81,-23.2 -43.11,-50.56 -63.16,-77.02 -10.51,-13.84 -20.88,-27.73 -31.12,-41.78 -11.05,-15.21 -22.08,-30.44 -33.02,-45.74 -13.24,-18.5 -27.64,-36.87 -38.54,-56.82 -2.11,-3.87 -3.77,-7.89 -4.98,-12 -5.12,-7.47 -10.17,-15 -15.34,-22.43 -8.25,-11.86 -16.48,-23.72 -24.72,-35.58 -12,-17.23 -23.86,-34.54 -35.71,-51.87 -28.22,-41.23 -55.44,-83.05 -82.69,-124.91 -7.77,-11.94 -15.51,-23.91 -23.22,-35.89 -33.68,-49.19 -67.05,-98.61 -101.4,-147.28 -3.42,-4.57 -6.74,-9.21 -9.89,-13.94 -2.9,-4.37 -4.99,-9.35 -6.33,-14.59 -1.44,-2.13 -2.88,-4.26 -4.31,-6.38 -9.64,-4.1 -18.27,-9.94 -25.89,-17.5 -13.21,-15.9 -25.57,-32.54 -38.19,-48.93 4.28,5.55 8.55,11.08 12.83,16.61 -9.79,-12.68 -19.23,-25.63 -28.39,-38.78 -10.39,-13.68 -20.8,-27.35 -30.95,-41.18 -22.2,-30.24 -44.29,-60.5 -66.72,-90.59 -55.69,-70.79 -113.35,-140.19 -166.56,-212.9 -29.82,-40.75 -59.32,-81.66 -88.65,-122.71 -26.33,-36.86 -50.89,-74.87 -75.17,-113.11 -31.57,-49.74 -61.34,-100.87 -96.58,-148.23 -9.88,-12.32 -20.23,-24.11 -32.01,-34.64 -3.13,-2.05 -6.34,-3.98 -9.63,-5.78 -13.2,-7.23 -23.71,-17.3 -31.45,-30.26 -14.28,-23.82 -13.86,-56.15 1.1,-79.62 12.28,-19.27 30.23,-32.37 49.59,-43.82 11.85,-7 23.76,-14.25 35.12,-22.16 4.33,-3.89 8.54,-7.91 12.96,-11.68 12.03,-10.25 24.49,-19.19 38.48,-26.35 15.48,-7.9 31.48,-14.87 47.12,-22.41 0.34,-0.16 0.67,-0.33 1.01,-0.48 0.16,-12.82 5.56,-28.47 11.56,-38.73 5.22,-8.93 10.02,-14.39 15.76,-19.36 -0.21,0.16 -0.43,0.32 -0.64,0.49 0.39,-0.32 0.78,-0.64 1.17,-0.95 1.81,-1.55 3.72,-3.06 5.77,-4.63 10.58,-8.38 21.6,-16.44 33.31,-23.1 4.39,-2.5 8.8,-4.93 13.23,-7.32 1.95,-1.32 3.89,-2.66 5.85,-3.98 14.69,-9.97 29.41,-20.04 44.73,-29.05 12.84,-7.55 25.59,-15.16 39.08,-21.52 10.28,-4.82 20.63,-9.81 31.58,-12.93 0.67,-0.18 1.34,-0.37 2.01,-0.54 12.01,-8.12 23.78,-16.61 35.37,-25.33 36.25,-28.92 70.2,-60.9 110.44,-84.41 18.55,-10.82 37.45,-21.14 55.2,-33.26 8.87,-6.06 17.47,-12.49 26.11,-18.88 3.76,-2.78 7.58,-5.46 11.54,-7.92 1.94,-1.2 3.88,-2.4 5.92,-3.41 8.41,-4.21 18.75,-8.02 28.08,-11.81 6.19,-2.51 15.75,-3.77 25.74,-4 0.74,-0.63 1.5,-1.26 2.25,-1.88 2.91,-2.42 5.85,-4.83 8.82,-7.18 9.56,-16.36 25.57,-29.1 43.82,-34.13 14.5,-3.99 29.49,-3.16 43.06,1.63 12.51,1.07 24.76,4.64 35.76,10.89 15.89,9.05 27.1,21.9 36.61,37.29 5.58,9.04 10.45,18.42 15.14,27.93 10.13,20.53 19.38,41.54 28.71,62.43 1.5,3.37 2.93,6.79 4.39,10.2 3.43,8.11 8.48,17.22 10.39,26.2 1.62,5.88 2.44,11.97 2.46,18.29 0,12.08 -3.24,23.94 -9.2,34.29 19.44,44.76 38.14,89.74 57.05,134.71 10.84,25.43 21.67,50.88 32.43,76.34 18.32,40.27 36.61,80.54 54.77,120.86 7.55,16.74 15.04,33.52 22.58,50.27 11.88,21.91 21.5,45.03 31.74,67.71 6.65,14.69 13.34,29.39 20.04,44.07 3.31,7.05 6.61,14.1 9.92,21.15 9.14,19.49 19.18,38.61 28.78,57.87 12.05,24.16 24.41,48.18 37.08,72.02 2.86,5.1 5.71,10.19 8.57,15.29 10.06,17.9 22.18,34.87 27.62,55 6.56,24.23 -0.44,50.07 -17.27,67.72 5.78,13.14 11.53,26.3 17.19,39.48 2.1,4.88 4.19,9.75 6.28,14.62 13.19,27.08 26.36,54.19 39.29,81.4 2.77,6.53 5.52,13.06 8.28,19.6 1.72,6.39 2.69,12.78 2.9,19.17 0.66,3.01 1.15,6.03 1.47,9.04 0.2,0.21 0.43,0.4 0.63,0.62 6.66,7.19 12.88,14.76 17.47,23.42 4.82,9.14 8.38,19.03 12.04,28.69 2.3,6.11 4.68,12.19 7.02,18.28 4.93,12.82 9.84,25.64 14.77,38.45 7.58,19.75 14.64,39.73 21.82,59.63 5.42,14.97 10.83,29.93 16.21,44.9 1.98,1.55 3.98,3.22 6.1,4.99 4.83,4.01 7.97,9.86 11.74,14.86 1.64,2.16 2.72,4.77 3.82,7.22 4.07,8.97 7.47,17.82 10.32,27.2 1.48,4.84 3.03,9.61 4.94,14.3 4.7,11.66 9.42,23.31 14.14,34.96 8.12,20.07 16.01,40.11 23.67,60.35 17.65,46.61 34.88,93.35 52.07,140.15 28.61,77.86 59.13,155 90.62,231.74 2.89,10.72 2.89,21.45 0,32.17 -2.88,10.25 -8.07,19.16 -15.57,26.71 -3.21,3.18 -6.66,5.95 -10.35,8.31 17.01,46 34.19,91.93 51.71,137.76 0.69,1.7 1.38,3.41 2.06,5.11 0.68,1.4 1.37,2.8 2.05,4.19 42.57,87.14 83.12,175.19 123.28,263.45 27.11,59.6 54.43,119.1 81.27,178.82 4.06,8.66 8.07,17.34 12.01,26.05 7.14,15.76 14.24,31.51 21.27,47.32 8.36,18.85 17.14,37.74 24.29,57.06 1.97,7.32 2.6,14.63 1.87,21.95 5.32,15.84 10.42,31.74 15.55,47.62 2.81,10.48 2.81,20.95 0,31.42 -1.69,6.17 -4.4,12 -7.95,17.25 18.46,36.05 36.81,72.15 55.1,108.27 18,35.53 35.62,71.29 52.04,107.57 10.82,23.95 21.57,47.88 31.72,72.12 4.24,10.11 8.62,20.14 12.69,30.32 5.18,12.92 11.46,25.94 14.92,39.41 3.76,14.63 2.03,30 -5.64,43.13" /><path
         id="path18"
         style="fill:#1a1817;fill-opacity:1;fill-rule:nonzero;stroke:none"
         d="m 725.605,4690.98 c 10.899,7 21.786,14 32.59,21.12 24.453,16.13 48.743,32.5 72.899,49.09 9.707,6.68 19.269,13.62 28.812,20.54 11.227,8.13 22.489,16.25 33.61,24.53 3.472,2.59 6.929,5.18 10.355,7.8 0.035,0.02 0.027,0.09 -0.012,0.09 -0.011,0 -0.019,-0.01 -0.031,-0.02 -24.547,-15.03 -49.734,-29.02 -74.765,-43.25 -11.375,-6.48 -23.012,-12.56 -34.497,-18.87 -13.359,-7.35 -26.796,-14.58 -40.16,-21.94 -23.027,-12.69 -45.918,-25.65 -68.648,-38.86 -9.453,-5.49 -19.059,-10.73 -28.496,-16.22 -16.207,-9.42 -32.301,-19.01 -48.324,-28.75 -19.754,-11.98 -39.922,-23.25 -59.809,-35.01 -30.754,-18.14 -61.16,-36.84 -91.75,-55.24 -6.07,-3.65 -12.129,-7.32 -18.168,-11.02 -0.051,-0.03 -0.016,-0.11 0.027,-0.08 20.231,8.5 40.481,16.95 60.442,26.09 15.465,7.08 30.886,14.25 46.261,21.52 16.551,7.83 33.024,15.77 49.454,23.84 5.906,2.91 11.796,5.76 17.585,8.9 27.805,15.12 55.434,30.59 82.641,46.76 10.16,6.04 20.035,12.61 29.984,18.98" /><path
         id="path20"
         style="fill:#1a1817;fill-opacity:1;fill-rule:nonzero;stroke:none"
         d="m 1889.36,5591.4 c -30.4,-20.44 -60.68,-41.03 -90.95,-61.67 -35.32,-24.06 -70.59,-48.23 -105.76,-72.51 -30.65,-21.14 -61.38,-42.16 -91.99,-63.35 -28.37,-19.66 -56.53,-39.65 -84.67,-59.66 -30.27,-21.52 -60.62,-42.93 -90.77,-64.62 -18.89,-13.59 -37.8,-27.16 -56.68,-40.77 -4,-2.89 -7.88,-5.93 -11.8,-8.91 -10.5,-7.96 -21.01,-15.96 -31.5,-23.96 -12.76,-9.73 -25.63,-19.35 -38.17,-29.41 -18.38,-14.73 -36.73,-29.49 -55.06,-44.3 -14.77,-11.93 -29.35,-24.09 -44.01,-36.17 -14.55,-12.01 -29.32,-23.75 -43.98,-35.61 -2.09,-1.7 -4.18,-3.38 -6.26,-5.07 -7.77,-5.87 -15.49,-11.82 -23.24,-17.74 -6.46,-4.94 -12.84,-10.04 -19.42,-14.82 -9.58,-6.94 -19.14,-13.9 -28.7,-20.86 -7.21,-5.26 -14.29,-10.71 -21.41,-16.11 -5.61,-4.24 -11.19,-8.52 -16.73,-12.85 -0.05,-0.03 0.01,-0.11 0.06,-0.08 17.19,12.04 34.61,23.75 52.15,35.31 6.77,4.46 13.61,8.81 20.23,13.45 10.22,7.14 20.45,14.3 30.65,21.45 3.46,2.42 6.99,4.77 10.36,7.29 4.61,3.46 9.21,6.9 13.83,10.34 7.23,5.43 14.46,10.85 21.69,16.28 3.48,2.62 7,5.19 10.45,7.86 -0.03,-0.02 -0.05,-0.03 -0.08,-0.06 0.06,0.05 0.12,0.09 0.18,0.14 0.17,0.13 0.33,0.25 0.49,0.38 -0.13,-0.1 -0.26,-0.2 -0.38,-0.29 0.25,0.2 0.5,0.39 0.76,0.59 -0.1,-0.08 -0.2,-0.16 -0.3,-0.24 0.03,0.03 0.07,0.06 0.1,0.08 0.08,0.06 0.15,0.12 0.22,0.17 4.37,3.37 8.72,6.72 13.07,10.08 0.03,0.03 0.06,0.05 0.09,0.08 1.68,1.3 3.35,2.59 5.02,3.88 10.18,7.86 20.37,15.71 30.5,23.63 -0.35,-0.27 -0.69,-0.54 -1.04,-0.81 10.63,7.9 21.06,16.1 31.57,24.17 11.15,8.55 22.32,17.09 33.43,25.7 -0.41,-0.33 -0.83,-0.65 -1.24,-0.96 5.36,4.1 10.87,8.01 16.3,12.02 11.01,8.13 22.02,16.29 33.01,24.46 7.84,5.84 15.7,11.69 23.54,17.55 3.84,2.87 7.79,5.61 11.69,8.4 33.17,23.75 66.34,47.52 99.62,71.1 33.11,23.46 66.2,46.96 99.13,70.68 31.66,22.78 63.31,45.61 94.86,68.55 27.23,19.8 54.2,39.89 81.21,59.96 31.45,23.36 62.83,46.82 94.19,70.33 11.92,8.93 23.84,17.9 35.79,26.82 0.03,0.03 0.01,0.09 -0.03,0.09 0,0 -0.01,0 -0.02,-0.01" /><path
         id="path22"
         style="fill:#1a1817;fill-opacity:1;fill-rule:nonzero;stroke:none"
         d="m 1187.68,5074.91 c 0.23,0.17 0.45,0.35 0.68,0.52 -0.2,-0.14 -0.39,-0.29 -0.58,-0.44 -0.03,-0.02 -0.06,-0.05 -0.1,-0.08" /><path
         id="path24"
         style="fill:#1a1817;fill-opacity:1;fill-rule:nonzero;stroke:none"
         d="m 1188.45,5075.52 v -0.01 c -0.03,-0.02 -0.07,-0.05 -0.09,-0.08 0.03,0.03 0.06,0.06 0.09,0.09" /><path
         id="path26"
         style="fill:#1a1817;fill-opacity:1;fill-rule:nonzero;stroke:none"
         d="m 2279.69,5840.31 c 27.4,18.76 54.4,38.08 81.15,57.75 37.35,27.41 74.23,55.46 110.9,83.78 -0.03,-0.02 -0.07,-0.05 -0.1,-0.07 0.12,0.09 0.24,0.19 0.37,0.28 -0.03,-0.02 -0.06,-0.04 -0.09,-0.07 0.15,0.12 0.29,0.23 0.43,0.34 0,0 -0.01,-0.01 -0.02,-0.02 0.85,0.65 1.69,1.31 2.53,1.95 -0.05,-0.04 -0.1,-0.08 -0.16,-0.12 14.01,10.82 27.97,21.68 41.89,32.64 0.04,0.03 0,0.08 -0.04,0.08 -0.01,0 -0.01,0 -0.02,0 -57.49,-34.44 -115.07,-68.66 -171.86,-104.24 -26.92,-16.88 -53.8,-33.85 -80.25,-51.48 -27.69,-18.46 -54.82,-37.78 -81.78,-57.29 -29.07,-21.02 -57.66,-42.74 -86.06,-64.69 0.05,0.04 0.1,0.07 0.14,0.1 -0.25,-0.18 -0.5,-0.38 -0.75,-0.57 -23.67,-17.81 -47.36,-35.62 -71.07,-53.41 -0.05,-0.03 0,-0.11 0.06,-0.1 19.75,10.35 39.25,21.09 58.7,32.01 10.17,5.72 20.29,11.5 30.3,17.52 27.84,16.76 55.4,33.93 82.87,51.32 27.89,17.66 55.61,35.63 82.86,54.29" /><path
         id="path28"
         style="fill:#1a1817;fill-opacity:1;fill-rule:nonzero;stroke:none"
         d="m 816.027,4304.4 c -8.535,5.62 -17.316,10.88 -25.793,16.61 -5.836,3.95 -11.722,7.83 -17.675,11.59 -3.383,2.13 -6.961,4.02 -10.266,6.28 -17.934,12.23 -36.438,23.85 -54.984,35.17 -29.145,17.8 -59.223,34.03 -89.946,48.94 -0.008,0.01 -0.019,0.01 -0.023,0.01 -0.035,0 -0.059,-0.05 -0.02,-0.08 18.067,-19.2 36.629,-37.96 55.883,-55.98 13.996,-13.09 28.215,-26.05 43.168,-38.03 6.223,-4.99 12.535,-9.87 18.863,-14.71 3.141,-2.41 6.254,-4.98 9.575,-7.14 10.148,-6.65 20.562,-12.84 31.101,-18.82 9.469,-5.4 19.57,-9.84 29.43,-14.48 10.027,-4.7 20.457,-8.61 30.812,-12.56 13.368,-5.13 27.18,-9.17 40.899,-13.26 14.855,-4.42 29.824,-8.24 45.051,-11.17 0.058,-0.01 0.086,0.06 0.043,0.09 -18.141,10.37 -35.231,22.36 -52.801,33.66 -17.707,11.39 -35.715,22.3 -53.317,33.88" /><path
         id="path30"
         style="fill:#1a1817;fill-opacity:1;fill-rule:nonzero;stroke:none"
         d="m 1705.2,3707.43 c -7.26,7.24 -14.54,14.43 -21.96,21.5 -7.97,7.57 -16.64,14.5 -25.15,21.44 -7,5.73 -14.19,11.11 -21.61,16.25 -16.96,11.74 -34.44,22.64 -52.45,32.66 -29.76,16.55 -60.39,31.32 -91.65,44.77 -0.01,0 -0.02,0 -0.02,0 -0.05,0 -0.08,-0.05 -0.04,-0.09 36.7,-37.83 75.99,-73.01 117.84,-105.07 16.67,-12.76 34,-24.74 51.65,-36.12 16.55,-10.66 32.84,-21.53 49.73,-31.65 5.02,-2.99 10.45,-5.46 15.65,-8.14 4.69,-2.42 9.41,-4.74 14.16,-7.02 11.29,-5.42 22.71,-10.57 34.47,-14.89 0.04,-0.01 0.08,0.06 0.04,0.08 -17.38,14.02 -33.25,29.77 -49.56,44.98 -7.29,6.81 -14.03,14.25 -21.1,21.3" /><path
         id="path32"
         style="fill:#1a1817;fill-opacity:1;fill-rule:nonzero;stroke:none"
         d="m 2009.87,3469.74 c -20.46,19.62 -45.21,34.98 -70.22,48.04 -0.01,0 -0.01,0.01 -0.02,0.01 -0.04,0 -0.08,-0.04 -0.05,-0.08 15.96,-22.27 33.88,-43.84 55.49,-60.85 18.14,-14.28 38.51,-25.27 57.51,-38.33 0.03,-0.03 0.09,0.02 0.06,0.06 -11.95,18.83 -26.68,35.73 -42.77,51.15" /><path
         id="path34"
         style="fill:#1a1817;fill-opacity:1;fill-rule:nonzero;stroke:none"
         d="m 2228.62,3699.26 c 4.79,10.05 9.47,20.15 14.4,30.13 25.72,52.02 50.63,104.49 73.72,157.73 18.97,43.76 37.03,88.31 49.35,134.45 0.01,0.04 -0.02,0.07 -0.05,0.07 -0.01,0 -0.03,-0.01 -0.04,-0.02 -12.93,-24.53 -25.57,-49.19 -37.42,-74.25 -12.32,-26.13 -25.14,-52.03 -37.31,-78.23 -10.69,-22.95 -21.54,-45.83 -31.87,-68.94 -6.25,-13.98 -12.37,-28.02 -18.41,-42.09 -4.36,-10.15 -8.8,-20.28 -12.91,-30.54 -5.91,-14.69 -11.78,-29.38 -17.63,-44.09 -3.25,-8.16 -6.5,-16.29 -9.51,-24.54 -4.94,-13.56 -9.91,-27.12 -14.92,-40.67 -1.89,-5.15 -3.59,-10.41 -5.4,-15.59 -0.18,-0.53 -0.37,-1.06 -0.55,-1.58 2.93,11.96 5.57,23.99 8.02,36.09 0.02,0.06 -0.07,0.07 -0.09,0.01 -4.49,-19.22 -9.38,-38.28 -15.18,-57.16 -0.28,-0.89 1.15,-1.52 1.52,-0.64 0.03,0.07 0.06,0.13 0.09,0.2 v 0 0.01 c 11.88,27.97 24.32,55.69 36.86,83.38 5.51,12.21 11.55,24.19 17.33,36.27" /><path
         id="path36"
         style="fill:#1a1817;fill-opacity:1;fill-rule:nonzero;stroke:none"
         d="m 2599.55,4554.52 c 5.74,16.85 10.71,33.91 14.52,51.3 4.04,18.53 7.66,37.23 9.51,56.14 0.01,0.03 -0.01,0.04 -0.04,0.04 -0.02,0 -0.04,-0.01 -0.05,-0.03 -0.79,-1.98 -1.6,-3.96 -2.42,-5.93 0.03,0.07 0.06,0.15 0.09,0.22 -8.28,-18.95 -17.33,-37.52 -26.12,-56.23 -1.89,-4.03 -4.19,-7.9 -6.25,-11.84 -2.36,-4.48 -4.56,-9.05 -7.01,-13.47 -5.51,-9.98 -10.92,-20.01 -16.25,-30.09 -18.89,-35.82 -36.96,-72.27 -52.49,-109.7 -30.03,-72.34 -53.63,-147.48 -73.46,-223.21 -0.02,-0.06 0.05,-0.09 0.08,-0.04 45.38,75.51 86.48,153.87 119.92,235.43 14.49,35.33 27.64,71.27 39.97,107.41" /><path
         id="path38"
         style="fill:#1a1817;fill-opacity:1;fill-rule:nonzero;stroke:none"
         d="m 2816.69,5156.16 c 5.38,20.1 9.78,40.5 14.14,60.85 3.83,17.86 7.42,35.78 10.75,53.74 0,0.03 -0.03,0.06 -0.06,0.06 -0.01,0 -0.02,-0.01 -0.03,-0.03 -16.1,-35.47 -32.68,-70.71 -47.65,-106.69 -11.21,-26.41 -21.63,-53.09 -30.41,-80.4 -15.09,-46.93 -26.62,-94.95 -35.94,-143.35 0,-0.06 0.06,-0.09 0.09,-0.04 27.15,50.17 51.62,102.04 71.11,155.68 7.16,19.65 12.59,40.01 18,60.18" /><path
         id="path40"
         style="fill:#1a1817;fill-opacity:1;fill-rule:nonzero;stroke:none"
         d="m 2793.25,5162.71 c 0.19,0.46 0.4,0.92 0.59,1.38 0.05,0.1 0.09,0.2 0.13,0.3 -0.24,-0.56 -0.48,-1.13 -0.72,-1.68" /><path
         id="path42"
         style="fill:#1a1817;fill-opacity:1;fill-rule:nonzero;stroke:none"
         d="m 3251.49,6235.89 c 0.01,0.04 -0.02,0.06 -0.05,0.06 -0.02,0 -0.03,-0.01 -0.04,-0.02 -15.91,-23.74 -31.42,-47.66 -46.36,-72.02 -15.78,-25.71 -31.11,-51.72 -46,-77.96 -20.2,-35.64 -38.85,-72.03 -56.18,-109.16 -18.01,-38.56 -33.47,-78.22 -48.72,-117.95 -14.45,-37.66 -27.6,-75.87 -41.01,-113.93 -6.11,-17.28 -12.13,-34.6 -18.13,-51.91 -0.02,-0.07 0.06,-0.1 0.09,-0.05 19.81,37.08 40.43,73.71 60.45,110.67 21.54,39.76 43.08,79.56 63.63,119.86 8.84,17.33 17.65,34.66 25.94,52.27 9.3,19.71 18.19,39.61 26.89,59.59 19.33,44.38 37.83,89.09 54.92,134.37 8.32,22.03 16.59,44.04 24.57,66.18" /><path
         id="path44"
         style="fill:#1a1817;fill-opacity:1;fill-rule:nonzero;stroke:none"
         d="m 1202.68,3773.66 c -5.45,14.36 -10.96,28.72 -16.92,42.86 -7.85,18.56 -16.06,36.96 -24.76,55.11 -21.18,44.19 -44.9,87.24 -69.49,129.6 0,0.02 -0.01,0.02 -0.03,0.02 -0.03,0 -0.06,-0.02 -0.04,-0.05 15.31,-42.75 31.79,-85.07 49.77,-126.77 4.84,-11.22 9.73,-22.43 14.82,-33.53 6.31,-13.77 13.09,-27.3 19.72,-40.92 7.81,-16.06 15.92,-31.98 23.81,-48.01 7.28,-14.81 14.26,-29.72 21,-44.8 2.95,-7.01 5.85,-13.99 8.34,-21.18 0.01,-0.06 0.1,-0.05 0.09,0.01 -3.12,16.52 -7.97,32.63 -12.89,48.67 -4.02,13.13 -8.54,26.15 -13.42,38.99" /><path
         id="path46"
         style="fill:#1a1817;fill-opacity:1;fill-rule:nonzero;stroke:none"
         d="m 1558.66,4300.54 c 17.39,23.6 34.66,47.27 52.23,70.71 -0.21,-0.25 -0.42,-0.53 -0.63,-0.79 14.22,18.33 28.42,36.7 43.35,54.47 0.02,0.03 -0.01,0.09 -0.04,0.09 -0.01,0 -0.02,-0.01 -0.03,-0.02 -21.8,-20.95 -42.95,-42.52 -63.57,-64.63 -18.31,-19.63 -35.77,-40.03 -53.48,-60.18 -19.25,-21.94 -38.4,-43.95 -57.73,-65.81 -21.01,-23.73 -41.47,-47.89 -61.49,-72.46 -8.57,-10.53 -16.81,-21.35 -25.11,-32.08 -8.54,-11.02 -17.16,-21.98 -25.42,-33.19 -16.77,-22.79 -33.03,-45.93 -49.65,-68.81 -17.48,-24.03 -34.67,-48.28 -51.88,-72.49 -0.03,-0.05 0.05,-0.11 0.08,-0.06 14.58,14.98 28.95,30.13 43.18,45.45 8.52,9.18 17.14,18.32 25.43,27.7 19.18,21.67 37.97,43.7 56.98,65.51 20.83,23.88 41.34,48.03 61.78,72.25 17.98,21.3 35.71,42.82 52.96,64.73 18.06,22.92 35.74,46.11 53.04,69.61" /><path
         id="path48"
         style="fill:#1a1817;fill-opacity:1;fill-rule:nonzero;stroke:none"
         d="m 1372.56,3550.74 c -0.22,9.26 -0.78,18.53 -1.11,27.8 -0.75,20.59 -1.97,41.18 -3.26,61.76 -0.01,0.03 -0.03,0.04 -0.05,0.04 -0.03,0 -0.05,-0.01 -0.05,-0.04 -0.65,-13.14 -1.1,-26.27 -1.37,-39.44 -0.17,-8.19 -0.38,-16.39 -0.27,-24.61 0.26,-20.11 1.15,-40.17 2.46,-60.24 1.06,-16.38 2.37,-32.74 3.78,-49.07 0,-0.06 0.08,-0.06 0.08,0 0.2,19.41 0.37,38.85 0.2,58.27 -0.06,8.5 -0.2,17.03 -0.41,25.53" /><path
         id="path50"
         style="fill:#1a1817;fill-opacity:1;fill-rule:nonzero;stroke:none"
         d="m 1390.31,3556.09 c -0.01,0.02 -0.03,0.03 -0.06,0.03 -0.02,0 -0.05,-0.01 -0.05,-0.04 0.89,-9.87 1.92,-19.71 3.4,-29.5 1.46,-9.8 3.62,-19.51 5.68,-29.2 0,-0.04 0.09,-0.04 0.09,0.01 -0.48,9.29 -1.16,18.58 -2.42,27.81 -1.43,10.45 -3.83,20.73 -6.64,30.89" /><path
         id="path52"
         style="fill:#1a1817;fill-opacity:1;fill-rule:nonzero;stroke:none"
         d="m 1418.34,3565.56 c 0,0.02 -0.02,0.04 -0.04,0.04 -0.03,0 -0.05,-0.02 -0.05,-0.04 0.34,-6.29 0.82,-12.56 1.71,-18.78 1.01,-7.02 2.64,-13.95 4.39,-20.82 0,-0.06 0.09,-0.04 0.09,0 -0.53,6.49 -1.11,12.98 -2,19.42 -0.93,6.8 -2.48,13.52 -4.1,20.18" /><path
         id="path54"
         style="fill:#1a1817;fill-opacity:1;fill-rule:nonzero;stroke:none"
         d="m 1446.57,3581.85 c 0,0.02 -0.01,0.04 -0.03,0.04 -0.03,0 -0.05,-0.02 -0.05,-0.06 0.07,-12.28 0.68,-24.48 2.34,-36.66 0,0.06 -0.01,0.11 -0.01,0.14 0.7,-5.2 1.52,-10.4 2.4,-15.59 0.02,-0.06 0.09,-0.05 0.09,0.02 0.01,8.85 -0.21,17.7 -0.99,26.52 -0.77,8.57 -2.18,17.12 -3.75,25.59" /><path
         id="path56"
         style="fill:#1a1817;fill-opacity:1;fill-rule:nonzero;stroke:none"
         d="m 1470.47,3583.77 c 0,0.02 -0.01,0.03 -0.03,0.03 -0.03,0 -0.05,-0.02 -0.05,-0.04 -0.65,-12.28 -0.89,-24.63 0.01,-36.9 0.84,-11.27 2.68,-22.49 4.8,-33.59 0.01,-0.04 0.08,-0.03 0.08,0.02 0.6,11.8 0.8,23.64 0.08,35.43 -0.74,11.75 -2.69,23.48 -4.89,35.05" /><path
         id="path58"
         style="fill:#1a1817;fill-opacity:1;fill-rule:nonzero;stroke:none"
         d="m 3460.47,6291.98 c 0.02,0.13 -0.09,0.24 -0.2,0.24 -0.05,0 -0.1,-0.03 -0.14,-0.09 -4.7,-8.78 -8.78,-17.89 -13.01,-26.91 -2.41,-5.19 -4.75,-10.4 -7.03,-15.65 -6.42,-14.61 -12.72,-29.28 -18.87,-44 -12.82,-30.79 -25.23,-61.74 -36.95,-92.96 -12.77,-33.97 -24.64,-68.15 -35.56,-102.75 -10.37,-32.88 -20.09,-65.93 -29.53,-99.07 -10.67,-37.52 -20.86,-75.17 -30.84,-112.87 -0.02,-0.06 0.06,-0.07 0.09,-0.03 25.01,60.59 49.66,121.29 73.02,182.54 25.13,65.94 47.47,132.83 67.35,200.54 5.11,17.41 10.1,34.87 14.99,52.35 2.29,8.27 4.44,16.59 6.84,24.84 3.27,11.27 6.21,22.66 9.84,33.82 v 0" /><path
         id="path60"
         style="fill:#1a1817;fill-opacity:1;fill-rule:nonzero;stroke:none"
         d="m 3062.99,5259.98 c -0.43,0.26 -0.9,0.38 -1.35,0.38 -0.94,0 -1.84,-0.51 -2.4,-1.35 -2.02,-3.1 -4.12,-6.14 -6.15,-9.23 -2.07,-3.18 -3.83,-6.53 -5.6,-9.88 -3.89,-7.47 -7.39,-15.13 -10.79,-22.85 -3.41,-7.77 -6.86,-15.55 -9.87,-23.47 -4.91,-12.84 -9.77,-25.68 -14.61,-38.53 -4.86,-12.85 -9.68,-25.7 -14.49,-38.57 -2.65,-7.09 -5.02,-14.29 -7.5,-21.44 -16.7,-48.28 -33.22,-96.65 -49.26,-145.17 -14.35,-43.41 -28.48,-86.9 -42.39,-130.44 -5.66,-17.75 -11.03,-35.59 -16.82,-53.3 -8.76,-26.87 -17.41,-53.78 -26,-80.72 -5.18,-16.26 -10.32,-32.53 -15.69,-48.71 -9.24,-27.96 -18.43,-55.92 -27.58,-83.89 -13.7,-41.85 -27.27,-83.72 -41.16,-125.49 -1.32,-3.96 -2.67,-7.91 -4.02,-11.85 -0.02,-0.06 0.07,-0.09 0.08,-0.03 18.1,43.68 35.7,87.57 53.3,131.45 16.46,41.08 33.12,82.08 48.79,123.46 10.77,28.41 21.44,56.85 31.99,85.35 5.67,15.3 10.87,30.8 16.17,46.25 14.93,43.44 29.7,86.93 43.48,130.77 15.25,48.47 30.01,97.08 44.01,145.93 2.93,10.24 5.63,20.55 8.74,30.71 3.05,9.98 6.04,19.97 9.03,29.97 4.51,15 8.98,30.02 13.43,45.05 5.43,18.35 11.42,36.64 18.8,54.32 0.42,0.96 0.85,1.9 1.29,2.84 -0.29,-1.22 -0.57,-2.44 -0.83,-3.65 -0.73,-3.31 -1.47,-6.6 -2.2,-9.89 -2.2,-9.79 -4.39,-19.57 -6.58,-29.34 -0.02,-0.06 0.07,-0.09 0.09,-0.03 3.06,9.65 6.1,19.31 9.14,28.96 1.06,3.43 2.14,6.86 3.21,10.28 0.45,1.44 0.9,2.89 1.36,4.31 0.67,2.19 1.36,4.35 2.02,6.51 0.82,2.71 1.24,5.43 1.61,8.2 0.18,1.24 -0.09,2.42 -1.25,3.09" /><path
         id="path62"
         style="fill:#1a1817;fill-opacity:1;fill-rule:nonzero;stroke:none"
         d="m 3005.92,4814.61 c -0.84,0.49 -1.74,0.72 -2.62,0.72 -1.82,0 -3.6,-0.97 -4.65,-2.61 -2.18,-3.47 -4.46,-6.9 -6.5,-10.47 -1.97,-3.44 -3.59,-7.14 -5.26,-10.71 -3.64,-7.8 -7.17,-15.74 -10.33,-23.73 -1.42,-3.6 -2.86,-7.19 -4.26,-10.79 -5.99,-15.14 -11.93,-30.29 -17.81,-45.49 -8.05,-20.76 -15.53,-41.74 -23.05,-62.69 -16.04,-44.71 -31.08,-89.73 -45.5,-134.97 -15,-47.08 -29.47,-94.3 -43.68,-141.62 -10.4,-34.66 -20.5,-69.43 -30.81,-104.12 -0.02,-0.06 0.07,-0.08 0.09,-0.01 18.67,45.79 37.12,91.7 55.24,137.72 16.29,41.4 32.28,82.93 47.59,124.71 8.26,22.6 16.56,45.22 24.25,68.02 9.43,27.9 18.49,55.91 27.38,83.99 4.15,13.11 8.29,26.2 12.44,39.31 3.33,10.54 6.63,21.07 9.92,31.62 -3.75,-20.26 -7.51,-40.51 -11.06,-60.81 -0.01,-0.06 0.07,-0.09 0.08,-0.03 5.27,20.17 10.48,40.34 15.86,60.47 2.32,8.67 4.65,17.35 7.01,26 2.71,9.85 5.73,19.59 8.1,29.51 0.56,2.33 -0.33,4.76 -2.43,5.98" /><path
         id="path64"
         style="fill:#1a1817;fill-opacity:1;fill-rule:nonzero;stroke:none"
         d="m 3376.24,5772.34 c -1.58,0 -2.89,-1.3 -2.89,-2.88 0,-1.58 1.31,-2.89 2.89,-2.89 1.57,0 2.88,1.31 2.88,2.89 0,1.58 -1.31,2.88 -2.88,2.88" /><path
         id="path66"
         style="fill:#1a1817;fill-opacity:1;fill-rule:nonzero;stroke:none"
         d="m 3398.13,5891.04 c -0.5,0 -1.04,-0.31 -1.22,-0.81 -16.33,-42.91 -30.56,-86.55 -45.81,-129.85 -5.33,-15.15 -10.61,-30.33 -15.83,-45.53 -2.04,-5.99 -3.88,-12.05 -6.25,-17.92 -10.5,-26.01 -20.73,-52.14 -30.52,-78.43 -2.54,-6.82 -4.86,-13.77 -7.58,-20.51 -3.77,-9.37 -7.51,-18.75 -11.21,-28.14 -8.5,-21.51 -16.76,-43.11 -24.95,-64.73 -7.25,-19.09 -14.28,-38.25 -21.36,-57.4 -7.77,-21.04 -15.22,-42.22 -23.15,-63.21 -0.03,-0.04 0.06,-0.07 0.09,-0.03 10.79,20.3 20.92,40.98 30.89,61.69 9.24,19.16 18.37,38.39 27.3,57.7 11.78,25.48 23.31,51.06 34.6,76.77 7.5,17.04 14.11,34.44 20.77,51.82 5.66,14.84 11.15,29.75 16.56,44.69 1.72,4.71 3.42,9.41 5.1,14.12 0.5,1.36 1,2.73 1.41,4.13 7.47,25.67 14.73,51.39 21.86,77.17 5.06,18.31 9.52,36.78 14.17,55.19 4.49,17.83 8.96,35.67 13.77,53.42 0.9,2.89 2.91,5.91 2.31,9.05 -0.1,0.56 -0.51,0.81 -0.95,0.81" /><path
         id="path68"
         style="fill:#1a1817;fill-opacity:1;fill-rule:nonzero;stroke:none"
         d="m 2417.11,3610.16 c -0.01,0 -0.03,-0.01 -0.04,-0.04 -9.02,-28.52 -17.8,-57.09 -26.8,-85.6 -7.65,-24.27 -15.21,-48.56 -22.67,-72.9 -8.29,-27.06 -16.44,-54.14 -24.46,-81.28 -3.25,-10.98 -6.4,-22.01 -9.7,-32.96 -13.89,-45.94 -27.4,-92 -40.19,-138.25 -10.36,-37.52 -20.88,-74.99 -31.12,-112.55 -10.61,-38.96 -21.12,-77.95 -31.55,-116.96 -9.89,-37 -19.67,-74.04 -29.53,-111.06 -3.11,-11.72 -6.24,-23.46 -9.38,-35.19 -0.02,-0.06 0.07,-0.09 0.09,-0.03 13.98,42.46 28.18,84.86 42.28,127.27 11.83,35.54 23.6,71.13 35.19,106.77 12.92,39.74 25.78,79.51 38.25,119.4 4.99,15.98 9.58,32.11 14.22,48.2 7.93,27.46 15.66,54.98 23.25,82.54 2.8,10.16 5.64,20.29 8.24,30.5 5.18,20.35 10.28,40.71 15.32,61.09 11.32,45.94 22.27,91.95 32.87,138.05 5.57,24.25 10.61,48.61 15.78,72.93 0.01,0.04 -0.02,0.07 -0.05,0.07" /><path
         id="path70"
         style="fill:#1a1817;fill-opacity:1;fill-rule:nonzero;stroke:none"
         d="m 2396.93,3234.85 c -8.81,-27.89 -16.94,-56.04 -23.63,-84.54 -5.24,-22.36 -8.45,-45.13 -11.24,-67.91 -0.99,-8.02 -1.78,-16.08 -2.41,-24.14 0,-0.05 0.08,-0.05 0.09,-0.01 5.1,24.45 10.99,48.74 16.76,73.04 5.76,24.24 10.87,48.62 15.32,73.16 1.82,10.11 3.55,20.24 5.2,30.39 0,0.03 -0.02,0.04 -0.05,0.04 -0.02,0 -0.03,0 -0.04,-0.03" /><path
         id="path72"
         style="fill:#1a1817;fill-opacity:1;fill-rule:nonzero;stroke:none"
         d="m 2427.73,3222.86 c -3.43,-9.74 -6.55,-19.61 -9.52,-29.51 -2.16,-7.16 -3.93,-14.42 -5.64,-21.7 -3.65,-15.49 -6.67,-31.13 -9.03,-46.87 -0.02,-0.06 0.07,-0.07 0.09,-0.01 3.8,15.39 7.93,30.7 11.8,46.1 1.82,7.26 3.34,14.58 5.15,21.84 2.5,10.03 4.81,20.09 7.25,30.13 0.01,0.03 -0.02,0.05 -0.05,0.05 -0.02,0 -0.04,-0.01 -0.05,-0.03" /><path
         id="path74"
         style="fill:#1a1817;fill-opacity:1;fill-rule:nonzero;stroke:none"
         d="m 615.773,4917.01 c 0.04,0.02 0.012,0.09 -0.019,0.09 -0.008,0 -0.016,-0.01 -0.027,-0.01 -39.891,-24.67 -80.067,-48.87 -120.047,-73.37 -41.621,-25.51 -83.168,-51.16 -124.61,-76.95 -21.402,-13.31 -42.683,-26.82 -63.957,-40.34 -20.125,-12.77 -40.254,-25.53 -60.242,-38.52 -21.406,-13.9 -42.707,-27.99 -63.894,-42.21 -4.45,-2.97 -9.051,-5.79 -13.563,-8.67 -12.394,-7.97 -24.785,-15.98 -37.137,-24.03 -22.804,-14.87 -45.4997,-29.89 -68.1051,-45.02 -6.3867,-4.27 -12.7461,-8.55 -19.1094,-12.86 -14.8047,-9.99 -30.043,-19.37 -45.0429687,-29.09 -0.0468751,-0.03 0,-0.12 0.0429687,-0.1 17.0313,8.31 34.1953,16.36 50.9258,25.24 10.4922,5.57 20.9687,11.16 31.4453,16.78 29.5044,15.84 58.8754,31.93 88.1364,48.23 7.219,4.03 14.438,8.08 21.633,12.13 4.934,2.77 9.711,5.83 14.551,8.76 27.961,16.92 55.746,34.09 83.375,51.55 13.5,8.5 26.937,17.07 40.148,26 26.227,17.74 52.293,35.73 78.282,53.84 34.347,23.93 68.347,48.37 102.332,72.84 34.988,25.19 69.933,50.45 104.882,75.71" /><path
         id="path76"
         style="fill:#1a1817;fill-opacity:1;fill-rule:nonzero;stroke:none"
         d="m 752.906,4960.09 c -23.324,-18.08 -46.097,-36.88 -68.453,-56.15 -0.043,-0.03 0.02,-0.09 0.067,-0.08 35.742,20.83 70.824,42.79 104.851,66.35 6.074,4.21 11.918,8.82 17.781,13.35 7.457,5.75 14.852,11.58 22.203,17.49 5.051,4.06 9.875,8.43 14.758,12.69 5.489,4.78 10.977,9.56 16.387,14.43 15.301,13.77 30.527,27.64 45.137,42.14 0.023,0.04 0,0.09 -0.035,0.09 -0.008,0 -0.02,-0.01 -0.024,-0.01 -26.742,-19.56 -54.32,-37.97 -81.082,-57.53 -12.82,-9.34 -25.969,-18.21 -38.625,-27.78 -10.988,-8.33 -22.066,-16.54 -32.965,-24.99" /><path
         id="path78"
         style="fill:#1a1817;fill-opacity:1;fill-rule:nonzero;stroke:none"
         d="m 676.191,5015.82 c 5.579,1.13 11.075,2.66 16.52,4.31 10.207,3.15 20.078,7.34 29.805,11.71 13.601,6.15 26.214,13.87 38.664,22.02 13.617,8.94 26.859,18.5 39.121,29.21 0.023,0.04 0,0.08 -0.035,0.09 -0.004,0 -0.016,-0.01 -0.028,-0.01 -11.679,-7.82 -23.894,-14.96 -36.238,-21.68 -7.348,-4 -14.594,-8.18 -21.973,-12.11 -17.312,-9.26 -34.734,-18.52 -52.836,-26.2 0.153,0.07 0.317,0.13 0.469,0.21 -4.644,-1.94 -9.32,-3.76 -14.055,-5.46 -4.527,-1.61 -9.109,-3.11 -13.839,-3.97 -0.051,-0.01 -0.051,-0.09 0.011,-0.09 4.868,0.12 9.633,1.01 14.414,1.97" /><path
         id="path80"
         style="fill:#1a1817;fill-opacity:1;fill-rule:nonzero;stroke:none"
         d="m 110.723,4720.3 c 17.812,7.84 34.875,17.34 51.769,26.98 14.485,8.26 28.844,16.74 43.09,25.43 24.395,14.87 48.356,30.5 72.18,46.25 17.57,11.6 35.023,23.4 52.41,35.29 16.387,11.22 32.601,22.74 49.258,33.56 0.039,0.03 0.015,0.09 -0.024,0.09 -0.008,0 -0.015,0 -0.019,-0.01 -12.836,-6.27 -25.422,-13.04 -38.028,-19.73 -12.629,-6.71 -25.211,-13.52 -37.757,-20.37 -22.114,-12.08 -44.227,-24.28 -65.868,-37.19 -20.171,-12.05 -40.011,-24.62 -59.656,-37.5 -14.551,-9.56 -28.996,-19.24 -43.531,-28.82 -12.402,-8.15 -24.981,-15.97 -37.9103,-23.29 -12.6562,-7.15 -25.4726,-14 -38.3554,-20.73 -0.0469,-0.03 -0.0196,-0.11 0.0312,-0.09 17.7188,6.03 35.2578,12.58 52.4105,20.13" /><path
         id="path82"
         style="fill:#1a1817;fill-opacity:1;fill-rule:nonzero;stroke:none"
         d="m 3018.12,6531.74 c 18.84,7.29 37.62,14.79 56.31,22.48 8.36,3.46 16.7,6.96 25.03,10.49 2.99,1.27 6.14,2.39 9.06,3.87 13.56,6.87 27.11,13.78 40.51,20.95 13.04,6.96 25.96,14.13 38.8,21.47 4.6,2.61 9.05,5.53 13.56,8.3 8.97,5.54 17.92,11.11 26.83,16.74 24.15,15.19 48.02,30.82 71.75,46.67 8.85,5.89 17.78,11.78 26.17,18.29 0.04,0.02 0.01,0.08 -0.02,0.08 -0.01,0 -0.02,0 -0.02,0 -6.96,-4.11 -14.22,-7.69 -21.39,-11.36 -6.48,-3.3 -12.97,-6.55 -19.46,-9.81 -13.94,-7 -27.91,-13.96 -41.83,-21 -11.91,-6.03 -23.81,-12.05 -35.67,-18.17 -10.72,-5.52 -21.31,-11.3 -32.1,-16.64 -16.74,-8.28 -33.37,-16.73 -49.82,-25.55 -7.35,-3.94 -14.67,-7.94 -21.96,-11.96 -2.09,-1.16 -4.16,-2.34 -6.31,-3.39 -30.99,-15.07 -61.66,-30.81 -92.02,-47.1 -16.9,-9.06 -34.02,-17.71 -50.93,-26.75 -0.05,-0.01 -0.01,-0.1 0.03,-0.07 21.29,7.14 42.52,14.37 63.48,22.46" /><path
         id="path84"
         style="fill:#1a1817;fill-opacity:1;fill-rule:nonzero;stroke:none"
         d="m 3068.12,6627.25 c 15.77,6.57 31.32,13.66 46.77,20.94 17.34,8.17 34.56,16.52 51.68,25.1 0.04,0.03 0.02,0.1 -0.02,0.1 0,0 -0.01,0 -0.01,-0.01 -37.07,-14.05 -74.17,-28.04 -110.36,-44.22 -23.85,-10.66 -47.41,-21.96 -70.76,-33.63 -0.05,-0.04 -0.02,-0.13 0.03,-0.1 27.82,9.94 55.42,20.46 82.67,31.82" /><path
         id="path86"
         style="fill:#1a1817;fill-opacity:1;fill-rule:nonzero;stroke:none"
         d="m 2716.03,6342.59 c -27.89,-16.21 -56.07,-31.93 -84.12,-47.87 -27.63,-15.67 -55.24,-31.4 -82.73,-47.31 -25.41,-14.71 -51.09,-28.97 -76.44,-43.8 -7.08,-4.14 -14.16,-8.3 -21.23,-12.48 -2.13,-1.26 -4.25,-2.55 -6.43,-3.74 -15.2,-8.32 -30.35,-16.69 -45.48,-25.14 -8.7,-4.85 -17.38,-9.72 -26.05,-14.62 -3.94,-2.22 -7.89,-4.39 -11.79,-6.68 -1.1,-0.64 -2.28,-1.15 -3.42,-1.74 -3.15,-1.6 -6.29,-3.2 -9.41,-4.81 -9.32,-4.76 -18.61,-9.56 -27.9,-14.37 -8.86,-4.58 -17.71,-9.2 -26.55,-13.83 -11.32,-5.93 -22.78,-11.6 -34.18,-17.4 -0.05,-0.01 -0.01,-0.1 0.03,-0.09 11.43,4.64 22.86,9.2 34.18,14.07 7.92,3.42 15.83,6.86 23.74,10.31 15.72,6.88 31.44,13.8 47.1,20.8 3.04,1.36 5.95,2.98 8.9,4.47 8.36,4.21 16.69,8.46 25,12.7 16.59,8.48 33.16,17.03 49.66,25.69 8.48,4.45 16.7,9.42 24.98,14.21 18.11,10.49 36.11,21.15 54.06,31.92 24.91,14.94 49.4,30.55 73.93,46.11 22.07,13.97 44.07,28.06 66,42.24 16.09,10.38 32.2,20.75 48.19,31.28 0.05,0.03 0.02,0.09 -0.02,0.09 0,0 -0.01,0 -0.02,-0.01" /><path
         id="path88"
         style="fill:#1a1817;fill-opacity:1;fill-rule:nonzero;stroke:none"
         d="m 2451.28,6237.31 c 6.21,3.03 12.43,6.02 18.56,9.23 10.6,5.54 21.09,11.3 31.54,17.12 24.54,13.66 48.89,27.77 72.62,42.85 0.03,0.04 0,0.1 -0.04,0.1 -0.01,0 -0.02,0 -0.03,-0.01 -36.16,-18.11 -72.84,-35.22 -108.49,-54.32 -12.5,-6.71 -25.09,-13.27 -37.53,-20.1 -18.79,-10.29 -37.47,-20.8 -56.04,-31.47 -0.06,-0.03 -0.01,-0.11 0.05,-0.08 26.72,11.68 53.18,23.87 79.36,36.68" /><path
         id="path90"
         style="fill:#1a1817;fill-opacity:1;fill-rule:nonzero;stroke:none"
         d="m 1277.59,5387.18 c 22.54,11.73 45.04,23.56 67.48,35.51 10.87,5.79 21.86,11.41 32.61,17.47 17.1,9.65 34.19,19.34 51.24,29.13 18.65,10.7 37.26,21.48 55.81,32.36 11.19,6.58 22.18,13.56 33.2,20.43 32.29,20.12 64.24,40.75 96.05,61.61 12.67,8.31 25.4,16.54 37.86,25.15 10.19,7.03 20.38,14.1 30.57,21.16 4.39,3.05 8.8,6.1 13.19,9.15 1.65,1.15 3.33,2.24 4.94,3.45 13.92,10.31 27.93,20.48 41.79,30.87 14.76,11.05 29.64,21.93 44.15,33.3 7.01,5.48 14.11,10.84 20.83,16.71 0.03,0.02 0,0.07 -0.05,0.07 -0.01,0 -0.02,0 -0.03,-0.01 -0.79,-0.62 -1.61,-1.25 -2.4,-1.87 0.01,0 0.01,0.02 0.02,0.02 -6.71,-5.1 -13.73,-9.83 -20.74,-14.53 -6.96,-4.68 -13.9,-9.37 -20.89,-13.98 -15.93,-10.51 -31.9,-20.99 -47.89,-31.41 -6.42,-4.17 -12.73,-8.55 -19.25,-12.54 -7.88,-4.84 -15.76,-9.69 -23.63,-14.54 -13.45,-8.28 -26.83,-16.71 -40.43,-24.77 -31.43,-18.62 -62.81,-37.38 -94.13,-56.19 -18.85,-11.33 -37.64,-22.78 -56.32,-34.39 -10.73,-6.64 -21.63,-13.01 -32.42,-19.57 -21.35,-12.94 -42.63,-26.02 -63.84,-39.18 -8.14,-5.07 -16.26,-10.12 -24.46,-15.07 -35.88,-21.67 -71.62,-43.61 -107.18,-65.83 -13.85,-8.66 -27.85,-17.12 -41.76,-25.72 -0.05,-0.04 -0.01,-0.12 0.05,-0.09 21.96,10.95 43.86,21.96 65.63,33.3" /><path
         id="path92"
         style="fill:#1a1817;fill-opacity:1;fill-rule:nonzero;stroke:none"
         d="m 1539.07,5615.69 c 6.44,2.88 12.92,5.68 19.25,8.76 9.19,4.48 18.33,9.09 27.42,13.78 11.93,6.14 23.67,12.63 35.34,19.21 14.67,8.27 29.3,16.61 43.7,25.32 0.05,0.02 0.03,0.07 -0.02,0.07 -0.01,0 -0.02,0 -0.03,0 -15.79,-7.73 -31.71,-15.2 -47.59,-22.77 -8.71,-4.15 -17.4,-8.33 -26.06,-12.57 -8.42,-4.13 -16.97,-8.02 -25.39,-12.14 -33.5,-16.37 -66.76,-33.15 -99.63,-50.75 -0.05,-0.03 -0.02,-0.1 0.04,-0.09 24.5,10 48.83,20.36 72.97,31.18" /><path
         id="path94"
         style="fill:#1a1817;fill-opacity:1;fill-rule:nonzero;stroke:none"
         d="m 2014.64,5894.28 c 23.42,14.49 46.67,29.27 69.72,44.36 0.05,0.02 0.02,0.08 -0.02,0.08 -0.01,0 -0.02,0 -0.03,-0.01 -25.15,-12.49 -50.61,-24.35 -75.89,-36.57 -25.39,-12.28 -50.7,-24.78 -75.8,-37.66 -15,-7.73 -29.82,-15.83 -44.54,-24.08 -7.33,-4.14 -14.88,-7.9 -22.3,-11.83 -16.88,-8.95 -33.63,-18.13 -50.27,-27.51 -5.09,-2.88 -10.19,-5.79 -15.27,-8.7 -10.7,-6.15 -21.66,-11.83 -32.44,-17.83 -0.05,-0.03 -0.01,-0.1 0.03,-0.09 11.71,4.1 23.51,8.01 35.04,12.63 5.94,2.37 11.86,4.76 17.77,7.2 18.47,7.56 36.84,15.36 55.12,23.4 7.78,3.44 15.55,6.85 23.14,10.72 16.87,8.58 33.57,17.45 50.07,26.69 22.25,12.47 43.99,25.76 65.67,39.2" /><path
         id="path96"
         style="fill:#1a1817;fill-opacity:1;fill-rule:nonzero;stroke:none"
         d="m 2562.75,3992.27 c -9.9,-27.44 -19.29,-55.14 -27.54,-83.15 -8.95,-30.41 -17.49,-60.91 -25.8,-91.51 -6.01,-22.12 -11.95,-44.26 -17.62,-66.48 -0.01,-0.05 0.08,-0.09 0.1,-0.02 11.22,29.69 23.29,59.08 34.96,88.6 9.51,24.12 18.69,48.35 28.01,72.55 11.81,30.64 22.94,61.48 33.21,92.67 8.68,26.38 17.45,52.73 25.59,79.27 9.14,29.79 17.86,59.73 26.25,89.75 0.01,0.03 -0.02,0.06 -0.05,0.06 -0.02,0 -0.03,-0.01 -0.04,-0.03 -17.51,-37.06 -34.09,-74.51 -49.84,-112.36 -9.55,-22.95 -18.79,-45.97 -27.23,-69.35" /><path
         id="path98"
         style="fill:#1a1817;fill-opacity:1;fill-rule:nonzero;stroke:none"
         d="m 2701.82,4141.41 c -8.65,-24.08 -16.91,-48.3 -25.61,-72.36 -4.07,-11.23 -8.09,-22.46 -12.07,-33.7 -12.92,-36.33 -25.47,-72.78 -37.66,-109.35 -15.81,-47.39 -31.41,-94.87 -46.11,-142.63 -8.15,-26.43 -15.86,-53.02 -23.44,-79.62 -2.17,-7.64 -3.92,-15.47 -5.84,-23.19 -4.68,-18.63 -9.26,-37.31 -13.81,-55.99 -3.43,-14.04 -6.82,-28.09 -10.19,-42.15 -2.09,-8.72 -3.92,-17.5 -5.82,-26.24 -6.32,-28.73 -12.57,-57.45 -18.79,-86.19 -5.67,-26.23 -11.47,-52.44 -16.79,-78.75 0,-0.06 0.07,-0.09 0.1,-0.03 7.8,27.76 16.55,55.25 25.13,82.75 8.7,27.84 17.44,55.64 26.15,83.48 7.04,22.52 14.4,44.93 21.61,67.39 5.75,17.9 11.47,35.82 17.1,53.75 2.03,6.43 3.94,12.91 6.08,19.29 19.31,57.79 37.3,115.95 54.12,174.49 5.02,17.45 9.56,35.06 14.18,52.62 9.78,37.06 19.18,74.24 28.22,111.48 2.5,10.22 4.95,20.44 7.38,30.68 5.85,24.63 10.93,49.47 16.16,74.24 0,0.03 -0.02,0.06 -0.05,0.06 -0.02,0 -0.04,-0.01 -0.05,-0.03" /><path
         id="path100"
         style="fill:#282727;fill-opacity:1;fill-rule:nonzero;stroke:none"
         d="m 3386.39,6502.05 c -4.08,-12.97 -8.18,-25.95 -12.27,-38.93 -4.97,-15.81 -10.71,-31.38 -16.23,-47.01 -5.43,-15.4 -10.52,-30.95 -16.42,-46.16 -13.6,-34.98 -27.06,-70 -40.93,-104.86 -27.95,-70.14 -55.74,-140.34 -83.35,-210.61 -13.32,-33.9 -26.57,-67.82 -40.11,-101.64 -13.66,-34.18 -27.08,-68.48 -41.1,-102.54 -16.17,-39.32 -32.37,-78.66 -48.54,-117.98 -15.94,-38.76 -31.34,-77.77 -47,-116.65 -12.8,-31.78 -24.51,-63.99 -36.54,-96.08 -11.41,-30.47 -22.82,-60.88 -33.61,-91.56 -13.5,-38.35 -27.31,-76.61 -40.49,-115.07 -14.27,-41.59 -28.51,-83.18 -42.77,-124.77 -23.63,-68.92 -46.76,-138.02 -70.04,-207.05 -12.19,-36.12 -24.4,-72.24 -36.58,-108.34 -9.46,-28.02 -18.79,-56.08 -28.61,-83.97 -16.37,-46.49 -32.74,-92.98 -49.1,-139.47 -10.36,-29.42 -21.8,-58.44 -32.86,-87.59 -12.1,-31.92 -23.78,-64.04 -36.44,-95.74 -17.64,-44.21 -35.29,-88.4 -52.94,-132.59 -11.28,-28.27 -23.05,-56.35 -34.7,-84.47 -13.76,-33.18 -27.38,-66.39 -41.26,-99.49 -18.18,-43.35 -36.36,-86.7 -54.53,-130.05 -12.88,-30.71 -25.37,-61.57 -37.99,-92.38 -12.67,-30.96 -25.35,-61.93 -37.71,-93.02 -13.81,-34.76 -27.59,-69.51 -41.44,-104.24 -17.58,-44.07 -35.09,-88.13 -53.04,-132.05 -17.07,-41.76 -34.38,-83.4 -51.78,-125.02 -7.48,-17.26 -14.95,-34.51 -22.42,-51.77 -6.67,-15.38 -13.83,-30.55 -20.78,-45.8 -12.66,-27.74 -26.46,-54.87 -38.29,-82.96 -4.3,2.33 -8.62,4.65 -12.93,6.98 -8.59,4.67 -17.36,8.97 -25.96,13.63 -8.46,4.58 -16.78,9.43 -25.05,14.36 -35.13,20.91 -69.29,43.4 -103.87,65.22 -16.37,10.35 -32.76,20.7 -48.65,31.78 -17.24,12.03 -34.32,24.3 -51.42,36.53 -33.78,24.12 -67.19,48.76 -101.01,72.82 -34.66,24.67 -69.77,48.7 -103.86,74.12 -16.19,12.06 -32.09,24.59 -48.72,36.07 -18.17,12.55 -36.49,24.88 -54.52,37.65 -6.56,4.67 -12.95,9.53 -19.33,14.42 -32.06,26.07 -63.01,53.5 -95.71,78.79 -17.53,13.54 -34.8,27.53 -52.69,40.63 -9.07,6.64 -18.23,13.12 -27.5,19.51 -4.85,3.33 -9.91,6.4 -15.02,9.36 8.95,11.74 17.24,23.91 25.62,36.09 16.4,23.72 32.26,47.81 49.02,71.29 36.94,51.75 74.88,102.84 112.86,153.84 35.75,47.98 69.18,97.55 103.51,146.54 35.41,50.53 71.71,100.45 107,151.06 37.57,53.83 75.17,107.64 112.7,161.48 18.27,26.19 36.5,52.4 54.73,78.61 16.04,23.02 31.94,46.2 48.37,68.96 15.71,21.73 31.23,43.59 47.33,65.04 18.18,24.21 36.36,48.4 54.61,72.55 32.46,42.97 64.78,86.02 97.27,128.96 17.25,22.29 34.44,44.63 51.82,66.82 10.19,12.98 20.4,25.96 30.54,38.97 10.59,13.58 21.36,27.02 31.7,40.75 9.49,12.61 19.17,25.09 28.44,37.85 10.9,14.97 21.78,29.96 32.68,44.93 17.53,24.11 34.89,48.34 52.43,72.43 29.51,40.55 59.75,80.5 90.32,120.25 45.14,58.16 89.92,116.63 134.54,175.21 17.96,23.03 35.88,46.09 54.29,68.74 20.85,25.66 41.8,51.23 62.8,76.76 39.27,47.77 77.18,96.63 115.32,145.29 33.53,42.77 65.56,86.62 98.43,129.88 19.04,24.12 38.56,47.93 56.65,72.78 18.93,26.01 37.43,52.31 56.79,78 17.94,23.81 36.24,47.33 54.05,71.22 19.47,26.1 38.72,52.35 58.26,78.39 14.35,19.16 28.84,38.22 43.37,57.23 8.78,11.25 17.63,22.43 26.78,33.38 9.59,11.48 19.59,22.61 29.57,33.75 20.3,22.66 41.14,44.85 61.33,67.64 9.98,11.29 19.64,22.84 29.25,34.46 9.43,11.43 19.16,22.59 28.75,33.9 0.68,0.8 1.34,1.61 2.03,2.41 -3.72,-13.28 -7.74,-26.49 -11.51,-39.75 -1.68,-5.95 -3.69,-11.81 -5.54,-17.72 z M 1524.61,3513.32 c -12.86,-15.4 -25.14,-31.27 -37.89,-46.75 -12.47,-15.16 -25.58,-29.9 -39.06,-44.18 -20.35,-21.53 -40.64,-43.07 -60.39,-65.17 -9.74,-10.91 -19.39,-21.9 -29.03,-32.9 -4.37,-5 -8.76,-9.98 -13.15,-14.98 -0.14,-0.17 -0.29,-0.33 -0.44,-0.5 0.02,0.77 0.03,1.55 0.05,2.32 0.19,9.9 0.36,19.8 0.5,29.71 0.28,20.05 0.51,40.12 0.63,60.17 0.22,40.81 0.84,81.6 1.32,122.41 0.48,40.84 0.8,81.68 0.47,122.53 -0.35,42.79 -1.16,85.55 -3.96,128.24 -0.63,9.62 -1.71,19.21 -3.14,28.74 0.39,-0.24 0.78,-0.47 1.17,-0.71 8.22,-5.25 16.12,-10.79 24.04,-16.47 31.83,-24.83 62.68,-50.92 92.87,-77.72 14.52,-12.86 28.53,-26.32 43.1,-39.14 8.76,-7.71 17.62,-15.26 26.58,-22.74 9.04,-7.55 18.67,-14.43 28.05,-21.54 9.47,-7.2 19.3,-13.94 28.89,-21 2.75,-2.02 5.44,-4.12 8.18,-6.17 -22.38,-28.52 -45.56,-56.34 -68.79,-84.15 z m -265.97,23.51 c -17.85,38.36 -37.39,75.88 -56.05,113.85 -8.82,17.95 -17.24,36.1 -26.09,54.06 -8.9,18.08 -18.12,36.03 -27.31,53.97 -17.18,33.53 -35.19,66.58 -52.97,99.78 -16.99,31.72 -32.11,64.2 -46.51,97.16 -4.11,9.94 -8.4,19.85 -12.18,29.9 -4.91,13.05 -9.81,26.1 -14.58,39.18 0.7,3.89 0.58,7.92 -0.49,11.77 -0.89,2.12 -1.77,4.22 -2.66,6.34 -0.78,1.32 -1.69,2.52 -2.65,3.66 2.34,3.97 4.92,7.8 7.63,11.59 10.1,12.68 21.24,24.55 32.4,36.3 10.78,11.34 21.52,22.72 32.28,34.1 18.28,19.34 36.62,38.66 54.75,58.15 20.87,22.46 41.42,45.19 61.87,68.04 17.82,19.93 36.45,39.12 54.72,58.61 19.71,21 39.25,42.15 58.34,63.72 18.89,21.35 37.56,42.9 56.74,63.97 19.1,21 38.37,41.83 57.76,62.59 20.25,21.68 40.54,43.32 60.43,65.34 39.56,43.77 78.87,87.74 119.16,130.84 18.16,19.41 36.51,38.64 54.62,58.1 20.94,22.51 41.76,45.12 62.5,67.82 19.28,21.1 38.33,42.43 57.54,63.58 18.28,20.13 36.63,40.16 55.03,60.17 19.43,21.15 38.99,42.22 57.96,63.79 19.78,22.47 39.47,45 59.13,67.59 38.57,44.3 77.95,87.86 118.15,130.68 18.58,19.77 37.21,39.49 55.71,59.34 18.68,20.04 37.16,40.26 55.68,60.44 40.16,43.79 80.77,87.15 121.22,130.67 39.89,42.91 79.6,85.99 119.93,128.5 19.69,20.75 39.68,41.21 59.57,61.75 19.99,20.64 39.57,41.6 59.02,62.74 18.63,20.24 36.77,40.95 55.17,61.38 18.79,20.84 38.28,41.13 57.88,61.22 41.89,42.96 83.65,86.05 125.62,128.93 39.63,40.51 80.16,80.18 118.81,121.6 39.32,42.12 77.41,85.41 116.01,128.19 38.37,42.5 78.01,83.87 117.04,125.79 18.65,20.04 37.41,40.01 56.6,59.54 5.27,5.35 10.64,10.59 15.97,15.88 -19.32,-23 -37.75,-46.75 -56.06,-70.57 -19.27,-25.06 -38.28,-50.31 -57.19,-75.63 -18,-24.09 -36.07,-48.13 -54.43,-71.96 -19.71,-25.59 -39.04,-51.41 -57.83,-77.69 -11.84,-16.54 -23.97,-32.8 -36.32,-48.94 -12.91,-16.18 -25.96,-32.28 -38.45,-48.79 -12.43,-16.42 -24.71,-32.95 -36.9,-49.55 -23.4,-31.88 -47.32,-63.32 -71.46,-94.62 -18.5,-23.87 -36.95,-47.79 -55.51,-71.6 -18.61,-23.89 -37.56,-47.48 -56.57,-71.05 -41.23,-51.11 -82.03,-102.54 -121.5,-155.03 -38.06,-50.62 -76.34,-101.08 -114.91,-151.31 -37.67,-49.07 -74.46,-98.74 -110.73,-148.84 -15.49,-21.37 -30.78,-42.88 -46.27,-64.27 -16.85,-23.26 -33.91,-46.3 -51.13,-69.29 -19.53,-25.16 -39.12,-50.29 -58.73,-75.38 -18.41,-23.57 -36.84,-47.16 -54.84,-71.04 -39.46,-52.38 -78.68,-104.93 -118.05,-157.39 -16.81,-22.44 -33.72,-44.82 -50.05,-67.62 -20.08,-28.08 -39.97,-56.23 -59.67,-84.57 -34.24,-49.25 -68.17,-98.73 -102.27,-148.08 -37.5,-54.25 -74.67,-108.73 -112.46,-162.77 -35.34,-50.53 -70.74,-100.99 -105.47,-151.95 -17.09,-25.07 -34.02,-50.24 -51.41,-75.12 -17.75,-25.4 -36.21,-50.35 -54.32,-75.52 -35.11,-48.78 -70.38,-97.41 -103.88,-147.32 -12.47,-18.57 -25.13,-37.04 -37.79,-55.47 -3.62,-5.29 -7.53,-10.36 -11.44,-15.42 -0.83,0.08 -1.66,0.15 -2.48,0.15 -7.74,0 -15.25,-3.82 -19.48,-11.04 -0.06,-0.1 -0.1,-0.2 -0.16,-0.3 -1.52,-0.6 -3.02,-1.26 -4.47,-2.06 -3.64,-1.89 -5.89,-5.28 -7.98,-8.63 -1.02,-2.28 -2,-4.57 -2.95,-6.88 -0.6,-1.65 -1.09,-3.32 -1.51,-5.02 -0.79,-2.92 -1.22,-5.94 -1.76,-8.92 -0.84,-4.66 -1.7,-9.33 -2.56,-14 -0.86,-4.65 -0.75,-8.9 1.72,-13.11 2.22,-3.81 5.92,-6.65 10.17,-7.82 0.78,-0.22 1.57,-0.37 2.36,-0.47 0.2,-7.87 0.23,-15.74 0.2,-23.57 -0.09,-21.02 -0.33,-42.04 -0.56,-63.06 -0.45,-40.73 -0.58,-81.48 -0.27,-122.22 0.32,-41.74 0.87,-83.46 2.09,-125.2 0.1,-3.52 0.24,-7.02 0.36,-10.54 -11.97,33.58 -25.79,66.57 -40.83,98.86 z m -348.218,584.38 c -34.481,22.58 -69.43,44.4 -103.246,67.97 -35.867,25 -71.488,50.29 -107.895,74.53 -33.426,22.24 -67.183,44.02 -100.375,66.64 -17.269,11.77 -34.597,23.48 -51.511,35.76 -17.973,13.06 -35.86,26.22 -53.793,39.32 -32.575,23.81 -65.043,47.77 -97.024,72.36 -19.316,14.87 -38.512,30.01 -58.609,43.82 -14.004,9.64 -28.047,19.22 -42.117,28.76 7.804,3.65 15.582,7.37 23.339,11.12 24.364,11.73 48.399,24.17 72.09,37.21 21.149,11.65 41.891,24.04 62.481,36.65 10.297,6.31 20.515,12.73 30.734,19.16 8.613,5.43 17.352,10.73 25.813,16.39 34.238,22.83 68.496,45.67 102.734,68.51 24.879,16.59 49.359,33.8 73.953,50.82 26.606,18.38 53.434,36.46 79.77,55.22 36.265,25.85 72.523,51.69 108.777,77.55 19.902,14.17 39.805,28.33 59.508,42.75 56.844,41.65 113.909,83.02 170.449,125.08 58.76,43.69 117.29,87.7 176.28,131.07 66,48.5 131.99,97.02 197.99,145.51 19.06,14.01 38.43,27.6 57.64,41.38 41.28,29.58 82.57,59.15 123.85,88.73 16.96,12.17 33.86,24.45 50.98,36.4 35.44,24.76 70.9,49.51 106.35,74.26 33.16,23.16 66.34,46.32 99.51,69.48 19.24,13.44 38.82,26.41 58.25,39.58 41.77,28.33 83.52,56.65 125.29,84.98 16.31,11.05 32.55,22.19 48.99,33.03 73.47,48.47 146.94,96.95 220.43,145.42 56.33,37.16 113.36,73.28 170.09,109.82 111.35,71.74 223.33,142.49 335.26,213.29 128.08,81 256.27,161.77 385.02,241.68 23.94,14.86 47.98,29.56 72.13,44.11 -3.68,-3.52 -7.34,-7.04 -11.02,-10.55 -19.73,-18.79 -38.9,-38.14 -58.69,-56.86 -10.6,-10.01 -21.42,-19.75 -32.21,-29.53 -10.48,-9.5 -20.68,-19.32 -30.96,-29.04 -41.9,-39.7 -80.96,-82.31 -120.77,-124.1 -39.09,-41.05 -77.87,-82.35 -115.87,-124.42 -18.53,-20.52 -37.18,-40.92 -55.78,-61.36 -20.21,-22.22 -40.52,-44.31 -61.49,-65.81 -39.26,-40.24 -79.03,-80.01 -118.35,-120.2 -41.73,-42.67 -83.72,-85.11 -125.21,-128.04 -19.36,-20.03 -38.01,-40.74 -56.74,-61.36 -18.7,-20.56 -37.04,-41.51 -56.29,-61.54 -39.71,-41.3 -79.96,-82.11 -119.18,-123.89 -40.53,-43.18 -80.6,-86.8 -120.85,-130.24 -19.93,-21.49 -39.97,-42.85 -59.88,-64.35 -19.27,-20.78 -38.23,-41.86 -57.3,-62.82 -37.08,-40.74 -75.27,-80.42 -112.32,-121.17 -40.68,-44.73 -80.36,-90.27 -119.86,-136.03 -37.04,-42.88 -75.28,-84.66 -113.43,-126.54 -39.35,-43.2 -78.25,-86.82 -117.52,-130.08 -18.46,-20.34 -37.23,-40.39 -55.99,-60.42 -18.96,-20.24 -38.09,-40.32 -56.65,-60.88 -40.39,-44.73 -80.4,-89.81 -121.02,-134.35 -18.95,-20.78 -38.23,-41.26 -57.36,-61.88 -19.23,-20.72 -37.99,-41.87 -56.69,-63.08 -18.94,-21.5 -37.84,-43.01 -57,-64.29 -19.65,-21.83 -39.88,-43.11 -59.96,-64.51 -18.72,-19.96 -36.69,-40.62 -54.86,-61.09 -19.75,-22.24 -40,-44.02 -60.25,-65.83 -15.85,-17.11 -31.65,-34.29 -47.52,-51.38 -9.05,-9.75 -18.1,-19.48 -26.95,-29.4 -6.77,-7.57 -13.43,-15.2 -19.586,-23.28 -3.141,-4.13 -6.102,-8.36 -8.859,-12.71 -1.09,0.74 -2.184,1.47 -3.266,2.21 -8.016,5.48 -15.949,11.07 -23.902,16.64 -16.368,11.47 -32.829,22.88 -49.555,33.82 z M 3489.13,6715.08 c -4.6,4.6 -11.2,7.37 -17.76,7.37 -2.2,0 -4.39,-0.31 -6.5,-0.96 -4.6,-1.42 -9.2,-2.86 -13.51,-5.01 -4.69,-2.33 -9.2,-4.84 -13.74,-7.45 -3.32,-1.93 -6.55,-4 -9.83,-6.01 -6.95,-4.22 -13.87,-8.44 -20.82,-12.68 -15.52,-9.5 -31.05,-19 -46.58,-28.51 -33.15,-20.32 -66.23,-40.81 -99.31,-61.29 -54.18,-33.52 -107.98,-67.74 -161.79,-101.89 -119.41,-75.75 -238.63,-151.8 -357.75,-228 -57.24,-36.62 -114.61,-73.01 -171.58,-110.03 -68.25,-44.35 -136.53,-88.72 -204.78,-133.08 -23.03,-14.97 -45.76,-30.42 -68.62,-45.63 -42.38,-28.2 -84.75,-56.38 -127.14,-84.58 -18.01,-11.99 -36.15,-23.78 -53.99,-36 -33.6,-23 -67.19,-45.98 -100.77,-68.96 -35.35,-24.2 -70.69,-48.39 -106.04,-72.57 -17.88,-12.25 -35.49,-24.88 -53.21,-37.36 -41.38,-29.16 -82.76,-58.3 -124.14,-87.45 -17.67,-12.42 -35.41,-24.74 -52.91,-37.38 -69.01,-49.85 -138.02,-99.7 -207.01,-149.56 -17.42,-12.57 -34.61,-25.5 -51.88,-38.29 -40.36,-29.9 -80.72,-59.8 -121.08,-89.71 -54.39,-40.3 -108.49,-80.99 -162.65,-121.62 -55.88,-41.9 -111.99,-83.49 -168.162,-125 -23.691,-17.51 -47.195,-35.3 -71.113,-52.51 -35.641,-25.65 -71.274,-51.3 -106.914,-76.96 -21.27,-15.31 -42.504,-30.63 -63.985,-45.65 -36.961,-25.82 -73.925,-51.66 -110.882,-77.49 -10.086,-7.05 -20.352,-13.85 -30.555,-20.73 -24.504,-16.52 -48.992,-33.02 -73.488,-49.55 -29.086,-19.61 -58.774,-38.34 -88.731,-56.6 -26.125,-15.93 -52.773,-30.93 -79.875,-45.11 -12.906,-6.76 -25.969,-13.24 -39.066,-19.63 -12.59,-6.15 -25.254,-12.22 -38.086,-17.88 -0.492,0.33 -0.985,0.67 -1.481,1 -3.562,2.4 -7.64,3.48 -11.742,3.48 -8.656,0 -17.433,-4.83 -21.793,-12.27 -3.324,-5.67 -4.222,-12.57 -2.476,-18.89 1.769,-6.45 5.843,-11.01 11.273,-14.66 32.77,-22.06 65.465,-44.16 97.387,-67.43 6.383,-4.93 12.769,-9.86 19.16,-14.79 -0.957,0.73 -1.914,1.47 -2.871,2.21 14.543,-11.26 29.043,-22.58 43.586,-33.84 34.523,-26.71 69.66,-52.61 104.5,-78.92 32.074,-24.23 64.976,-47.35 98.191,-69.99 35.36,-24.09 70.918,-47.92 105.988,-72.43 33.833,-23.63 66.813,-48.52 101.051,-71.58 29.926,-20.12 60.364,-39.47 90.157,-59.78 13.933,-9.49 27.699,-19.26 41.695,-28.69 13.48,-9.08 27.023,-18.03 41.371,-25.66 14.961,-40.89 31.391,-81.14 49.111,-120.93 16.85,-37.85 36.71,-74.24 55.39,-111.18 8.72,-17.29 16.91,-34.82 25.24,-52.28 9.06,-19.01 18.23,-38 26.82,-57.23 8.73,-19.52 17.49,-39.05 26.49,-58.45 8.6,-18.52 17.65,-36.86 26.49,-55.29 12.83,-26.74 24.73,-53.92 36.42,-81.18 12.64,-30.16 24.95,-60.44 35.84,-91.28 12.05,-34.03 24.4,-67.76 40.77,-100 1.59,-3.14 3.95,-5.64 6.73,-7.52 1.42,-6.03 4.72,-11.83 10.08,-15.12 3.2,-1.96 7.21,-4.27 11.15,-3.74 2.59,0.33 5.18,0.67 7.76,1.03 2.42,0.86 4.75,1.96 6.96,3.28 1.19,0.92 2.39,1.85 3.59,2.77 1.67,1.25 3.31,2.56 4.87,3.95 2.38,2 4.5,4.36 6.67,6.55 1.64,1.67 3.19,3.41 4.8,5.11 3.55,3.78 7.06,7.58 10.55,11.43 6.7,7.42 13.38,14.89 20.14,22.27 13.77,15.02 27.54,30.1 41.8,44.66 14.92,15.24 30.2,30.09 45,45.42 14.34,14.85 28.17,30.1 41.57,45.8 12.91,15.11 25.35,30.65 37.98,45.98 13.15,15.98 26.03,32.21 38.3,48.86 7.99,10.87 15.56,22.03 23.15,33.17 14.03,-11.06 28.09,-22.06 42.36,-32.81 16.17,-12.19 32.59,-24.04 49.02,-35.9 34.69,-25.05 69.29,-50.27 104.12,-75.14 17.24,-12.32 34.66,-24.4 52.02,-36.57 15.95,-11.18 31.88,-22.48 48.34,-32.91 17.27,-10.96 34.69,-21.66 52.14,-32.36 17.41,-10.68 34.5,-21.89 52.11,-32.22 22.75,-13.34 45.74,-26.24 69.76,-37.19 11.35,-5.15 22.58,-10.53 33.94,-15.62 5.41,-2.43 10.75,-5.01 16.19,-7.36 4,-1.73 8.07,-3.53 12.22,-4.93 1.32,-0.43 2.61,-0.79 3.97,-1.12 2.64,-0.55 5.3,-0.86 7.98,-0.94 4.77,-0.22 8.16,1.6 12.34,3.46 5,2.24 8.87,8.27 10.27,13.35 1.36,4.97 0.89,10.12 -1.09,14.78 15.82,30.09 30.1,61.01 43.97,92.04 15.47,34.59 30.73,69.28 45.2,104.31 29.72,71.93 59.06,143.99 87.69,216.35 25.98,65.64 51.4,131.49 78.03,196.86 16.01,39.32 32.01,78.64 48.02,117.95 15.98,39.26 32.66,78.25 48.99,117.36 11.51,27.55 22.92,55.15 34.31,82.76 10.4,25.21 20.8,50.41 31.21,75.62 4.87,11.77 9.87,23.51 14.58,35.35 16.06,40.41 32.12,80.83 48.18,121.23 10.69,26.87 21.08,53.82 31.3,80.88 15.09,40 30.2,79.98 45.29,119.98 4.62,12.23 8.67,24.72 12.98,37.06 9.01,25.69 18,51.36 27,77.03 9.5,27.12 19.03,54.21 28.17,81.43 15.6,46.46 31.2,92.9 46.8,139.36 46.27,137.73 92.31,275.52 140.2,412.69 11.01,31.55 21.77,63.18 33.42,94.5 14.86,39.97 29.69,79.95 44.56,119.93 5.74,15.41 12.21,30.59 18.32,45.86 9.71,24.34 19.44,48.67 29.15,73 12.98,32.52 26.3,64.91 39.51,97.34 55.14,135.38 107.02,272.05 160.47,408.09 14.46,36.8 28.82,73.6 42.96,110.51 5.95,15.5 12.34,30.91 17.77,46.58 7.78,22.49 15.57,44.96 23.35,67.43 5.52,15.96 10.3,32.18 15.27,48.33 5.27,17.03 10.29,34.05 15.08,51.24 8.92,31.93 17.07,64.05 24.83,96.27 2.35,2.49 4.69,5 7.06,7.48 6.47,6.81 12.74,13.26 17.36,21.58 3.06,5.54 3.72,11.97 1.75,17.85 1.35,3.11 2.64,6.25 3.88,9.41 0.57,4.02 1.09,8.05 1.54,12.09 0.75,6.18 -3.1,13.44 -7.31,17.65" /><path
         id="path102"
         style="fill:#282727;fill-opacity:1;fill-rule:nonzero;stroke:none"
         d="m 400.77,4412.36 c -1.618,1.25 -3.231,2.52 -4.844,3.77 -0.067,0.04 -0.129,0.09 -0.192,0.14 1.668,-1.31 3.356,-2.6 5.036,-3.91" /><path
         id="path104"
         style="fill:#1a1817;fill-opacity:1;fill-rule:nonzero;stroke:none"
         d="m 1394.55,3038.11 c 0.34,-19.64 2.06,-39.11 5.22,-58.5 3.68,-22.71 10.98,-44.6 20.06,-65.67 7.12,-16.55 16.45,-31.98 26.06,-47.18 4.71,-7.44 10.61,-14.35 16,-21.3 4.54,-5.87 9.51,-11.29 14.53,-16.76 10.58,-11.53 21.84,-22.57 34.06,-32.38 0.05,-0.03 0.11,0 0.08,0.06 -7.31,13.4 -13.8,27.25 -20.28,41.06 -3.05,6.49 -6.37,12.85 -9.23,19.4 -3.42,7.89 -6.98,15.72 -10.68,23.48 -6.07,14.66 -12.78,28.97 -19.67,43.26 -9.35,19.43 -19.78,38.31 -29.16,57.73 -9.13,18.86 -17.87,37.9 -26.9,56.83 -0.01,0.01 -0.02,0.02 -0.03,0.02 -0.03,0 -0.06,-0.02 -0.06,-0.05 v 0 0" /><path
         id="path106"
         style="fill:#1a1817;fill-opacity:1;fill-rule:nonzero;stroke:none"
         d="m 1710.43,2552.97 c 0.43,-0.32 0.86,-0.65 1.28,-0.99 -0.43,0.34 -0.85,0.67 -1.28,0.99 v 0 z m -68.83,48.86 c 15.95,-22.56 32.93,-44.36 50.82,-65.43 13.29,-15.68 27.91,-30.39 42.73,-44.6 6.89,-6.56 14.47,-12.47 21.94,-18.37 7.89,-6.23 15.84,-12.46 24.07,-18.24 17.55,-12.38 35.54,-24.06 53.92,-35.16 13.75,-8.3 27.63,-16.39 41.55,-24.41 0.04,-0.03 0.08,0.05 0.06,0.08 -25.77,28.88 -51.79,57.57 -79.7,84.42 -27.52,26.47 -56.85,51 -87.58,73.65 -21.93,16.95 -44.61,32.87 -67.75,48.14 -0.01,0 -0.01,0 -0.02,0 -0.04,0 -0.06,-0.04 -0.04,-0.08 v 0 0" /><path
         id="path108"
         style="fill:#1a1817;fill-opacity:1;fill-rule:nonzero;stroke:none"
         d="m 2137.85,2271.85 c 22.94,-17.6 46.82,-33.6 72.21,-47.4 16.55,-9 33.7,-17.25 51.58,-23.25 19.28,-6.46 39.02,-11.29 58.98,-15.13 19.02,-3.67 38.31,-6.54 57.65,-7.71 0.07,-0.02 0.08,0.06 0.03,0.09 -16.34,9.53 -32.16,19.93 -48.44,29.56 -17.75,10.51 -36,20.29 -54.88,28.62 -43.32,19.12 -90.27,29.37 -137.09,35.31 -0.01,0.01 -0.01,0.01 -0.02,0.01 -0.03,0 -0.04,-0.07 -0.02,-0.1 v 0 0" /><path
         id="path110"
         style="fill:#1a1817;fill-opacity:1;fill-rule:nonzero;stroke:none"
         d="m 2811.57,2169.9 c -41.25,-5.37 -82.67,-3.47 -124.12,-2.32 -0.04,0 -0.07,-0.07 -0.03,-0.09 23.21,-10.26 47.17,-19.1 72.11,-23.98 11.58,-2.29 23.46,-3.57 35.25,-4.06 12.32,-0.51 24.6,0.94 36.77,2.63 10.66,1.46 21.2,3.89 31.67,6.33 33.21,7.72 65.68,18.58 97.99,29.37 0.06,0.02 0.05,0.08 -0.02,0.08 -10.7,0.55 -21.4,0.8 -32.09,0.8 -39.32,0 -78.46,-3.45 -117.53,-8.76 v 0 0" /><path
         id="path112"
         style="fill:#1a1817;fill-opacity:1;fill-rule:nonzero;stroke:none"
         d="m 3429.64,2417.63 c -17.55,-11.38 -34.84,-23.05 -51.45,-35.78 0.16,0.12 0.32,0.23 0.46,0.35 -7.84,-5.97 -15.43,-12.23 -22.96,-18.58 -7.54,-6.38 -14.34,-13.46 -21.23,-20.51 -14.5,-14.84 -28.18,-30.98 -40.84,-47.4 0.19,0.22 0.37,0.44 0.55,0.67 -2.76,-3.55 -5.52,-7.1 -8.22,-10.68 -0.03,-0.05 0.03,-0.1 0.08,-0.08 32.4,13.85 63.11,31.89 88.22,56.9 10.83,10.79 20.25,23.22 29.29,35.54 9.36,12.72 17.98,25.99 26.16,39.51 0.03,0.03 0,0.07 -0.03,0.07 -0.01,0 -0.02,0 -0.03,-0.01 v 0 0" /><path
         id="path114"
         style="fill:#1a1817;fill-opacity:1;fill-rule:nonzero;stroke:none"
         d="m 3630.17,2818.35 c -2.87,-14.27 -5.97,-28.49 -8.39,-42.85 -2.33,-13.77 -4.04,-27.68 -5.34,-41.58 -1.47,-15.62 -2.16,-31.15 -2.14,-46.84 0.03,-18.88 1.02,-37.95 -1.02,-56.75 -0.97,-6.66 -2.52,-12.79 -5.05,-19.05 -3.77,-8.15 -8.2,-16 -12.44,-23.9 -0.03,-0.05 0.05,-0.1 0.08,-0.05 2.78,4.12 5.53,8.25 8.3,12.4 4.14,6.23 8.67,12.47 11.41,19.49 5.88,15.09 8.08,31.11 10.38,47.03 2.28,15.94 4.21,31.89 5.73,47.89 3.27,34.49 4.93,69.98 -1.43,104.21 0,0.02 -0.01,0.03 -0.04,0.03 -0.02,0 -0.04,-0.01 -0.05,-0.03 v 0 0" /><path
         id="path116"
         style="fill:#1a1817;fill-opacity:1;fill-rule:nonzero;stroke:none"
         d="m 3365.73,3155.25 c 0.7,-0.51 1.39,-1.03 2.08,-1.54 -0.02,0.02 -0.04,0.04 -0.06,0.06 1.37,-1.01 2.51,-2.22 3.46,-3.65 -0.11,0.16 -0.22,0.3 -0.35,0.45 6.86,-10.3 12.07,-21.66 17.97,-32.54 3.72,-6.86 7.65,-13.6 11.63,-20.32 9.14,-15.37 19.24,-30.2 30.56,-44.05 -0.58,0.76 -1.16,1.51 -1.73,2.25 25.19,-32.24 57.44,-59.21 91.28,-81.93 0.03,-0.03 0.08,0.01 0.08,0.04 -7.82,23.21 -17.43,45.48 -29.38,66.82 -8.53,15.29 -18.13,31.22 -29.9,44.32 -10.8,11.99 -22.8,23.3 -35.46,33.32 -7.97,6.32 -16.1,12.45 -24.4,18.36 -4.73,3.36 -9.58,6.56 -14.49,9.68 -6.63,4.19 -13.35,8.19 -21.26,8.81 -0.06,0 -0.06,-0.06 -0.03,-0.08 v 0 0" /><path
         id="path118"
         style="fill:#1a1817;fill-opacity:1;fill-rule:nonzero;stroke:none"
         d="m 3090,3186.07 c -12.8,-4.15 -24.56,-11.42 -35.29,-19.41 -15.34,-11.42 -27.49,-25.69 -38.95,-40.84 -5.44,-7.18 -10.21,-14.79 -14.32,-22.8 -0.03,-0.05 0.02,-0.1 0.06,-0.06 8.65,6.37 17.91,11.61 27.31,16.74 22.98,12.53 46.77,22.99 70.76,33.36 13.78,5.79 27.97,11.6 42.73,13.96 16.12,1.46 32.17,0.3 48.32,-0.02 0.04,0 0.05,0.06 0.02,0.09 -9.07,6.18 -18.2,12.33 -28.25,16.79 -11.15,4.98 -22.1,8.05 -34.34,8.48 -0.89,0.03 -1.77,0.04 -2.66,0.04 -11.88,0 -24.22,-2.73 -35.39,-6.33 v 0 0" /><path
         id="path120"
         style="fill:#1a1817;fill-opacity:1;fill-rule:nonzero;stroke:none"
         d="m 2870.67,2882.84 c -15.24,-25.63 -28.31,-52.28 -38.95,-80.14 -4.49,-11.79 -6.97,-24.42 -8.71,-36.88 -2.09,-15.04 -2.48,-29.69 0.04,-44.72 1.62,-9.73 5.85,-18.81 9.98,-27.69 2.99,-6.38 6.38,-12.37 10.39,-18.17 0.03,-0.05 0.1,-0.02 0.09,0.03 -1.21,4.93 -2.06,9.83 -2.9,14.82 -0.35,3.54 -0.71,7.09 -1.1,10.63 -0.98,9.17 -0.92,18.11 0.15,27.23 1.69,10.62 4.49,20.91 7.32,31.28 2.93,10.74 5.65,21.55 8.16,32.4 1.77,7.72 3.71,15.38 5.35,23.12 4.76,22.41 7.98,45.27 10.27,68.07 0,0.03 -0.03,0.04 -0.05,0.04 -0.02,0 -0.04,0 -0.04,-0.02 v 0 0" /><path
         id="path122"
         style="fill:#1a1817;fill-opacity:1;fill-rule:nonzero;stroke:none"
         d="m 2929.51,2423.31 c 2.73,-17.63 6.61,-34.99 11.41,-52.18 1.43,-5.18 3.36,-10.21 5.18,-15.25 2.55,-6.97 5.04,-14.3 8.45,-20.89 12.71,-24.59 28.87,-47.59 48.28,-67.37 0.05,-0.03 0.11,0.02 0.08,0.06 -3.46,7.04 -6.56,14.2 -9.73,21.37 -1.9,4.57 -3.83,9.15 -5.81,13.68 -2.36,5.75 -4.81,11.47 -7.32,17.15 -3.05,7.9 -6.27,15.73 -9.75,23.44 -4.67,11.47 -10.39,22.39 -15.75,33.55 -7.59,15.86 -16.2,31.23 -24.96,46.48 -0.01,0.02 -0.02,0.03 -0.03,0.03 -0.03,0 -0.06,-0.03 -0.05,-0.07 v 0 0" /><path
         id="path124"
         style="fill:#1a1817;fill-opacity:1;fill-rule:nonzero;stroke:none"
         d="m 3265.8,1951.23 c 16.16,-34.37 36.01,-68.09 62.23,-95.81 21.29,-22.48 46.02,-41.54 70.66,-60.15 0.05,-0.03 0.09,0.03 0.08,0.06 -14.22,26.97 -28.69,53.93 -46.94,78.44 -23.18,31.11 -53.8,56.19 -85.95,77.52 -0.01,0.01 -0.02,0.01 -0.03,0.01 -0.03,0 -0.06,-0.04 -0.05,-0.07 v 0 0" /><path
         id="path126"
         style="fill:#1a1817;fill-opacity:1;fill-rule:nonzero;stroke:none"
         d="m 3640.22,1550.81 c 28.51,-39.32 60.18,-77.68 97.2,-109.33 32.37,-27.69 67.89,-51.04 103.3,-74.55 0.03,-0.02 0.1,0.03 0.07,0.06 -23.41,34.23 -50.07,66.68 -79.5,95.9 -13.66,13.56 -28.66,25.54 -43.94,37.21 -24.48,18.69 -50.38,35.41 -77.06,50.77 -0.01,0 -0.02,0 -0.02,0 -0.04,0 -0.08,-0.04 -0.05,-0.06 v 0 0" /><path
         id="path128"
         style="fill:#1a1817;fill-opacity:1;fill-rule:nonzero;stroke:none"
         d="m 4226.32,1101.98 c 29.13,-40.29 62.23,-78.88 100.95,-110.3 35.32,-28.649 75.54,-50 115.45,-71.391 7.83,-4.199 15.6,-8.559 23.13,-13.277 0.05,-0.032 0.09,0.008 0.06,0.058 -12.14,18.321 -26.44,35.27 -40.82,51.86 -11.99,13.84 -24.87,26.961 -38.16,39.582 -34.99,33.238 -75.5,60.188 -118.09,82.718 -13.94,7.39 -28.11,14.28 -42.46,20.8 0,0.01 -0.01,0.01 -0.01,0.01 -0.03,0 -0.08,-0.04 -0.05,-0.06 v 0 0" /><path
         id="path130"
         style="fill:#1a1817;fill-opacity:1;fill-rule:nonzero;stroke:none"
         d="m 4765.44,721.152 c 0.07,-0.043 0.14,-0.101 0.21,-0.152 -0.07,0.051 -0.14,0.102 -0.21,0.152 v 0 z m -5.95,4.957 c 11.27,-23.629 31.41,-41.39 51.19,-57.828 10.29,-8.562 20.72,-16.89 31.34,-25.051 17.48,-13.417 35.58,-26.031 54.14,-37.91 36.1,-23.101 73.76,-43.781 110.82,-65.261 4.95,-2.868 9.86,-5.817 14.75,-8.77 0.05,-0.027 0.1,0.051 0.07,0.082 -27.5,31.328 -56.75,61.609 -89.23,87.809 -10.59,8.539 -21.35,16.902 -32.39,24.84 -7.37,5.281 -15.35,9.871 -23.12,14.543 -11.37,6.816 -22.95,13.316 -34.65,19.589 -19.65,10.528 -40.11,19.547 -59.37,30.797 -6.08,3.543 -11.76,7.723 -17.34,12 0.02,-0.008 0.03,-0.027 0.05,-0.039 -2.15,1.68 -4.17,3.41 -6.19,5.262 -0.01,0.008 -0.02,0.019 -0.03,0.019 -0.03,0 -0.06,-0.039 -0.04,-0.082 v 0 0" /><path
         id="path132"
         style="fill:#1a1817;fill-opacity:1;fill-rule:nonzero;stroke:none"
         d="m 5209.35,390.961 c 36.54,-29.582 75.27,-57.68 117.28,-79.012 35.52,-18.039 73.09,-33.078 111.45,-43.808 0.06,-0.012 0.08,0.05 0.04,0.082 -32.95,21.929 -63.88,46.668 -97.74,67.238 -15.79,9.609 -32.26,17.75 -49.16,25.211 -26.68,11.797 -53.94,21.84 -81.82,30.367 -0.01,0 -0.01,0 -0.02,0 -0.04,0 -0.07,-0.047 -0.03,-0.078 v 0 0" /><path
         id="path134"
         style="fill:#1a1817;fill-opacity:1;fill-rule:nonzero;stroke:none"
         d="m 5677.16,130.73 c 38,-30.8198 78.62,-58.9605 122.26,-81.2183 16.85,-8.6015 34.28,-16.1328 51.78,-23.2812 19.46,-7.961 39.19,-15.2305 59.18,-21.78909 4.74,-1.5625 9.51,-3.03125 14.29,-4.44141 0.07,-0.0195313 0.1,0.0585938 0.05,0.0898438 C 5907.65,10.8203 5890.95,22.1719 5873.95,33.0195 c -19.04,12.1524 -38.39,23.8907 -58.18,34.7618 -18.45,10.1171 -37.28,19.3789 -56.51,27.9609 -9.03,4.0391 -17.95,8.3208 -26.99,12.2968 -11.35,4.981 -22.8,9.762 -34.31,14.363 -6.92,2.758 -13.81,5.649 -20.75,8.399 -0.01,0 -0.01,0 -0.02,0 -0.04,0 -0.07,-0.051 -0.03,-0.071 v 0 0" /></g></g></svg>